<?xml version="1.0" standalone="no"?>
<!DOCTYPE svg PUBLIC "-//W3C//DTD SVG 1.1//EN" "http://www.w3.org/Graphics/SVG/1.1/DTD/svg11.dtd" >
<svg>
<metadata>
Created by FontForge 20090622 at Wed Nov  6 14:34:23 2019
 By deploy user
Copyright &#194;&#169; 2019 by Adrien Midzic. All rights reserved.
</metadata>
<defs>
<font id="Wasa-Bold" horiz-adv-x="232" >
  <font-face 
    font-family="Wasa"
    font-weight="700"
    font-stretch="normal"
    units-per-em="1000"
    panose-1="0 0 8 0 0 0 0 0 0 0"
    ascent="800"
    descent="-200"
    x-height="499"
    cap-height="700"
    bbox="-421 -260 1429 900"
    underline-thickness="112"
    underline-position="-36"
    unicode-range="U+000D-U+FB02"
  />
<missing-glyph horiz-adv-x="401" 
d="M351 31l-301 515v144l301 -514v-145zM351 200l-262 448l60 42l202 -345v-145zM351 373l-161 275l60 42l101 -172v-145zM351 544l-61 104l61 41v-145zM269 0l-219 375v145l279 -478zM169 0l-119 204v145l179 -307zM69 0l-19 33v145l79 -136z" />
    <glyph glyph-name="fi" unicode="fi" horiz-adv-x="690" 
d="M138 561q0 67 36 108t114 41h145v-112h-107q-31 0 -43.5 -15.5t-12.5 -51.5v-31h163v-112h-163v-398h-132v398h-128v112h128v61zM501 710h146v-135h-146v135zM508 0v500h132v-500h-132z" />
    <glyph glyph-name="fl" unicode="fl" horiz-adv-x="690" 
d="M138 561q0 67 36 108t114 41h145v-112h-107q-31 0 -43.5 -15.5t-12.5 -51.5v-31h163v-112h-163v-398h-132v398h-128v112h128v61zM508 710h132v-710h-132v710z" />
    <glyph glyph-name=".notdef" horiz-adv-x="401" 
d="M351 31l-301 515v144l301 -514v-145zM351 200l-262 448l60 42l202 -345v-145zM351 373l-161 275l60 42l101 -172v-145zM351 544l-61 104l61 41v-145zM269 0l-219 375v145l279 -478zM169 0l-119 204v145l179 -307zM69 0l-19 33v145l79 -136z" />
    <glyph glyph-name=".null" horiz-adv-x="0" 
 />
    <glyph glyph-name="nonmarkingreturn" horiz-adv-x="333" 
 />
    <glyph glyph-name="CR" unicode="&#xd;" horiz-adv-x="600" 
 />
    <glyph glyph-name="space" unicode=" " horiz-adv-x="220" 
 />
    <glyph glyph-name="exclam" unicode="!" horiz-adv-x="252" 
d="M62 700h132v-480h-132v480zM50 0v143h152v-143h-152z" />
    <glyph glyph-name="quotedbl" unicode="&#x22;" horiz-adv-x="402" 
d="M50 700h121v-210h-121v210zM231 700h121v-210h-121v210z" />
    <glyph glyph-name="numbersign" unicode="#" horiz-adv-x="742" 
d="M668 444h-87l-44 -195h97l-24 -105h-96l-32 -144h-113l32 144h-148l-32 -144h-113l32 144h-90l24 105h89l44 195h-99l24 105h98l34 151h113l-34 -151h148l34 151h113l-34 -151h88zM424 249l44 195h-148l-44 -195h148z" />
    <glyph glyph-name="dollar" unicode="$" horiz-adv-x="584" 
d="M355 407q105 -29 146.5 -72.5t41.5 -132.5t-48 -142.5t-140 -66.5v-73h-107v73q-181 25 -208 241h123q12 -102 85 -124v189q-105 25 -149.5 73t-44.5 135q0 92 52 145.5t142 64.5v63h107v-66q81 -16 131.5 -75.5t57.5 -152.5h-117q-10 84 -72 109v-188zM173 518
q0 -37 19 -55.5t56 -29.5v169q-37 -8 -56 -30.5t-19 -53.5zM355 111q69 18 69 85q0 57 -69 79v-164z" />
    <glyph glyph-name="percent" unicode="%" horiz-adv-x="1030" 
d="M211 239q-89 0 -138 63.5t-49 172.5t49 172t138 63q90 0 139 -63t49 -172t-49 -172.5t-139 -63.5zM643 690h124l-380 -690h-124zM211 343q68 0 68 132q0 131 -68 131t-68 -131q0 -132 68 -132zM818 -7q-89 0 -138 63.5t-49 172.5t49 172t138 63q90 0 139 -63t49 -172
t-49 -172.5t-139 -63.5zM818 97q68 0 68 132q0 131 -68 131t-68 -131q0 -132 68 -132z" />
    <glyph glyph-name="ampersand" unicode="&#x26;" horiz-adv-x="682" 
d="M682 0h-156l-53 56q-92 -67 -226 -67q-42 0 -81.5 10.5t-73.5 32t-54.5 59t-20.5 85.5q0 78 49.5 125.5t120.5 58.5q-78 91 -78 161q0 85 55.5 137t164.5 52q99 0 149 -42.5t50 -117.5q-1 -68 -51 -120t-134 -74l95 -96l32 -35q37 63 55 161h126q-25 -154 -97 -250z
M325 590q-40 0 -62.5 -20t-22.5 -60q0 -29 18 -57t57 -69q51 23 72.5 53t21.5 73q0 80 -84 80zM274 109q68 0 118 32l-105 111l-64 67q-73 -43 -73 -112q0 -98 124 -98z" />
    <glyph glyph-name="quotesingle" unicode="'" horiz-adv-x="221" 
d="M50 700h121v-210h-121v210z" />
    <glyph glyph-name="parenleft" unicode="(" horiz-adv-x="316" 
d="M316 730q-134 -185 -134 -430q0 -255 134 -440h-132q-134 185 -134 440q0 245 134 430h132z" />
    <glyph glyph-name="parenright" unicode=")" horiz-adv-x="316" 
d="M0 730h132q134 -185 134 -430q0 -255 -134 -440h-132q134 185 134 440q0 245 -134 430z" />
    <glyph glyph-name="asterisk" unicode="*" horiz-adv-x="460" 
d="M410 590l-113 -68l113 -67l-48 -70l-96 70l6 -111h-84l6 111l-96 -70l-48 70l113 67l-113 68l48 69l96 -70l-6 111h84l-6 -111l96 70z" />
    <glyph glyph-name="plus" unicode="+" horiz-adv-x="535" 
d="M485 348v-115h-160v-145h-115v145h-160v115h160v145h115v-145h160z" />
    <glyph glyph-name="comma" unicode="," horiz-adv-x="254" 
d="M50 145h154v-145q0 -70 -37 -117t-117 -50v83q16 2 26 5t20.5 11.5t15 25t4.5 42.5h-66v145z" />
    <glyph glyph-name="hyphen" unicode="-" horiz-adv-x="445" 
d="M395 236h-345v112h345v-112z" />
    <glyph glyph-name="period" unicode="." horiz-adv-x="252" 
d="M50 0v143h152v-143h-152z" />
    <glyph glyph-name="slash" unicode="/" horiz-adv-x="457" 
d="M310 770h137l-300 -830h-137z" />
    <glyph glyph-name="zero" unicode="0" horiz-adv-x="624" 
d="M312 -10q-130 0 -198.5 96t-68.5 264t68.5 264t198.5 96t198.5 -96t68.5 -264t-68.5 -264t-198.5 -96zM312 109q130 0 130 241t-130 241q-131 0 -131 -241t131 -241z" />
    <glyph glyph-name="one" unicode="1" horiz-adv-x="445" 
d="M350 700v-700h-132v430q0 66 17 124h-2q-40 -131 -123 -131h-75v117h75q32 0 53 11.5t30.5 34.5t12.5 46t3 58v10h141z" />
    <glyph glyph-name="two" unicode="2" horiz-adv-x="547" 
d="M133 118h369v-119h-466v119q144 126 208.5 191.5t86.5 105t22 85.5q0 39 -23 65t-66 26q-48 0 -76 -25.5t-33 -88.5h-131q2 119 65 176t175 57q108 0 167 -53t59 -142q0 -112 -81 -196t-276 -201z" />
    <glyph glyph-name="three" unicode="3" horiz-adv-x="559" 
d="M340 360q90 -9 134.5 -53t44.5 -115q0 -95 -63.5 -148.5t-173.5 -53.5q-128 0 -194.5 61.5t-62.5 191.5h131q1 -77 30.5 -105.5t91.5 -28.5q52 0 79 18.5t27 68.5q0 53 -34.5 77.5t-107.5 24.5h-33v119h50q60 0 87 20t27 68q0 86 -94 86q-43 0 -73.5 -25t-33.5 -83h-132
q4 113 71 170t169 57q108 0 168 -49.5t60 -141.5q0 -64 -42.5 -106.5t-125.5 -52.5z" />
    <glyph glyph-name="four" unicode="4" horiz-adv-x="624" 
d="M575 293v-119h-93v-174h-132v174h-320v119l237 407h215v-407h93zM165 293h185v330z" />
    <glyph glyph-name="five" unicode="5" horiz-adv-x="570" 
d="M323 456q93 0 150 -61.5t57 -160.5q0 -116 -66.5 -180t-187.5 -64q-112 0 -174.5 64.5t-62.5 179.5h130q2 -66 27 -95.5t87 -29.5q112 0 112 125q0 52 -27.5 86.5t-87.5 34.5q-32 0 -63 -16.5t-47 -40.5l-112 30l51 372h373v-119h-273l-30 -218q37 93 144 93z" />
    <glyph glyph-name="six" unicode="6" horiz-adv-x="546" 
d="M317 446q87 0 143 -65.5t56 -161.5q0 -106 -63.5 -167.5t-180.5 -61.5q-133 0 -187.5 88t-54.5 254q0 99 27.5 172.5t76.5 115t107.5 61t128.5 19.5h115v-119h-92q-117 0 -169 -44q-64 -54 -64 -205l-2 -24q12 61 50.5 99.5t108.5 38.5zM276 102q105 0 105 110
q0 68 -27 97t-78 29q-108 0 -108 -120q0 -57 29 -86.5t79 -29.5z" />
    <glyph glyph-name="seven" unicode="7" horiz-adv-x="513" 
d="M40 700h443v-119q-121 -132 -181 -267.5t-101 -313.5h-149q45 170 112.5 309.5t191.5 271.5h-316v119z" />
    <glyph glyph-name="eight" unicode="8" horiz-adv-x="582" 
d="M381 355q80 -17 118 -63.5t38 -109.5q0 -86 -67.5 -139t-178.5 -53q-114 0 -180 54.5t-66 137.5q0 64 39 110t116 63q-46 12 -76.5 31.5t-44 43.5t-18.5 44t-5 45q0 84 65 137.5t170 53.5q109 0 172 -54.5t63 -136.5q0 -25 -5 -45t-18.5 -44t-44.5 -43.5t-77 -31.5z
M291 601q-53 0 -80 -26.5t-27 -70.5q0 -42 29.5 -69.5t77.5 -27.5q52 0 79.5 28.5t27.5 68.5q0 46 -29 71.5t-78 25.5zM291 100q58 0 87.5 28t29.5 74q0 45 -32.5 74.5t-84.5 29.5q-57 0 -87 -30.5t-30 -73.5q0 -49 31.5 -75.5t85.5 -26.5z" />
    <glyph glyph-name="nine" unicode="9" horiz-adv-x="551" 
d="M262 710q133 0 187.5 -88t54.5 -254q0 -99 -27.5 -172.5t-76.5 -115t-107.5 -61t-128.5 -19.5h-115v119h92q117 0 169 44q64 54 64 205l2 24q-12 -61 -50.5 -99.5t-108.5 -38.5q-87 0 -143 65.5t-56 161.5q0 106 63.5 167.5t180.5 61.5zM258 362q108 0 108 120
q0 57 -29 86.5t-79 29.5q-105 0 -105 -110q0 -68 27 -97t78 -29z" />
    <glyph glyph-name="colon" unicode=":" horiz-adv-x="252" 
d="M50 357v143h152v-143h-152zM50 0v143h152v-143h-152z" />
    <glyph glyph-name="semicolon" unicode=";" horiz-adv-x="254" 
d="M50 357v143h152v-143h-152zM50 -167v83q16 2 26 5t20.5 11.5t15 25t4.5 42.5h-66v145h154v-145q0 -70 -37 -117t-117 -50z" />
    <glyph glyph-name="less" unicode="&#x3c;" horiz-adv-x="447" 
d="M432 480v-132l-333 -95l333 -95v-132l-417 129v196z" />
    <glyph glyph-name="equal" unicode="=" horiz-adv-x="565" 
d="M515 333h-465v115h465v-115zM515 133h-465v115h465v-115z" />
    <glyph glyph-name="greater" unicode="&#x3e;" horiz-adv-x="447" 
d="M15 480l417 -129v-196l-417 -129v132l333 95l-333 95v132z" />
    <glyph glyph-name="question" unicode="?" horiz-adv-x="535" 
d="M264 710q108 0 167 -50.5t59 -134.5q0 -127 -157 -206v-99h-132v116q102 67 127 93.5t25 80.5q0 35 -23.5 58t-65.5 23q-48 0 -76 -25.5t-33 -88.5h-131q2 119 65 176t175 57zM189 0v143h152v-143h-152z" />
    <glyph glyph-name="at" unicode="@" horiz-adv-x="866" 
d="M433 653q180 0 291.5 -111.5t111.5 -277.5q0 -82 -47 -142t-138 -60q-112 0 -131 93q-25 -93 -128 -93q-68 0 -114 54t-46 140t46 140t114 54q94 0 123 -79v79h116v-232q0 -41 9.5 -58t33.5 -17q25 0 34.5 24t9.5 97q0 128 -77.5 210.5t-207.5 82.5t-207.5 -82.5
t-77.5 -210.5t77.5 -210.5t207.5 -82.5q61 0 113 19l40 -86q-70 -29 -153 -29q-180 0 -291.5 111.5t-111.5 277.5t111.5 277.5t291.5 111.5zM438 143q42 0 65.5 30.5t23.5 82.5q0 50 -22.5 81.5t-66.5 31.5q-42 0 -65 -30t-23 -83t23 -83t65 -30z" />
    <glyph glyph-name="A" unicode="A" horiz-adv-x="708" 
d="M555 0l-56 169h-293l-56 -169h-140l238 700h209l241 -700h-143zM246 289h213l-106 322z" />
    <glyph glyph-name="B" unicode="B" horiz-adv-x="646" 
d="M466 358q145 -26 145 -158q0 -98 -62 -149t-170 -51h-329v700h321q109 0 169 -46.5t60 -139.5q0 -124 -134 -156zM353 581h-171v-164h169q61 0 87.5 17t26.5 65t-26 65t-86 17zM341 119q72 0 103.5 19t31.5 70q0 52 -33 71.5t-109 19.5h-152v-180h159z" />
    <glyph glyph-name="C" unicode="C" horiz-adv-x="680" 
d="M510 233h140q-22 -115 -98.5 -179t-203.5 -64q-154 0 -236 96t-82 264q0 172 84 266t234 94q122 0 200 -64.5t98 -178.5h-141q-30 124 -151 124q-188 0 -188 -241q0 -119 47.5 -180t134.5 -61q131 0 162 124z" />
    <glyph glyph-name="D" unicode="D" horiz-adv-x="669" 
d="M301 700q156 0 247 -95.5t91 -254.5t-91 -254.5t-247 -95.5h-251v700h251zM301 119q90 0 146 60.5t56 170.5t-56 170.5t-146 60.5h-119v-462h119z" />
    <glyph glyph-name="E" unicode="E" horiz-adv-x="588" 
d="M182 119h366v-119h-498v700h497v-119h-365v-165h351v-119h-351v-178z" />
    <glyph glyph-name="F" unicode="F" horiz-adv-x="578" 
d="M547 581h-365v-165h351v-119h-351v-297h-132v700h497v-119z" />
    <glyph glyph-name="G" unicode="G" horiz-adv-x="711" 
d="M666 367v-367h-132v157q-25 -167 -207 -167q-129 0 -213 99t-84 261q0 170 90.5 265t244.5 95q121 0 195 -63.5t95 -177.5h-141q-23 122 -148 122q-91 0 -145.5 -59.5t-54.5 -181.5q0 -117 51.5 -179t140.5 -62q78 0 124 35t52 104h-193v119h325z" />
    <glyph glyph-name="H" unicode="H" horiz-adv-x="683" 
d="M501 700h132v-700h-132v301h-319v-301h-132v700h132v-280h319v280z" />
    <glyph glyph-name="I" unicode="I" 
d="M50 700h132v-700h-132v700z" />
    <glyph glyph-name="J" unicode="J" horiz-adv-x="558" 
d="M376 700h132v-435q0 -140 -69 -207.5t-174 -67.5q-247 0 -255 264h139q3 -85 32.5 -115t82.5 -30q57 0 84.5 45t27.5 117v429z" />
    <glyph glyph-name="K" unicode="K" horiz-adv-x="627" 
d="M627 0h-168l-277 341v-341h-132v700h132v-337l274 337h163l-284 -347z" />
    <glyph glyph-name="L" unicode="L" horiz-adv-x="558" 
d="M182 119h356v-119h-488v700h132v-581z" />
    <glyph glyph-name="M" unicode="M" horiz-adv-x="856" 
d="M806 700v-700h-122v607l-164 -607h-184l-164 607v-607h-122v700h224l154 -589l154 589h224z" />
    <glyph glyph-name="N" unicode="N" horiz-adv-x="675" 
d="M503 700h122v-700h-211l-242 596v-596h-122v700h216l237 -584v584z" />
    <glyph glyph-name="O" unicode="O" horiz-adv-x="706" 
d="M353 -10q-151 0 -237 100.5t-86 259.5q0 164 88.5 262t234.5 98q151 0 237 -100.5t86 -259.5q0 -164 -88.5 -262t-234.5 -98zM353 109q87 0 137 68t50 173q0 108 -51.5 174.5t-135.5 66.5q-87 0 -137 -68t-50 -173q0 -108 51.5 -174.5t135.5 -66.5z" />
    <glyph glyph-name="P" unicode="P" horiz-adv-x="616" 
d="M352 700q109 0 174 -57t65 -166q0 -108 -68.5 -165.5t-178.5 -57.5h-162v-254h-132v700h302zM314 373q76 0 109 22.5t33 81.5t-33 81.5t-109 22.5h-132v-208h132z" />
    <glyph glyph-name="Q" unicode="Q" horiz-adv-x="706" 
d="M676 350q0 -138 -63.5 -230.5t-173.5 -119.5h229v-126h-328v116q-146 5 -228 104.5t-82 255.5q0 164 88.5 262t234.5 98q151 0 237 -100.5t86 -259.5zM353 591q-87 0 -137 -68t-50 -173q0 -63 19 -115q1 71 41 111.5t104 40.5q57 0 96 -40t39 -100q0 -63 -46 -126
q58 24 89.5 85.5t31.5 143.5q0 108 -51.5 174.5t-135.5 66.5zM230 161q50 -52 123 -52q10 0 28 2q3 18 3 34q0 53 -23.5 87t-64.5 34q-30 0 -51 -21t-21 -51q0 -16 6 -33z" />
    <glyph glyph-name="R" unicode="R" horiz-adv-x="659" 
d="M590 175q3 -14 8 -44.5t8.5 -49t8.5 -42t11 -39.5h-142q-5 14 -10.5 41.5t-9 51l-8.5 60t-7 49.5q-6 40 -28 54.5t-66 14.5h-173v-271h-132v700h317q111 0 174 -47.5t63 -147.5q0 -128 -118 -171q50 -7 68.5 -38t35.5 -121zM334 581h-152v-191h146q65 0 103 20.5t38 74.5
q0 53 -34 74.5t-101 21.5z" />
    <glyph glyph-name="S" unicode="S" horiz-adv-x="641" 
d="M322 421q156 -32 215.5 -76t59.5 -143q0 -102 -70.5 -157t-203.5 -55q-258 0 -293 244h139q9 -65 44.5 -97.5t106.5 -32.5q74 0 108.5 25t34.5 67q0 45 -37.5 63.5t-122.5 32.5q-140 23 -198.5 72t-58.5 143q0 104 73.5 158.5t199.5 54.5q117 0 193 -62.5t86 -171.5h-132
q-15 120 -155 120q-65 0 -98 -24.5t-33 -63.5q0 -55 56 -76q19 -8 86 -21z" />
    <glyph glyph-name="T" unicode="T" horiz-adv-x="638" 
d="M20 700h598v-119h-233v-581h-132v581h-233v119z" />
    <glyph glyph-name="U" unicode="U" horiz-adv-x="662" 
d="M480 700h132v-432q0 -143 -75.5 -210.5t-204.5 -67.5q-130 0 -206 67.5t-76 210.5v432h132v-426q0 -165 150 -165q148 0 148 165v426z" />
    <glyph glyph-name="V" unicode="V" horiz-adv-x="688" 
d="M522 700h146l-213 -700h-226l-209 700h149l175 -621z" />
    <glyph glyph-name="W" unicode="W" horiz-adv-x="971" 
d="M811 700h130l-122 -700h-217l-116 608l-116 -608h-218l-122 700h130l105 -605l111 605h219l111 -605z" />
    <glyph glyph-name="X" unicode="X" horiz-adv-x="705" 
d="M689 0h-161l-177 257l-179 -257h-156l259 362l-244 338h165l158 -229l160 229h160l-244 -335z" />
    <glyph glyph-name="Y" unicode="Y" horiz-adv-x="682" 
d="M672 700l-260 -433v-267h-142v267l-260 433h157l178 -310l170 310h157z" />
    <glyph glyph-name="Z" unicode="Z" horiz-adv-x="563" 
d="M528 700v-119l-342 -462h342v-119h-498v119l342 462h-342v119h498z" />
    <glyph glyph-name="bracketleft" unicode="[" horiz-adv-x="319" 
d="M299 611h-117v-632h117v-119h-249v870h249v-119z" />
    <glyph glyph-name="backslash" unicode="\" horiz-adv-x="457" 
d="M147 770l300 -830h-137l-300 830h137z" />
    <glyph glyph-name="bracketright" unicode="]" horiz-adv-x="319" 
d="M269 730v-870h-249v119h117v632h-117v119h249z" />
    <glyph glyph-name="asciicircum" unicode="^" horiz-adv-x="431" 
d="M381 465h-122l-43 119l-44 -119h-122l104 225h123z" />
    <glyph glyph-name="underscore" unicode="_" horiz-adv-x="600" 
d="M550 -112h-500v112h500v-112z" />
    <glyph glyph-name="grave" unicode="`" horiz-adv-x="328" 
d="M278 568h-114l-114 132h152z" />
    <glyph glyph-name="a" unicode="a" horiz-adv-x="543" 
d="M264 520q107 0 168 -46t61 -139v-335h-102l-30 128q-14 -66 -55.5 -99.5t-103.5 -33.5q-74 0 -123 40t-49 114q0 69 53 111t139 42h139v15q0 93 -97 93q-49 0 -74.5 -21t-25.5 -52h-132q0 84 61 133.5t171 49.5zM243 95q50 0 84 34.5t34 86.5h-113q-43 0 -64.5 -16
t-21.5 -41q0 -64 81 -64z" />
    <glyph glyph-name="b" unicode="b" horiz-adv-x="573" 
d="M337 521q91 0 148.5 -73.5t57.5 -192.5t-57.5 -192.5t-148.5 -73.5q-121 0 -159 129l-16 -118h-112v710h132v-305q39 116 155 116zM287 99q58 0 90 42t32 114t-32 114t-90 42q-45 0 -75 -26t-41 -73l-6 -43v-14q0 -72 32 -114t90 -42z" />
    <glyph glyph-name="c" unicode="c" horiz-adv-x="560" 
d="M288 -11q-121 0 -189.5 72t-68.5 194q0 121 67.5 193.5t183.5 72.5q101 0 167 -59.5t78 -160.5h-134q-15 110 -106 110q-59 0 -92.5 -40t-33.5 -116q0 -71 34 -113.5t92 -42.5q55 0 79 26.5t31 78.5h134q-10 -105 -74.5 -160t-167.5 -55z" />
    <glyph glyph-name="d" unicode="d" horiz-adv-x="573" 
d="M391 710h132v-710h-112l-16 118q-38 -129 -159 -129q-91 0 -148.5 73.5t-57.5 192.5t57.5 192.5t148.5 73.5q116 0 155 -116v305zM286 99q58 0 90 42t32 114v14l-6 43q-11 47 -41 73t-75 26q-58 0 -90 -42t-32 -114t32 -114t90 -42z" />
    <glyph glyph-name="e" unicode="e" horiz-adv-x="572" 
d="M542 255v-29h-380q7 -59 39.5 -93t84.5 -34q53 0 73.5 17t29.5 48h145q-36 -175 -246 -175q-117 0 -187.5 73t-70.5 193q0 119 73.5 192.5t187.5 73.5q113 0 182 -73t69 -193zM289 411q-99 0 -123 -99h241q-18 99 -118 99z" />
    <glyph glyph-name="f" unicode="f" horiz-adv-x="458" 
d="M326 598q-31 0 -43.5 -15.5t-12.5 -51.5v-31h163v-112h-163v-398h-132v398h-128v112h128v61q0 67 36 108t114 41h145v-112h-107z" />
    <glyph glyph-name="g" unicode="g" horiz-adv-x="593" 
d="M431 500h112v-471q-1 -123 -57 -178t-184 -55h-204v112h187q65 0 95.5 31t30.5 125v41q-39 -116 -155 -116q-99 0 -162.5 73.5t-63.5 192.5t63.5 192.5t162.5 73.5q124 0 160 -132zM306 99q58 0 90 42t32 114t-32 114t-90 42q-66 0 -104 -42.5t-38 -113.5t38 -113.5
t104 -42.5z" />
    <glyph glyph-name="h" unicode="h" horiz-adv-x="576" 
d="M351 520q177 0 177 -185v-335h-132v317q0 93 -102 93q-57 -1 -84.5 -28t-27.5 -65v-317h-132v710h132v-315q12 50 55.5 87.5t113.5 37.5z" />
    <glyph glyph-name="i" unicode="i" 
d="M43 575v135h146v-135h-146zM50 0v500h132v-500h-132z" />
    <glyph glyph-name="j" unicode="j" horiz-adv-x="240" 
d="M51 710h146v-135h-146v135zM58 500h132v-547q0 -89 -44.5 -123.5t-137.5 -34.5h-64v112h59q33 0 44 15.5t11 61.5v516z" />
    <glyph glyph-name="k" unicode="k" horiz-adv-x="545" 
d="M388 0l-153 193l-53 -54v-139h-132v710h132v-419l198 209h158l-216 -219l223 -281h-157z" />
    <glyph glyph-name="l" unicode="l" 
d="M50 710h132v-710h-132v710z" />
    <glyph glyph-name="m" unicode="m" horiz-adv-x="862" 
d="M652 520q86 0 124 -45t38 -140v-335h-132v317q0 43 -17.5 68t-72.5 25q-55 -1 -74.5 -26t-19.5 -67v-317h-132v317q0 43 -17.5 68t-72.5 25q-55 -1 -74.5 -26t-19.5 -67v-317h-132v500h112l16 -121q2 54 40.5 97.5t117.5 43.5q73 0 111 -32t48 -100q4 52 42.5 92
t114.5 40z" />
    <glyph glyph-name="n" unicode="n" horiz-adv-x="576" 
d="M351 520q177 0 177 -185v-335h-132v317q0 93 -102 93q-57 -1 -84.5 -28t-27.5 -65v-317h-132v500h112l16 -121q3 52 48 96.5t125 44.5z" />
    <glyph glyph-name="o" unicode="o" horiz-adv-x="572" 
d="M286 521q113 0 184.5 -73.5t71.5 -192.5t-71.5 -192.5t-184.5 -73.5t-184.5 73.5t-71.5 192.5t71.5 192.5t184.5 73.5zM286 99q58 0 90 42t32 114t-32 114t-90 42t-90 -42t-32 -114t32 -114t90 -42z" />
    <glyph glyph-name="p" unicode="p" horiz-adv-x="573" 
d="M337 521q91 0 148.5 -73.5t57.5 -192.5t-57.5 -192.5t-148.5 -73.5q-116 0 -155 116v-307h-132v702h112l15 -111q36 132 160 132zM287 99q58 0 90 42t32 114t-32 114t-90 42t-90 -42t-32 -114t32 -114t90 -42z" />
    <glyph glyph-name="q" unicode="q" horiz-adv-x="573" 
d="M411 500h112v-702h-132v307q-39 -116 -155 -116q-91 0 -148.5 73.5t-57.5 192.5t57.5 192.5t148.5 73.5q124 0 160 -132zM286 99q58 0 90 42t32 114t-32 114t-90 42t-90 -42t-32 -114t32 -114t90 -42z" />
    <glyph glyph-name="r" unicode="r" horiz-adv-x="364" 
d="M310 502q10 0 32 -2v-112h-51q-54 0 -81.5 -39t-27.5 -92v-257h-132v500h112l16 -148v11q1 26 5 45t16 43t40.5 37.5t70.5 13.5z" />
    <glyph glyph-name="s" unicode="s" horiz-adv-x="493" 
d="M252 317q118 -20 167 -52.5t49 -106.5q0 -83 -62.5 -126t-154.5 -43q-217 0 -231 174h126q5 -74 105 -74q93 0 93 56q0 29 -22.5 40t-85.5 22q-107 18 -156 53t-49 103q0 78 57.5 118t163.5 40q84 0 145.5 -46.5t65.5 -128.5h-121q-11 75 -96 75q-89 0 -89 -48
q0 -27 19.5 -37t75.5 -19z" />
    <glyph glyph-name="t" unicode="t" horiz-adv-x="435" 
d="M257 388v-213q0 -35 12 -49t44 -14h87v-112h-125q-78 0 -114 41t-36 108v239h-115v112h120l30 130h97v-130h143v-112h-143z" />
    <glyph glyph-name="u" unicode="u" horiz-adv-x="578" 
d="M396 500h132v-500h-102l-27 133l1 -8q0 -52 -45.5 -98.5t-127.5 -46.5q-177 0 -177 185v335h132v-317q0 -40 24.5 -66.5t80.5 -26.5q56 1 82.5 27.5t26.5 65.5v317z" />
    <glyph glyph-name="v" unicode="v" horiz-adv-x="531" 
d="M384 500h137l-179 -500h-153l-179 500h137l119 -373z" />
    <glyph glyph-name="w" unicode="w" horiz-adv-x="824" 
d="M670 500h139l-147 -500h-165l-85 390l-85 -390h-165l-147 500h139l90 -370l72 370h192l72 -370z" />
    <glyph glyph-name="x" unicode="x" horiz-adv-x="533" 
d="M520 0h-144l-111 167l-110 -167h-144l183 262l-168 237h144l96 -142l95 142h144l-168 -238z" />
    <glyph glyph-name="y" unicode="y" horiz-adv-x="538" 
d="M389 500h139l-217 -522q-23 -55 -37 -82.5t-36.5 -54t-51.5 -36t-72 -9.5h-96v108h82q11 0 20 2t15.5 4t12.5 8.5t9.5 9.5t8 12.5l6 12.5t6 15t5.5 15l10 25l-183 492h137l112 -341z" />
    <glyph glyph-name="z" unicode="z" horiz-adv-x="470" 
d="M440 500v-112l-256 -276h256v-112h-410v112l256 276h-256v112h410z" />
    <glyph glyph-name="braceleft" unicode="{" horiz-adv-x="425" 
d="M364 -140q-97 0 -152.5 49.5t-55.5 147.5v104q0 35 -18.5 55t-56.5 20h-41v119h41q38 0 56.5 20t18.5 55v103q0 98 55.5 147.5t152.5 49.5h41v-119h-41q-76 0 -76 -78v-103q0 -107 -82 -139q82 -32 82 -130v-104q0 -78 76 -78h41v-119h-41z" />
    <glyph glyph-name="bar" unicode="|" horiz-adv-x="222" 
d="M50 780h122v-901h-122v901z" />
    <glyph glyph-name="braceright" unicode="}" horiz-adv-x="425" 
d="M61 -140h-41v119h41q76 0 76 78v104q0 98 82 130q-82 32 -82 139v103q0 78 -76 78h-41v119h41q97 0 152.5 -49.5t55.5 -147.5v-103q0 -35 18.5 -55t56.5 -20h41v-119h-41q-38 0 -56.5 -20t-18.5 -55v-104q0 -98 -55.5 -147.5t-152.5 -49.5z" />
    <glyph glyph-name="asciitilde" unicode="~" horiz-adv-x="428" 
d="M283 557q-39 0 -72 25q-35 27 -48 27q-24 0 -24 -36h-89q0 59 24.5 94t70.5 35q35 0 71 -25l13.5 -10l13 -9.5t10 -5t12.5 -2.5q24 0 24 36h89q0 -60 -24 -94.5t-71 -34.5z" />
    <glyph glyph-name="exclamdown" unicode="&#xa1;" horiz-adv-x="252" 
d="M202 500v-143h-152v143h152zM190 -200h-132v480h132v-480z" />
    <glyph glyph-name="cent" unicode="&#xa2;" horiz-adv-x="580" 
d="M540 204q-9 -93 -61 -147t-137 -65v-72h-107v75q-93 18 -144 87t-51 173q0 105 52 174.5t143 86.5v84h107v-83q80 -14 132 -71.5t62 -144.5h-134q-11 76 -60 101v-296q52 17 64 98h134zM170 255q0 -102 65 -140v282q-65 -35 -65 -142z" />
    <glyph glyph-name="sterling" unicode="&#xa3;" horiz-adv-x="603" 
d="M203 123v-4h340v-119h-503v163h120q3 52 -16 135h-104v95h78q-49 154 16.5 235.5t193.5 81.5q100 0 159.5 -63.5t75.5 -179.5h-116q-12 70 -36 102t-74 32q-30 0 -54 -9.5t-41 -31.5t-16.5 -65t21.5 -102h188v-95h-168q6 -113 -64 -175z" />
    <glyph glyph-name="currency" unicode="&#xa4;" horiz-adv-x="656" 
d="M582 341q0 -70 -37 -133l61 -61l-75 -76l-60 60q-64 -44 -143 -44t-143 44l-60 -60l-75 76l61 61q-37 63 -37 133q0 79 44 143l-68 68l76 76l70 -70q63 37 132 37q71 0 132 -37l70 70l76 -76l-68 -68q44 -64 44 -143zM328 205q55 0 94.5 40t39.5 96t-39.5 96t-94.5 40
t-94.5 -40t-39.5 -96t39.5 -96t94.5 -40z" />
    <glyph glyph-name="brokenbar" unicode="&#xa6;" horiz-adv-x="222" 
d="M50 710h122v-340h-122v340zM50 169h122v-340h-122v340z" />
    <glyph glyph-name="section" unicode="&#xa7;" horiz-adv-x="550" 
d="M428 243q70 -36 70 -119t-62.5 -126t-154.5 -43q-217 0 -231 174h126q5 -74 105 -74q93 0 93 56q0 29 -22.5 40t-85.5 22q-104 18 -149.5 50t-45.5 91q0 82 76 118q-79 38 -79 120q0 78 57.5 118t163.5 40q84 0 145.5 -46.5t65.5 -128.5h-121q-11 75 -96 75
q-89 0 -89 -48q0 -27 19.5 -37t75.5 -19q114 -19 160 -48.5t46 -90.5q0 -82 -67 -124zM187 344q0 -30 19.5 -41t75.5 -20l13 -2.5t12 -1.5q74 4 74 55q0 29 -22.5 40t-85.5 22q-86 0 -86 -52z" />
    <glyph glyph-name="dieresis" unicode="&#xa8;" horiz-adv-x="378" 
d="M50 580v120h120v-120h-120zM208 580v120h120v-120h-120z" />
    <glyph glyph-name="copyright" unicode="&#xa9;" horiz-adv-x="764" 
d="M382 -11q-152 0 -252 102t-100 250t100 250t252 102t252 -102t100 -250t-100 -250t-252 -102zM382 64q121 0 194.5 78.5t73.5 198.5t-73.5 198.5t-194.5 78.5t-194.5 -78.5t-73.5 -198.5t73.5 -198.5t194.5 -78.5zM387 183q-76 0 -123 43.5t-47 113.5q0 78 48.5 118.5
t121.5 40.5q64 0 106 -33.5t53 -89.5h-95q-2 17 -18.5 33t-45.5 16q-42 0 -58.5 -26.5t-16.5 -58.5q0 -35 18.5 -59t56.5 -24q9 0 17.5 2t14 4.5t10.5 7.5t7.5 8.5t5.5 9t4 8.5t2.5 8t1.5 6h98q-12 -63 -56 -95.5t-105 -32.5z" />
    <glyph glyph-name="ordfeminine" unicode="&#xaa;" horiz-adv-x="496" 
d="M250 709q96 0 151 -41t55 -125v-301h-92l-26 113q-13 -58 -51 -87.5t-93 -29.5q-67 0 -110.5 35.5t-43.5 102.5q0 62 47.5 99.5t124.5 37.5h125v14q0 84 -87 84q-43 0 -66.5 -19t-23.5 -47h-118q0 75 54.5 119.5t153.5 44.5zM231 327q45 0 75.5 31.5t30.5 77.5h-101
q-39 0 -58.5 -14t-19.5 -37q0 -58 73 -58z" />
    <glyph glyph-name="guillemotleft" unicode="&#xab;" horiz-adv-x="561" 
d="M311 450l-151 -205l151 -205h-146l-150 205l150 205h146zM546 450l-151 -205l151 -205h-146l-150 205l150 205h146z" />
    <glyph glyph-name="logicalnot" unicode="&#xac;" horiz-adv-x="515" 
d="M50 348h415v-268h-115v153h-300v115z" />
    <glyph glyph-name="uni00AD" unicode="&#xad;" horiz-adv-x="445" 
d="M395 236h-345v112h345v-112z" />
    <glyph glyph-name="registered" unicode="&#xae;" horiz-adv-x="764" 
d="M382 693q152 0 252 -102t100 -250t-100 -250t-252 -102t-252 102t-100 250t100 250t252 102zM382 64q121 0 194.5 78.5t73.5 198.5t-73.5 198.5t-194.5 78.5t-194.5 -78.5t-73.5 -198.5t73.5 -198.5t194.5 -78.5zM473 332q22 -3 30.5 -17t14.5 -52q8 -51 15 -76h-82
q-1 2 -14 89q-3 17 -12.5 23.5t-29.5 6.5h-76v-119h-76v305h169q50 0 80.5 -21t30.5 -64q0 -55 -50 -75zM401 418h-82v-61h82q44 0 44 30q0 31 -44 31z" />
    <glyph glyph-name="macron" unicode="&#xaf;" horiz-adv-x="370" 
d="M50 645h270v-80h-270v80z" />
    <glyph glyph-name="degree" unicode="&#xb0;" horiz-adv-x="385" 
d="M193 405q-64 0 -108.5 44.5t-44.5 108.5q0 63 44.5 107.5t108.5 44.5q63 0 107.5 -44.5t44.5 -107.5q0 -64 -44.5 -108.5t-107.5 -44.5zM193 487q26 0 45 20.5t19 50.5q0 29 -19 49.5t-45 20.5q-27 0 -46 -20.5t-19 -49.5q0 -30 19 -50.5t46 -20.5z" />
    <glyph glyph-name="plusminus" unicode="&#xb1;" horiz-adv-x="515" 
d="M315 385h150v-115h-150v-115h-115v115h-150v115h150v115h115v-115zM50 0v115h415v-115h-415z" />
    <glyph glyph-name="uni00B2" unicode="&#xb2;" horiz-adv-x="361" 
d="M106 349h241v-104h-324v104q99 85 142 128t50 57t7 36q0 11 -10 23.5t-29 12.5q-14 0 -23.5 -3t-19 -15.5t-11.5 -34.5h-114q1 78 45 117.5t123 39.5q75 0 117 -35t42 -91q0 -38 -13 -67.5t-46 -58t-71 -51.5t-106 -58z" />
    <glyph glyph-name="uni00B3" unicode="&#xb3;" horiz-adv-x="377" 
d="M248 481q113 -14 113 -107q0 -64 -45 -99.5t-120 -35.5q-92 0 -138.5 44t-41.5 131h114q0 -44 15 -57.5t48 -13.5q27 0 39 6.5t12 28.5q0 26 -20 37t-64 11h-17v104h33q33 0 47 7.5t14 31.5q0 37 -44 37q-50 0 -52 -48h-115q2 73 50 112.5t118 39.5q75 0 117.5 -33
t42.5 -96q0 -39 -26.5 -65.5t-79.5 -34.5z" />
    <glyph glyph-name="acute" unicode="&#xb4;" horiz-adv-x="328" 
d="M50 568l76 132h152l-114 -132h-114z" />
    <glyph glyph-name="uni00B5" unicode="&#xb5;" horiz-adv-x="642" 
d="M460 500h132v-500h-102l-27 133l1 -8q0 -50 -40 -97.5t-103 -47.5q-53 0 -90 35t-49 80v-299h-132v704h132v-317q0 -92 139 -93q139 1 139 93v317z" />
    <glyph glyph-name="paragraph" unicode="&#xb6;" horiz-adv-x="576" 
d="M25 531q0 74 52.5 126.5t126.5 52.5h132v-710h-132v352q-74 0 -126.5 52.5t-52.5 126.5zM394 710h132v-710h-132v710z" />
    <glyph glyph-name="periodcentered" unicode="&#xb7;" horiz-adv-x="220" 
d="M50 346v120h120v-120h-120z" />
    <glyph glyph-name="cedilla" unicode="&#xb8;" horiz-adv-x="270" 
d="M143 -33q36 -4 56.5 -22.5t20.5 -44.5q0 -74 -142 -74h-28v50h25q62 0 62 24q0 16 -19.5 24.5t-60.5 15.5l46 81h71z" />
    <glyph glyph-name="uni00B9" unicode="&#xb9;" horiz-adv-x="301" 
d="M245 698v-457h-115v265q0 44 15 78l-3 -4q-26 -59 -41 -74q-17 -16 -39 -16h-46v102h46q22 0 36.5 20.5t19 43t4.5 44.5v-2h123z" />
    <glyph glyph-name="ordmasculine" unicode="&#xba;" horiz-adv-x="535" 
d="M268 711q100 0 163.5 -65.5t63.5 -171.5t-63.5 -171.5t-163.5 -65.5q-101 0 -164.5 65.5t-63.5 171.5t63.5 171.5t164.5 65.5zM268 335q51 0 79.5 37.5t28.5 101.5t-28.5 101.5t-79.5 37.5q-52 0 -80.5 -37.5t-28.5 -101.5t28.5 -101.5t80.5 -37.5z" />
    <glyph glyph-name="guillemotright" unicode="&#xbb;" horiz-adv-x="561" 
d="M161 450l150 -205l-150 -205h-146l151 205l-151 205h146zM396 450l150 -205l-150 -205h-146l151 205l-151 205h146z" />
    <glyph glyph-name="onequarter" unicode="&#xbc;" horiz-adv-x="967" 
d="M130 241v265q0 44 15 78l-3 -4q-26 -59 -41 -74q-17 -16 -39 -16h-46v102h46q22 0 36.5 20.5t19 43t4.5 44.5v-2h123v-457h-115zM561 690h124l-380 -690h-124zM911 206v-104h-58v-102h-115v102h-204v104l132 251h187v-251h58zM648 206h90v177z" />
    <glyph glyph-name="onehalf" unicode="&#xbd;" horiz-adv-x="968" 
d="M130 241v265q0 44 15 78l-3 -4q-26 -59 -41 -74q-17 -16 -39 -16h-46v102h46q22 0 36.5 20.5t19 43t4.5 44.5v-2h123v-457h-115zM561 690h124l-380 -690h-124zM671 103h241v-104h-324v104q99 85 142 128t50 57t7 36q0 11 -10 23.5t-29 12.5q-14 0 -23.5 -3t-19 -15.5
t-11.5 -34.5h-114q1 78 45 117.5t123 39.5q75 0 117 -35t42 -91q0 -38 -13 -67.5t-46 -58t-71 -51.5t-106 -58z" />
    <glyph glyph-name="threequarters" unicode="&#xbe;" horiz-adv-x="983" 
d="M361 374q0 -64 -45 -99.5t-120 -35.5q-92 0 -138.5 44t-41.5 131h114q0 -44 15 -57.5t48 -13.5q27 0 39 6.5t12 28.5q0 26 -20 37t-64 11h-17v104h33q33 0 47 7.5t14 31.5q0 37 -44 37q-50 0 -52 -48h-115q2 73 50 112.5t118 39.5q75 0 117.5 -33t42.5 -96
q0 -39 -26.5 -65.5t-79.5 -34.5q113 -14 113 -107zM617 690h124l-380 -690h-124zM967 206v-104h-58v-102h-115v102h-204v104l132 251h187v-251h58zM704 206h90v177z" />
    <glyph glyph-name="questiondown" unicode="&#xbf;" horiz-adv-x="505" 
d="M336 500v-143h-152v143h152zM370 23h131q-2 -119 -65 -176t-175 -57q-108 0 -167 50.5t-59 134.5q0 39 12.5 71.5t39.5 60.5t47.5 44t57.5 42v87h132v-100q-103 -82 -120 -101q-31 -42 -32 -89q0 -35 23.5 -58t65.5 -23q48 0 76 25.5t33 88.5z" />
    <glyph glyph-name="Agrave" unicode="&#xc0;" horiz-adv-x="708" 
d="M417 748h-114l-114 132h152zM555 0l-56 169h-293l-56 -169h-140l238 700h209l241 -700h-143zM246 289h213l-106 322z" />
    <glyph glyph-name="Aacute" unicode="&#xc1;" horiz-adv-x="708" 
d="M522 880l-114 -132h-114l76 132h152zM555 0l-56 169h-293l-56 -169h-140l238 700h209l241 -700h-143zM246 289h213l-106 322z" />
    <glyph glyph-name="Acircumflex" unicode="&#xc2;" horiz-adv-x="708" 
d="M354 804l-44 -59h-122l104 125h123l104 -125h-122zM555 0l-56 169h-293l-56 -169h-140l238 700h209l241 -700h-143zM246 289h213l-106 322z" />
    <glyph glyph-name="Atilde" unicode="&#xc3;" horiz-adv-x="708" 
d="M307 789q-24 0 -24 -36h-89q0 59 24.5 94t70.5 35q35 0 71 -25l13.5 -10l13 -9.5t10 -5t12.5 -2.5q24 0 24 36h89q0 -60 -24 -94.5t-71 -34.5q-39 0 -72 25q-35 27 -48 27zM555 0l-56 169h-293l-56 -169h-140l238 700h209l241 -700h-143zM246 289h213l-106 322z" />
    <glyph glyph-name="Adieresis" unicode="&#xc4;" horiz-adv-x="708" 
d="M335 880v-120h-120v120h120zM493 880v-120h-120v120h120zM555 0l-56 169h-293l-56 -169h-140l238 700h209l241 -700h-143zM246 289h213l-106 322z" />
    <glyph glyph-name="Aring" unicode="&#xc5;" horiz-adv-x="708" 
d="M555 0l-56 169h-293l-56 -169h-140l236 694q-35 30 -35 80q0 52 41.5 83.5t101.5 31.5t101.5 -31.5t41.5 -83.5q0 -50 -37 -82l238 -692h-143zM354 821q-26 0 -41.5 -16.5t-15.5 -42.5t15.5 -42.5t41.5 -16.5t41.5 16.5t15.5 42.5t-15.5 42.5t-41.5 16.5zM246 289h213
l-106 322z" />
    <glyph glyph-name="AE" unicode="&#xc6;" horiz-adv-x="1133" 
d="M727 119h366v-119h-498v169h-322l-120 -169h-153l503 700h589v-119h-365v-165h351v-119h-351v-178zM359 289h236v331z" />
    <glyph glyph-name="Ccedilla" unicode="&#xc7;" horiz-adv-x="680" 
d="M650 233q-21 -109 -90.5 -172t-184.5 -70l-19 -34q36 -4 56.5 -22.5t20.5 -44.5q0 -74 -142 -74h-28v50h25q62 0 62 24q0 16 -19.5 24.5t-60.5 15.5l35 62q-134 13 -204.5 107.5t-70.5 250.5q0 172 84 266t234 94q122 0 200 -64.5t98 -178.5h-141q-30 124 -151 124
q-188 0 -188 -241q0 -119 47.5 -180t134.5 -61q131 0 162 124h140z" />
    <glyph glyph-name="Egrave" unicode="&#xc8;" horiz-adv-x="588" 
d="M377 748h-114l-114 132h152zM182 119h366v-119h-498v700h497v-119h-365v-165h351v-119h-351v-178z" />
    <glyph glyph-name="Eacute" unicode="&#xc9;" horiz-adv-x="588" 
d="M482 880l-114 -132h-114l76 132h152zM182 119h366v-119h-498v700h497v-119h-365v-165h351v-119h-351v-178z" />
    <glyph glyph-name="Ecircumflex" unicode="&#xca;" horiz-adv-x="588" 
d="M314 804l-44 -59h-122l104 125h123l104 -125h-122zM182 119h366v-119h-498v700h497v-119h-365v-165h351v-119h-351v-178z" />
    <glyph glyph-name="Edieresis" unicode="&#xcb;" horiz-adv-x="588" 
d="M295 880v-120h-120v120h120zM453 880v-120h-120v120h120zM182 119h366v-119h-498v700h497v-119h-365v-165h351v-119h-351v-178z" />
    <glyph glyph-name="Igrave" unicode="&#xcc;" 
d="M179 758h-114l-114 132h152zM50 700h132v-700h-132v700z" />
    <glyph glyph-name="Iacute" unicode="&#xcd;" 
d="M56 758l76 132h152l-114 -132h-114zM50 0v700h132v-700h-132z" />
    <glyph glyph-name="Icircumflex" unicode="&#xce;" horiz-adv-x="91" 
d="M46 814l-44 -59h-122l104 125h123l104 -125h-122zM-20 0v700h132v-700h-132z" />
    <glyph glyph-name="Idieresis" unicode="&#xcf;" 
d="M-23 770v120h120v-120h-120zM135 770v120h120v-120h-120zM50 700h132v-700h-132v700z" />
    <glyph glyph-name="Eth" unicode="&#xd0;" horiz-adv-x="669" 
d="M301 700q156 0 247 -95.5t91 -254.5t-91 -254.5t-247 -95.5h-251v300h-51v114h51v286h251zM301 119q90 0 146 60.5t56 170.5t-56 170.5t-146 60.5h-119v-167h154v-114h-154v-181h119z" />
    <glyph glyph-name="Ntilde" unicode="&#xd1;" horiz-adv-x="675" 
d="M291 789q-24 0 -24 -36h-89q0 59 24.5 94t70.5 35q35 0 71 -25l13.5 -10l13 -9.5t10 -5t12.5 -2.5q24 0 24 36h89q0 -60 -24 -94.5t-71 -34.5q-39 0 -72 25q-35 27 -48 27zM503 700h122v-700h-211l-242 596v-596h-122v700h216l237 -584v584z" />
    <glyph glyph-name="Ograve" unicode="&#xd2;" horiz-adv-x="706" 
d="M416 758h-114l-114 132h152zM353 -10q-151 0 -237 100.5t-86 259.5q0 164 88.5 262t234.5 98q151 0 237 -100.5t86 -259.5q0 -164 -88.5 -262t-234.5 -98zM353 109q87 0 137 68t50 173q0 108 -51.5 174.5t-135.5 66.5q-87 0 -137 -68t-50 -173q0 -108 51.5 -174.5
t135.5 -66.5z" />
    <glyph glyph-name="Oacute" unicode="&#xd3;" horiz-adv-x="706" 
d="M293 758l76 132h152l-114 -132h-114zM353 -10q-151 0 -237 100.5t-86 259.5q0 164 88.5 262t234.5 98q151 0 237 -100.5t86 -259.5q0 -164 -88.5 -262t-234.5 -98zM353 109q87 0 137 68t50 173q0 108 -51.5 174.5t-135.5 66.5q-87 0 -137 -68t-50 -173
q0 -108 51.5 -174.5t135.5 -66.5z" />
    <glyph glyph-name="Ocircumflex" unicode="&#xd4;" horiz-adv-x="706" 
d="M353 814l-44 -59h-122l104 125h123l104 -125h-122zM353 710q151 0 237 -100.5t86 -259.5q0 -164 -88.5 -262t-234.5 -98q-151 0 -237 100.5t-86 259.5q0 164 88.5 262t234.5 98zM353 109q87 0 137 68t50 173q0 108 -51.5 174.5t-135.5 66.5q-87 0 -137 -68t-50 -173
q0 -108 51.5 -174.5t135.5 -66.5z" />
    <glyph glyph-name="Otilde" unicode="&#xd5;" horiz-adv-x="706" 
d="M426 747q-39 0 -72 25q-35 27 -48 27q-24 0 -24 -36h-89q0 59 24.5 94t70.5 35q35 0 71 -25l13.5 -10l13 -9.5t10 -5t12.5 -2.5q24 0 24 36h89q0 -60 -24 -94.5t-71 -34.5zM353 -10q-151 0 -237 100.5t-86 259.5q0 164 88.5 262t234.5 98q151 0 237 -100.5t86 -259.5
q0 -164 -88.5 -262t-234.5 -98zM353 109q87 0 137 68t50 173q0 108 -51.5 174.5t-135.5 66.5q-87 0 -137 -68t-50 -173q0 -108 51.5 -174.5t135.5 -66.5z" />
    <glyph glyph-name="Odieresis" unicode="&#xd6;" horiz-adv-x="706" 
d="M214 770v120h120v-120h-120zM372 770v120h120v-120h-120zM353 -10q-151 0 -237 100.5t-86 259.5q0 164 88.5 262t234.5 98q151 0 237 -100.5t86 -259.5q0 -164 -88.5 -262t-234.5 -98zM353 109q87 0 137 68t50 173q0 108 -51.5 174.5t-135.5 66.5q-87 0 -137 -68
t-50 -173q0 -108 51.5 -174.5t135.5 -66.5z" />
    <glyph glyph-name="multiply" unicode="&#xd7;" horiz-adv-x="571" 
d="M521 489l-157 -157l157 -157l-79 -79l-156 157l-157 -157l-79 79l157 157l-157 157l79 79l157 -157l156 157z" />
    <glyph glyph-name="Oslash" unicode="&#xd8;" horiz-adv-x="706" 
d="M676 700l-77 -101q77 -99 77 -249q0 -164 -88.5 -262t-234.5 -98q-102 0 -179 50l-30 -40h-113l76 101q-77 97 -77 249q0 164 88.5 262t234.5 98q103 0 180 -50l30 40h113zM166 350q0 -77 28 -136l261 344q-44 33 -102 33q-87 0 -137 -68t-50 -173zM540 350q0 76 -27 135
l-261 -343q44 -33 101 -33q87 0 137 68t50 173z" />
    <glyph glyph-name="Ugrave" unicode="&#xd9;" horiz-adv-x="662" 
d="M394 748h-114l-114 132h152zM480 700h132v-432q0 -143 -75.5 -210.5t-204.5 -67.5q-130 0 -206 67.5t-76 210.5v432h132v-426q0 -165 150 -165q148 0 148 165v426z" />
    <glyph glyph-name="Uacute" unicode="&#xda;" horiz-adv-x="662" 
d="M499 880l-114 -132h-114l76 132h152zM480 700h132v-432q0 -143 -75.5 -210.5t-204.5 -67.5q-130 0 -206 67.5t-76 210.5v432h132v-426q0 -165 150 -165q148 0 148 165v426z" />
    <glyph glyph-name="Ucircumflex" unicode="&#xdb;" horiz-adv-x="662" 
d="M331 804l-44 -59h-122l104 125h123l104 -125h-122zM480 700h132v-432q0 -143 -75.5 -210.5t-204.5 -67.5q-130 0 -206 67.5t-76 210.5v432h132v-426q0 -165 150 -165q148 0 148 165v426z" />
    <glyph glyph-name="Udieresis" unicode="&#xdc;" horiz-adv-x="662" 
d="M312 880v-120h-120v120h120zM470 880v-120h-120v120h120zM480 700h132v-432q0 -143 -75.5 -210.5t-204.5 -67.5q-130 0 -206 67.5t-76 210.5v432h132v-426q0 -165 150 -165q148 0 148 165v426z" />
    <glyph glyph-name="Yacute" unicode="&#xdd;" horiz-adv-x="682" 
d="M509 880l-114 -132h-114l76 132h152zM672 700l-260 -433v-267h-142v267l-260 433h157l178 -310l170 310h157z" />
    <glyph glyph-name="Thorn" unicode="&#xde;" horiz-adv-x="621" 
d="M352 573q109 0 174 -57t65 -166q0 -108 -68.5 -165.5t-178.5 -57.5h-162v-127h-132v700h132v-127h170zM314 246q76 0 109 22.5t33 81.5t-33 81.5t-109 22.5h-132v-208h132z" />
    <glyph glyph-name="germandbls" unicode="&#xdf;" horiz-adv-x="572" 
d="M419 364q68 -18 98 -60.5t30 -109.5q0 -98 -66 -146t-175 -48h-69v112h75q103 0 103 93q0 92 -114 92h-53v112h53q105 0 105 100q0 32 -12 54t-31.5 31.5t-35.5 12.5t-33 3q-112 0 -112 -106v-504h-132v493q0 101 60 164t181 63q109 0 175 -47.5t66 -143.5
q0 -128 -113 -165z" />
    <glyph glyph-name="agrave" unicode="&#xe0;" horiz-adv-x="543" 
d="M333 568h-114l-114 132h152zM264 520q107 0 168 -46t61 -139v-335h-102l-30 128q-14 -66 -55.5 -99.5t-103.5 -33.5q-74 0 -123 40t-49 114q0 69 53 111t139 42h139v15q0 93 -97 93q-49 0 -74.5 -21t-25.5 -52h-132q0 84 61 133.5t171 49.5zM243 95q50 0 84 34.5t34 86.5
h-113q-43 0 -64.5 -16t-21.5 -41q0 -64 81 -64z" />
    <glyph glyph-name="aacute" unicode="&#xe1;" horiz-adv-x="543" 
d="M438 700l-114 -132h-114l76 132h152zM264 520q107 0 168 -46t61 -139v-335h-102l-30 128q-14 -66 -55.5 -99.5t-103.5 -33.5q-74 0 -123 40t-49 114q0 69 53 111t139 42h139v15q0 93 -97 93q-49 0 -74.5 -21t-25.5 -52h-132q0 84 61 133.5t171 49.5zM243 95q50 0 84 34.5
t34 86.5h-113q-43 0 -64.5 -16t-21.5 -41q0 -64 81 -64z" />
    <glyph glyph-name="acircumflex" unicode="&#xe2;" horiz-adv-x="543" 
d="M270 624l-44 -59h-122l104 125h123l104 -125h-122zM264 520q107 0 168 -46t61 -139v-335h-102l-30 128q-14 -66 -55.5 -99.5t-103.5 -33.5q-74 0 -123 40t-49 114q0 69 53 111t139 42h139v15q0 93 -97 93q-49 0 -74.5 -21t-25.5 -52h-132q0 84 61 133.5t171 49.5zM243 95
q50 0 84 34.5t34 86.5h-113q-43 0 -64.5 -16t-21.5 -41q0 -64 81 -64z" />
    <glyph glyph-name="atilde" unicode="&#xe3;" horiz-adv-x="543" 
d="M223 609q-24 0 -24 -36h-89q0 59 24.5 94t70.5 35q35 0 71 -25l13.5 -10l13 -9.5t10 -5t12.5 -2.5q24 0 24 36h89q0 -60 -24 -94.5t-71 -34.5q-39 0 -72 25q-35 27 -48 27zM264 520q107 0 168 -46t61 -139v-335h-102l-30 128q-14 -66 -55.5 -99.5t-103.5 -33.5
q-74 0 -123 40t-49 114q0 69 53 111t139 42h139v15q0 93 -97 93q-49 0 -74.5 -21t-25.5 -52h-132q0 84 61 133.5t171 49.5zM243 95q50 0 84 34.5t34 86.5h-113q-43 0 -64.5 -16t-21.5 -41q0 -64 81 -64z" />
    <glyph glyph-name="adieresis" unicode="&#xe4;" horiz-adv-x="543" 
d="M251 700v-120h-120v120h120zM409 700v-120h-120v120h120zM264 520q107 0 168 -46t61 -139v-335h-102l-30 128q-14 -66 -55.5 -99.5t-103.5 -33.5q-74 0 -123 40t-49 114q0 69 53 111t139 42h139v15q0 93 -97 93q-49 0 -74.5 -21t-25.5 -52h-132q0 84 61 133.5t171 49.5z
M243 95q50 0 84 34.5t34 86.5h-113q-43 0 -64.5 -16t-21.5 -41q0 -64 81 -64z" />
    <glyph glyph-name="aring" unicode="&#xe5;" horiz-adv-x="543" 
d="M369 506q124 -39 124 -171v-335h-102l-30 128q-14 -66 -55.5 -99.5t-103.5 -33.5q-74 0 -123 40t-49 114q0 69 53 111t139 42h139v15q0 93 -97 93q-49 0 -74.5 -21t-25.5 -52h-132q0 63 35.5 107.5t101.5 63.5q-42 32 -42 86q0 52 41.5 83.5t101.5 31.5t101.5 -31.5
t41.5 -83.5q0 -56 -44 -88zM270 641q-26 0 -41.5 -16.5t-15.5 -42.5t15.5 -42.5t41.5 -16.5t41.5 16.5t15.5 42.5t-15.5 42.5t-41.5 16.5zM243 95q50 0 84 34.5t34 86.5h-113q-43 0 -64.5 -16t-21.5 -41q0 -64 81 -64z" />
    <glyph glyph-name="ae" unicode="&#xe6;" horiz-adv-x="887" 
d="M857 255v-29h-360q6 -58 37 -92.5t77 -34.5t65 17t28 48h145q-36 -175 -236 -175q-80 0 -140 40t-88 111q-15 -71 -65 -108t-116 -37q-75 0 -123.5 40.5t-48.5 117.5q0 71 53 113.5t139 42.5h139v8q0 93 -97 93q-49 0 -74.5 -21t-25.5 -52h-132q0 84 61 133.5t171 49.5
q125 0 184 -60q69 61 166 61q106 0 173.5 -73.5t67.5 -192.5zM614 411q-42 0 -72 -25.5t-41 -73.5h221q-18 99 -108 99zM245 95q50 0 84 34.5t34 86.5v7h-113q-86 0 -86 -60q0 -68 81 -68z" />
    <glyph glyph-name="ccedilla" unicode="&#xe7;" horiz-adv-x="560" 
d="M530 204q-9 -95 -63.5 -149.5t-142.5 -63.5l-20 -35q36 -4 56.5 -22.5t20.5 -44.5q0 -74 -142 -74h-28v50h25q62 0 62 24q0 16 -19.5 24.5t-60.5 15.5l35 62q-105 10 -164 81t-59 183q0 121 67.5 193.5t183.5 72.5q101 0 167 -59.5t78 -160.5h-134q-15 110 -106 110
q-59 0 -92.5 -40t-33.5 -116q0 -71 34 -113.5t92 -42.5q55 0 79 26.5t31 78.5h134z" />
    <glyph glyph-name="egrave" unicode="&#xe8;" horiz-adv-x="572" 
d="M354 568h-114l-114 132h152zM542 255v-29h-380q7 -59 39.5 -93t84.5 -34q53 0 73.5 17t29.5 48h145q-36 -175 -246 -175q-117 0 -187.5 73t-70.5 193q0 119 73.5 192.5t187.5 73.5q113 0 182 -73t69 -193zM289 411q-99 0 -123 -99h241q-18 99 -118 99z" />
    <glyph glyph-name="eacute" unicode="&#xe9;" horiz-adv-x="572" 
d="M459 700l-114 -132h-114l76 132h152zM542 255v-29h-380q7 -59 39.5 -93t84.5 -34q53 0 73.5 17t29.5 48h145q-36 -175 -246 -175q-117 0 -187.5 73t-70.5 193q0 119 73.5 192.5t187.5 73.5q113 0 182 -73t69 -193zM289 411q-99 0 -123 -99h241q-18 99 -118 99z" />
    <glyph glyph-name="ecircumflex" unicode="&#xea;" horiz-adv-x="572" 
d="M291 624l-44 -59h-122l104 125h123l104 -125h-122zM542 255v-29h-380q7 -59 39.5 -93t84.5 -34q53 0 73.5 17t29.5 48h145q-36 -175 -246 -175q-117 0 -187.5 73t-70.5 193q0 119 73.5 192.5t187.5 73.5q113 0 182 -73t69 -193zM289 411q-99 0 -123 -99h241
q-18 99 -118 99z" />
    <glyph glyph-name="edieresis" unicode="&#xeb;" horiz-adv-x="572" 
d="M272 700v-120h-120v120h120zM430 700v-120h-120v120h120zM542 255v-29h-380q7 -59 39.5 -93t84.5 -34q53 0 73.5 17t29.5 48h145q-36 -175 -246 -175q-117 0 -187.5 73t-70.5 193q0 119 73.5 192.5t187.5 73.5q113 0 182 -73t69 -193zM289 411q-99 0 -123 -99h241
q-18 99 -118 99z" />
    <glyph glyph-name="igrave" unicode="&#xec;" 
d="M179 568h-114l-114 132h152zM50 0v500h132v-500h-132z" />
    <glyph glyph-name="iacute" unicode="&#xed;" 
d="M56 568l76 132h152l-114 -132h-114zM50 0v500h132v-500h-132z" />
    <glyph glyph-name="icircumflex" unicode="&#xee;" 
d="M116 624l-44 -59h-122l104 125h123l104 -125h-122zM50 0v500h132v-500h-132z" />
    <glyph glyph-name="idieresis" unicode="&#xef;" 
d="M-23 580v120h120v-120h-120zM135 580v120h120v-120h-120zM50 0v500h132v-500h-132z" />
    <glyph glyph-name="eth" unicode="&#xf0;" horiz-adv-x="560" 
d="M400 608q130 -115 130 -313q0 -146 -69 -226t-195 -80q-102 0 -169 61t-67 170q0 107 64 169t151 62q129 0 175 -102q-13 119 -92 185l-66 -67l-80 74l48 48q-36 12 -69 17v104q81 -10 147 -42l44 45l79 -74zM281 99q55 0 86 32.5t31 88.5q0 57 -32 89t-85 32
q-55 0 -86 -32.5t-31 -88.5q0 -57 32 -89t85 -32z" />
    <glyph glyph-name="ntilde" unicode="&#xf1;" horiz-adv-x="576" 
d="M241 609q-24 0 -24 -36h-89q0 59 24.5 94t70.5 35q35 0 71 -25l13.5 -10l13 -9.5t10 -5t12.5 -2.5q24 0 24 36h89q0 -60 -24 -94.5t-71 -34.5q-39 0 -72 25q-35 27 -48 27zM351 520q177 0 177 -185v-335h-132v317q0 93 -102 93q-57 -1 -84.5 -28t-27.5 -65v-317h-132v500
h112l16 -121q3 52 48 96.5t125 44.5z" />
    <glyph glyph-name="ograve" unicode="&#xf2;" horiz-adv-x="572" 
d="M349 568h-114l-114 132h152zM286 521q113 0 184.5 -73.5t71.5 -192.5t-71.5 -192.5t-184.5 -73.5t-184.5 73.5t-71.5 192.5t71.5 192.5t184.5 73.5zM286 99q58 0 90 42t32 114t-32 114t-90 42t-90 -42t-32 -114t32 -114t90 -42z" />
    <glyph glyph-name="oacute" unicode="&#xf3;" horiz-adv-x="572" 
d="M226 568l76 132h152l-114 -132h-114zM286 521q113 0 184.5 -73.5t71.5 -192.5t-71.5 -192.5t-184.5 -73.5t-184.5 73.5t-71.5 192.5t71.5 192.5t184.5 73.5zM286 99q58 0 90 42t32 114t-32 114t-90 42t-90 -42t-32 -114t32 -114t90 -42z" />
    <glyph glyph-name="ocircumflex" unicode="&#xf4;" horiz-adv-x="572" 
d="M286 624l-44 -59h-122l104 125h123l104 -125h-122zM286 521q113 0 184.5 -73.5t71.5 -192.5t-71.5 -192.5t-184.5 -73.5t-184.5 73.5t-71.5 192.5t71.5 192.5t184.5 73.5zM286 99q58 0 90 42t32 114t-32 114t-90 42t-90 -42t-32 -114t32 -114t90 -42z" />
    <glyph glyph-name="otilde" unicode="&#xf5;" horiz-adv-x="572" 
d="M359 557q-39 0 -72 25q-35 27 -48 27q-24 0 -24 -36h-89q0 59 24.5 94t70.5 35q35 0 71 -25l13.5 -10l13 -9.5t10 -5t12.5 -2.5q24 0 24 36h89q0 -60 -24 -94.5t-71 -34.5zM286 521q113 0 184.5 -73.5t71.5 -192.5t-71.5 -192.5t-184.5 -73.5t-184.5 73.5t-71.5 192.5
t71.5 192.5t184.5 73.5zM286 99q58 0 90 42t32 114t-32 114t-90 42t-90 -42t-32 -114t32 -114t90 -42z" />
    <glyph glyph-name="odieresis" unicode="&#xf6;" horiz-adv-x="572" 
d="M147 580v120h120v-120h-120zM305 580v120h120v-120h-120zM286 521q113 0 184.5 -73.5t71.5 -192.5t-71.5 -192.5t-184.5 -73.5t-184.5 73.5t-71.5 192.5t71.5 192.5t184.5 73.5zM286 99q58 0 90 42t32 114t-32 114t-90 42t-90 -42t-32 -114t32 -114t90 -42z" />
    <glyph glyph-name="divide" unicode="&#xf7;" horiz-adv-x="535" 
d="M205 397v118h126v-118h-126zM485 233h-435v115h435v-115zM205 65v118h125v-118h-125z" />
    <glyph glyph-name="oslash" unicode="&#xf8;" horiz-adv-x="572" 
d="M542 511l-60 -77q60 -71 60 -179q0 -119 -71.5 -192.5t-184.5 -73.5q-71 0 -127 30l-15 -20h-113l59 76q-60 73 -60 180q0 119 71.5 192.5t184.5 73.5q70 0 127 -30l16 20h113zM164 255q0 -37 10 -72l167 215q-23 13 -55 13q-58 0 -90 -42t-32 -114zM408 255q0 41 -10 71
l-167 -215q24 -12 55 -12q58 0 90 42t32 114z" />
    <glyph glyph-name="ugrave" unicode="&#xf9;" horiz-adv-x="578" 
d="M352 568h-114l-114 132h152zM396 500h132v-500h-102l-27 133l1 -8q0 -52 -45.5 -98.5t-127.5 -46.5q-177 0 -177 185v335h132v-317q0 -40 24.5 -66.5t80.5 -26.5q56 1 82.5 27.5t26.5 65.5v317z" />
    <glyph glyph-name="uacute" unicode="&#xfa;" horiz-adv-x="578" 
d="M457 700l-114 -132h-114l76 132h152zM396 500h132v-500h-102l-27 133l1 -8q0 -52 -45.5 -98.5t-127.5 -46.5q-177 0 -177 185v335h132v-317q0 -40 24.5 -66.5t80.5 -26.5q56 1 82.5 27.5t26.5 65.5v317z" />
    <glyph glyph-name="ucircumflex" unicode="&#xfb;" horiz-adv-x="578" 
d="M289 624l-44 -59h-122l104 125h123l104 -125h-122zM396 500h132v-500h-102l-27 133l1 -8q0 -52 -45.5 -98.5t-127.5 -46.5q-177 0 -177 185v335h132v-317q0 -40 24.5 -66.5t80.5 -26.5q56 1 82.5 27.5t26.5 65.5v317z" />
    <glyph glyph-name="udieresis" unicode="&#xfc;" horiz-adv-x="578" 
d="M270 700v-120h-120v120h120zM428 700v-120h-120v120h120zM396 500h132v-500h-102l-27 133l1 -8q0 -52 -45.5 -98.5t-127.5 -46.5q-177 0 -177 185v335h132v-317q0 -40 24.5 -66.5t80.5 -26.5q56 1 82.5 27.5t26.5 65.5v317z" />
    <glyph glyph-name="yacute" unicode="&#xfd;" horiz-adv-x="538" 
d="M437 700l-114 -132h-114l76 132h152zM389 500h139l-217 -522q-23 -55 -37 -82.5t-36.5 -54t-51.5 -36t-72 -9.5h-96v108h82q11 0 20 2t15.5 4t12.5 8.5t9.5 9.5t8 12.5l6 12.5t6 15t5.5 15l10 25l-183 492h137l112 -341z" />
    <glyph glyph-name="thorn" unicode="&#xfe;" horiz-adv-x="573" 
d="M337 521q91 0 148.5 -73.5t57.5 -192.5t-57.5 -192.5t-148.5 -73.5q-116 0 -155 116v-307h-132v912h129v-314q37 125 158 125zM287 99q58 0 90 42t32 114t-32 114t-90 42t-90 -42t-32 -114t32 -114t90 -42z" />
    <glyph glyph-name="ydieresis" unicode="&#xff;" horiz-adv-x="538" 
d="M250 700v-120h-120v120h120zM408 700v-120h-120v120h120zM389 500h139l-217 -522q-23 -55 -37 -82.5t-36.5 -54t-51.5 -36t-72 -9.5h-96v108h82q11 0 20 2t15.5 4t12.5 8.5t9.5 9.5t8 12.5l6 12.5t6 15t5.5 15l10 25l-183 492h137l112 -341z" />
    <glyph glyph-name="Amacron" unicode="&#x100;" horiz-adv-x="708" 
d="M489 825v-80h-270v80h270zM555 0l-56 169h-293l-56 -169h-140l238 700h209l241 -700h-143zM246 289h213l-106 322z" />
    <glyph glyph-name="amacron" unicode="&#x101;" horiz-adv-x="543" 
d="M405 645v-80h-270v80h270zM264 520q107 0 168 -46t61 -139v-335h-102l-30 128q-14 -66 -55.5 -99.5t-103.5 -33.5q-74 0 -123 40t-49 114q0 69 53 111t139 42h139v15q0 93 -97 93q-49 0 -74.5 -21t-25.5 -52h-132q0 84 61 133.5t171 49.5zM243 95q50 0 84 34.5t34 86.5
h-113q-43 0 -64.5 -16t-21.5 -41q0 -64 81 -64z" />
    <glyph glyph-name="Abreve" unicode="&#x102;" horiz-adv-x="708" 
d="M354 727q-79 0 -114 38t-42 105h95q7 -63 61 -63t61 63h95q-7 -67 -42 -105t-114 -38zM555 0l-56 169h-293l-56 -169h-140l238 700h209l241 -700h-143zM246 289h213l-106 322z" />
    <glyph glyph-name="abreve" unicode="&#x103;" horiz-adv-x="543" 
d="M270 547q-79 0 -114 38t-42 105h95q7 -63 61 -63t61 63h95q-7 -67 -42 -105t-114 -38zM264 520q107 0 168 -46t61 -139v-335h-102l-30 128q-14 -66 -55.5 -99.5t-103.5 -33.5q-74 0 -123 40t-49 114q0 69 53 111t139 42h139v15q0 93 -97 93q-49 0 -74.5 -21t-25.5 -52
h-132q0 84 61 133.5t171 49.5zM243 95q50 0 84 34.5t34 86.5h-113q-43 0 -64.5 -16t-21.5 -41q0 -64 81 -64z" />
    <glyph glyph-name="Aogonek" unicode="&#x104;" horiz-adv-x="708" 
d="M625 -62q0 -16 19 -22t62 -6v-73q-84 0 -124 19.5t-40 62.5q0 20 11.5 36.5t22 23.5t34.5 21h-55l-56 169h-293l-56 -169h-140l238 700h209l241 -700q-24 -12 -36.5 -19t-24.5 -19t-12 -24zM246 289h213l-106 322z" />
    <glyph glyph-name="aogonek" unicode="&#x105;" horiz-adv-x="543" 
d="M413 -59q0 -31 88 -31v-73q-89 0 -130 19t-41 63q0 42 60 84l-29 125q-14 -66 -55.5 -99.5t-103.5 -33.5q-74 0 -123 40t-49 114q0 69 53 111t139 42h139v15q0 93 -97 93q-49 0 -74.5 -21t-25.5 -52h-132q0 84 61 133.5t171 49.5q107 0 168 -46t61 -139v-317h10l-10 -6
v-12h-21q-59 -37 -59 -59zM243 95q50 0 84 34.5t34 86.5h-113q-43 0 -64.5 -16t-21.5 -41q0 -64 81 -64z" />
    <glyph glyph-name="Cacute" unicode="&#x106;" horiz-adv-x="680" 
d="M518 890l-114 -132h-114l76 132h152zM510 233h140q-22 -115 -98.5 -179t-203.5 -64q-154 0 -236 96t-82 264q0 172 84 266t234 94q122 0 200 -64.5t98 -178.5h-141q-30 124 -151 124q-188 0 -188 -241q0 -119 47.5 -180t134.5 -61q131 0 162 124z" />
    <glyph glyph-name="cacute" unicode="&#x107;" horiz-adv-x="560" 
d="M220 568l76 132h152l-114 -132h-114zM288 -11q-121 0 -189.5 72t-68.5 194q0 121 67.5 193.5t183.5 72.5q101 0 167 -59.5t78 -160.5h-134q-15 110 -106 110q-59 0 -92.5 -40t-33.5 -116q0 -71 34 -113.5t92 -42.5q55 0 79 26.5t31 78.5h134q-10 -105 -74.5 -160
t-167.5 -55z" />
    <glyph glyph-name="Cdotaccent" unicode="&#x10a;" horiz-adv-x="680" 
d="M410 885v-120h-120v120h120zM510 233h140q-22 -115 -98.5 -179t-203.5 -64q-154 0 -236 96t-82 264q0 172 84 266t234 94q122 0 200 -64.5t98 -178.5h-141q-30 124 -151 124q-188 0 -188 -241q0 -119 47.5 -180t134.5 -61q131 0 162 124z" />
    <glyph glyph-name="cdotaccent" unicode="&#x10b;" horiz-adv-x="560" 
d="M220 575v120h120v-120h-120zM288 -11q-121 0 -189.5 72t-68.5 194q0 121 67.5 193.5t183.5 72.5q101 0 167 -59.5t78 -160.5h-134q-15 110 -106 110q-59 0 -92.5 -40t-33.5 -116q0 -71 34 -113.5t92 -42.5q55 0 79 26.5t31 78.5h134q-10 -105 -74.5 -160t-167.5 -55z" />
    <glyph glyph-name="Ccaron" unicode="&#x10c;" horiz-adv-x="680" 
d="M411 755h-123l-104 125h122l44 -59l43 59h122zM510 233h140q-22 -115 -98.5 -179t-203.5 -64q-154 0 -236 96t-82 264q0 172 84 266t234 94q122 0 200 -64.5t98 -178.5h-141q-30 124 -151 124q-188 0 -188 -241q0 -119 47.5 -180t134.5 -61q131 0 162 124z" />
    <glyph glyph-name="ccaron" unicode="&#x10d;" horiz-adv-x="560" 
d="M341 565h-123l-104 125h122l44 -59l43 59h122zM396 204h134q-10 -105 -74.5 -160t-167.5 -55q-121 0 -189.5 72t-68.5 194q0 121 67.5 193.5t183.5 72.5q101 0 167 -59.5t78 -160.5h-134q-15 110 -106 110q-59 0 -92.5 -40t-33.5 -116q0 -71 34 -113.5t92 -42.5
q55 0 79 26.5t31 78.5z" />
    <glyph glyph-name="Dcaron" unicode="&#x10e;" horiz-adv-x="669" 
d="M365 745h-123l-104 125h122l44 -59l43 59h122zM301 700q156 0 247 -95.5t91 -254.5t-91 -254.5t-247 -95.5h-251v700h251zM301 119q90 0 146 60.5t56 170.5t-56 170.5t-146 60.5h-119v-462h119z" />
    <glyph glyph-name="dcaron" unicode="&#x10f;" horiz-adv-x="573" 
d="M391 405v305h132v-710h-112l-16 118q-38 -129 -159 -129q-91 0 -148.5 73.5t-57.5 192.5t57.5 192.5t148.5 73.5q116 0 155 -116zM584 710h122l-60 -168h-92zM286 99q58 0 90 42t32 114v14l-6 43q-11 47 -41 73t-75 26q-58 0 -90 -42t-32 -114t32 -114t90 -42z" />
    <glyph glyph-name="Dcroat" unicode="&#x110;" horiz-adv-x="707" 
d="M339 700q156 0 247 -95.5t91 -254.5t-91 -254.5t-247 -95.5h-251v300h-51v114h51v286h251zM339 119q90 0 146 60.5t56 170.5t-56 170.5t-146 60.5h-119v-167h154v-114h-154v-181h119z" />
    <glyph glyph-name="dcroat" unicode="&#x111;" horiz-adv-x="573" 
d="M574 668v-104h-51v-564h-112l-16 118q-38 -129 -159 -129q-91 0 -148.5 73.5t-57.5 192.5t57.5 192.5t148.5 73.5q116 0 155 -116v159h-77v104h77v42h132v-42h51zM286 99q58 0 90 42t32 114v14l-6 43q-11 47 -41 73t-75 26q-58 0 -90 -42t-32 -114t32 -114t90 -42z" />
    <glyph glyph-name="Emacron" unicode="&#x112;" horiz-adv-x="588" 
d="M449 825v-80h-270v80h270zM182 119h366v-119h-498v700h497v-119h-365v-165h351v-119h-351v-178z" />
    <glyph glyph-name="emacron" unicode="&#x113;" horiz-adv-x="572" 
d="M426 645v-80h-270v80h270zM542 255v-29h-380q7 -59 39.5 -93t84.5 -34q53 0 73.5 17t29.5 48h145q-36 -175 -246 -175q-117 0 -187.5 73t-70.5 193q0 119 73.5 192.5t187.5 73.5q113 0 182 -73t69 -193zM289 411q-99 0 -123 -99h241q-18 99 -118 99z" />
    <glyph glyph-name="ebreve" unicode="&#x115;" horiz-adv-x="572" 
d="M291 547q-79 0 -114 38t-42 105h95q7 -63 61 -63t61 63h95q-7 -67 -42 -105t-114 -38zM542 255v-29h-380q7 -59 39.5 -93t84.5 -34q53 0 73.5 17t29.5 48h145q-36 -175 -246 -175q-117 0 -187.5 73t-70.5 193q0 119 73.5 192.5t187.5 73.5q113 0 182 -73t69 -193z
M289 411q-99 0 -123 -99h241q-18 99 -118 99z" />
    <glyph glyph-name="Edotaccent" unicode="&#x116;" horiz-adv-x="588" 
d="M374 875v-120h-120v120h120zM182 119h366v-119h-498v700h497v-119h-365v-165h351v-119h-351v-178z" />
    <glyph glyph-name="edotaccent" unicode="&#x117;" horiz-adv-x="572" 
d="M351 700v-120h-120v120h120zM542 255v-29h-380q7 -59 39.5 -93t84.5 -34q53 0 73.5 17t29.5 48h145q-36 -175 -246 -175q-117 0 -187.5 73t-70.5 193q0 119 73.5 192.5t187.5 73.5q113 0 182 -73t69 -193zM289 411q-99 0 -123 -99h241q-18 99 -118 99z" />
    <glyph glyph-name="Eogonek" unicode="&#x118;" horiz-adv-x="588" 
d="M475 -62q0 -16 19 -22t62 -6v-73q-84 0 -124 19.5t-40 62.5q0 20 11.5 36.5t22 23.5t34.5 21h-410v700h497v-119h-365v-165h351v-119h-351v-178h366v-119q-24 -12 -36.5 -19t-24.5 -19t-12 -24z" />
    <glyph glyph-name="eogonek" unicode="&#x119;" horiz-adv-x="572" 
d="M542 255v-29h-380q7 -59 39.5 -93t84.5 -34q53 0 73.5 17t29.5 48h145q-20 -100 -99 -143q-67 -40 -67 -77q0 -16 20 -23t67 -7v-73q-89 0 -130 19t-41 63q0 38 23 66h-19q-117 0 -187.5 73t-70.5 193q0 119 73.5 192.5t187.5 73.5q113 0 182 -73t69 -193zM289 411
q-99 0 -123 -99h241q-18 99 -118 99z" />
    <glyph glyph-name="Ecaron" unicode="&#x11a;" horiz-adv-x="588" 
d="M375 745h-123l-104 125h122l44 -59l43 59h122zM182 119h366v-119h-498v700h497v-119h-365v-165h351v-119h-351v-178z" />
    <glyph glyph-name="ecaron" unicode="&#x11b;" horiz-adv-x="572" 
d="M352 565h-123l-104 125h122l44 -59l43 59h122zM542 255v-29h-380q7 -59 39.5 -93t84.5 -34q53 0 73.5 17t29.5 48h145q-36 -175 -246 -175q-117 0 -187.5 73t-70.5 193q0 119 73.5 192.5t187.5 73.5q113 0 182 -73t69 -193zM289 411q-99 0 -123 -99h241q-18 99 -118 99z
" />
    <glyph glyph-name="Gbreve" unicode="&#x11e;" horiz-adv-x="711" 
d="M365 737q-79 0 -114 38t-42 105h95q7 -63 61 -63t61 63h95q-7 -67 -42 -105t-114 -38zM666 367v-367h-132v157q-25 -167 -207 -167q-129 0 -213 99t-84 261q0 170 90.5 265t244.5 95q121 0 195 -63.5t95 -177.5h-141q-23 122 -148 122q-91 0 -145.5 -59.5t-54.5 -181.5
q0 -117 51.5 -179t140.5 -62q78 0 124 35t52 104h-193v119h325z" />
    <glyph glyph-name="gbreve" unicode="&#x11f;" horiz-adv-x="593" 
d="M302 547q-79 0 -114 38t-42 105h95q7 -63 61 -63t61 63h95q-7 -67 -42 -105t-114 -38zM431 500h112v-471q-1 -123 -57 -178t-184 -55h-204v112h187q65 0 95.5 31t30.5 125v41q-39 -116 -155 -116q-99 0 -162.5 73.5t-63.5 192.5t63.5 192.5t162.5 73.5q124 0 160 -132z
M306 99q58 0 90 42t32 114t-32 114t-90 42q-66 0 -104 -42.5t-38 -113.5t38 -113.5t104 -42.5z" />
    <glyph glyph-name="Gdotaccent" unicode="&#x120;" horiz-adv-x="711" 
d="M425 885v-120h-120v120h120zM666 367v-367h-132v157q-25 -167 -207 -167q-129 0 -213 99t-84 261q0 170 90.5 265t244.5 95q121 0 195 -63.5t95 -177.5h-141q-23 122 -148 122q-91 0 -145.5 -59.5t-54.5 -181.5q0 -117 51.5 -179t140.5 -62q78 0 124 35t52 104h-193v119
h325z" />
    <glyph glyph-name="gdotaccent" unicode="&#x121;" horiz-adv-x="593" 
d="M362 695v-120h-120v120h120zM431 500h112v-471q-1 -123 -57 -178t-184 -55h-204v112h187q65 0 95.5 31t30.5 125v41q-39 -116 -155 -116q-99 0 -162.5 73.5t-63.5 192.5t63.5 192.5t162.5 73.5q124 0 160 -132zM306 99q58 0 90 42t32 114t-32 114t-90 42
q-66 0 -104 -42.5t-38 -113.5t38 -113.5t104 -42.5z" />
    <glyph glyph-name="uni0122" unicode="&#x122;" horiz-adv-x="711" 
d="M666 367v-367h-132v157q-25 -167 -207 -167q-129 0 -213 99t-84 261q0 170 90.5 265t244.5 95q121 0 195 -63.5t95 -177.5h-141q-23 122 -148 122q-91 0 -145.5 -59.5t-54.5 -181.5q0 -117 51.5 -179t140.5 -62q78 0 124 35t52 104h-193v119h325zM295 -146v88h108v-88
q0 -44 -24 -77.5t-84 -35.5v65q21 1 31 11.5t10 36.5h-41z" />
    <glyph glyph-name="uni0123" unicode="&#x123;" horiz-adv-x="593" 
d="M345 656v-88h-108v88q0 44 24 77.5t84 35.5v-65q-41 -6 -41 -48h41zM431 500h112v-471q-1 -123 -57 -178t-184 -55h-204v112h187q65 0 95.5 31t30.5 125v41q-39 -116 -155 -116q-99 0 -162.5 73.5t-63.5 192.5t63.5 192.5t162.5 73.5q124 0 160 -132zM306 99q58 0 90 42
t32 114t-32 114t-90 42q-66 0 -104 -42.5t-38 -113.5t38 -113.5t104 -42.5z" />
    <glyph glyph-name="hcircumflex" unicode="&#x125;" horiz-adv-x="576" 
d="M118 814l-44 -59h-122l104 125h123l104 -125h-122zM351 520q177 0 177 -185v-335h-132v317q0 93 -102 93q-57 -1 -84.5 -28t-27.5 -65v-317h-132v710h132v-315q12 50 55.5 87.5t113.5 37.5z" />
    <glyph glyph-name="Hbar" unicode="&#x126;" horiz-adv-x="683" 
d="M683 623v-119h-50v-504h-132v301h-319v-301h-132v504h-50v119h50v77h132v-77h319v77h132v-77h50zM501 420v84h-319v-84h319z" />
    <glyph glyph-name="hbar" unicode="&#x127;" horiz-adv-x="576" 
d="M351 520q177 0 177 -185v-335h-132v317q0 93 -102 93q-57 -1 -84.5 -28t-27.5 -65v-317h-132v516h-49v104h49v90h132v-90h79v-104h-79v-121q12 50 55.5 87.5t113.5 37.5z" />
    <glyph glyph-name="Imacron" unicode="&#x12a;" 
d="M-19 835h270v-80h-270v80zM50 700h132v-700h-132v700z" />
    <glyph glyph-name="imacron" unicode="&#x12b;" 
d="M-19 645h270v-80h-270v80zM50 0v500h132v-500h-132z" />
    <glyph glyph-name="Iogonek" unicode="&#x12e;" 
d="M109 -62q0 -16 19 -22t62 -6v-73q-84 0 -124 19.5t-40 62.5q0 20 11.5 36.5t22 23.5t34.5 21h-44v700h132v-700q-24 -12 -36.5 -19t-24.5 -19t-12 -24z" />
    <glyph glyph-name="iogonek" unicode="&#x12f;" 
d="M176 700v-120h-120v120h120zM109 -62q0 -16 19 -22t62 -6v-73q-84 0 -124 19.5t-40 62.5q0 20 11.5 36.5t22 23.5t34.5 21h-44v500h132v-500q-24 -12 -36.5 -19t-24.5 -19t-12 -24z" />
    <glyph glyph-name="Idotaccent" unicode="&#x130;" 
d="M56 765v120h120v-120h-120zM50 700h132v-700h-132v700z" />
    <glyph glyph-name="dotlessi" unicode="&#x131;" 
d="M50 0v500h132v-500h-132z" />
    <glyph glyph-name="Jcircumflex" unicode="&#x134;" horiz-adv-x="558" 
d="M442 812l-44 -59h-122l104 125h123l104 -125h-122zM376 271v429h132v-435q0 -140 -69 -207.5t-174 -67.5q-247 0 -255 264h139q3 -85 32.5 -115t82.5 -30q57 0 84.5 45t27.5 117z" />
    <glyph glyph-name="jcircumflex" unicode="&#x135;" horiz-adv-x="240" 
d="M124 624l-44 -59h-122l104 125h123l104 -125h-122zM58 500h132v-547q0 -89 -44.5 -123.5t-137.5 -34.5h-64v112h59q33 0 44 15.5t11 61.5v516z" />
    <glyph glyph-name="uni0136" unicode="&#x136;" horiz-adv-x="627" 
d="M335 353l292 -353h-168l-277 341v-341h-132v700h132v-337l274 337h163zM260 -136v88h108v-88q0 -44 -24 -77.5t-84 -35.5v65q21 1 31 11.5t10 36.5h-41z" />
    <glyph glyph-name="uni0137" unicode="&#x137;" horiz-adv-x="545" 
d="M322 281l223 -281h-157l-153 193l-53 -54v-139h-132v710h132v-419l198 209h158zM238 -136v88h108v-88q0 -44 -24 -77.5t-84 -35.5v65q21 1 31 11.5t10 36.5h-41z" />
    <glyph glyph-name="Lacute" unicode="&#x139;" horiz-adv-x="558" 
d="M284 880l-114 -132h-114l76 132h152zM182 119h356v-119h-488v700h132v-581z" />
    <glyph glyph-name="lacute" unicode="&#x13a;" 
d="M56 758l76 132h152l-114 -132h-114zM50 710h132v-710h-132v710z" />
    <glyph glyph-name="uni013B" unicode="&#x13b;" horiz-adv-x="558" 
d="M182 119h356v-119h-488v700h132v-581zM260 -136v88h108v-88q0 -44 -24 -77.5t-84 -35.5v65q21 1 31 11.5t10 36.5h-41z" />
    <glyph glyph-name="uni013C" unicode="&#x13c;" 
d="M50 710h132v-710h-132v710zM62 -249v65q21 1 31 11.5t10 36.5h-41v88h108v-88q0 -44 -24 -77.5t-84 -35.5z" />
    <glyph glyph-name="Lcaron" unicode="&#x13d;" horiz-adv-x="558" 
d="M177 745h-123l-104 125h122l44 -59l43 59h122zM182 119h356v-119h-488v700h132v-581z" />
    <glyph glyph-name="lcaron" unicode="&#x13e;" 
d="M50 710h132v-710h-132v710zM243 710h122l-60 -168h-92z" />
    <glyph glyph-name="Lslash" unicode="&#x141;" horiz-adv-x="594" 
d="M218 119h356v-119h-488v243l-66 -34v128l66 34v329h132v-261l65 33v-128l-65 -33v-192z" />
    <glyph glyph-name="lslash" unicode="&#x142;" horiz-adv-x="283" 
d="M273 501v-128l-65 -33v-340h-132v272l-66 -34v128l66 34v310h132v-242z" />
    <glyph glyph-name="Nacute" unicode="&#x143;" horiz-adv-x="675" 
d="M506 880l-114 -132h-114l76 132h152zM503 700h122v-700h-211l-242 596v-596h-122v700h216l237 -584v584z" />
    <glyph glyph-name="nacute" unicode="&#x144;" horiz-adv-x="576" 
d="M456 700l-114 -132h-114l76 132h152zM351 520q177 0 177 -185v-335h-132v317q0 93 -102 93q-57 -1 -84.5 -28t-27.5 -65v-317h-132v500h112l16 -121q3 52 48 96.5t125 44.5z" />
    <glyph glyph-name="uni0145" unicode="&#x145;" horiz-adv-x="675" 
d="M503 700h122v-700h-211l-242 596v-596h-122v700h216l237 -584v584zM284 -136v88h108v-88q0 -44 -24 -77.5t-84 -35.5v65q21 1 31 11.5t10 36.5h-41z" />
    <glyph glyph-name="uni0146" unicode="&#x146;" horiz-adv-x="576" 
d="M351 520q177 0 177 -185v-335h-132v317q0 93 -102 93q-57 -1 -84.5 -28t-27.5 -65v-317h-132v500h112l16 -121q3 52 48 96.5t125 44.5zM234 -136v88h108v-88q0 -44 -24 -77.5t-84 -35.5v65q21 1 31 11.5t10 36.5h-41z" />
    <glyph glyph-name="Ncaron" unicode="&#x147;" horiz-adv-x="675" 
d="M399 745h-123l-104 125h122l44 -59l43 59h122zM503 700h122v-700h-211l-242 596v-596h-122v700h216l237 -584v584z" />
    <glyph glyph-name="ncaron" unicode="&#x148;" horiz-adv-x="576" 
d="M349 565h-123l-104 125h122l44 -59l43 59h122zM351 520q177 0 177 -185v-335h-132v317q0 93 -102 93q-57 -1 -84.5 -28t-27.5 -65v-317h-132v500h112l16 -121q3 52 48 96.5t125 44.5z" />
    <glyph glyph-name="Eng" unicode="&#x14a;" horiz-adv-x="695" 
d="M513 700h132v-700q-2 -204 -241 -204h-134v112h117q58 0 91 18t33 66v11l-329 610v-613h-132v700h226l237 -445v445z" />
    <glyph glyph-name="eng" unicode="&#x14b;" horiz-adv-x="576" 
d="M351 520q177 0 177 -185v-304q0 -123 -56 -179t-185 -56h-94v112h77q65 0 95.5 31t30.5 125v253q0 93 -102 93q-57 -1 -84.5 -28t-27.5 -65v-317h-132v500h112l16 -121q3 52 48 96.5t125 44.5z" />
    <glyph glyph-name="Omacron" unicode="&#x14c;" horiz-adv-x="706" 
d="M218 835h270v-80h-270v80zM353 -10q-151 0 -237 100.5t-86 259.5q0 164 88.5 262t234.5 98q151 0 237 -100.5t86 -259.5q0 -164 -88.5 -262t-234.5 -98zM353 109q87 0 137 68t50 173q0 108 -51.5 174.5t-135.5 66.5q-87 0 -137 -68t-50 -173q0 -108 51.5 -174.5
t135.5 -66.5z" />
    <glyph glyph-name="omacron" unicode="&#x14d;" horiz-adv-x="572" 
d="M151 645h270v-80h-270v80zM286 521q113 0 184.5 -73.5t71.5 -192.5t-71.5 -192.5t-184.5 -73.5t-184.5 73.5t-71.5 192.5t71.5 192.5t184.5 73.5zM286 99q58 0 90 42t32 114t-32 114t-90 42t-90 -42t-32 -114t32 -114t90 -42z" />
    <glyph glyph-name="Ohungarumlaut" unicode="&#x150;" horiz-adv-x="706" 
d="M208 758l47 132h142l-85 -132h-104zM361 758l76 132h142l-114 -132h-104zM353 -10q-151 0 -237 100.5t-86 259.5q0 164 88.5 262t234.5 98q151 0 237 -100.5t86 -259.5q0 -164 -88.5 -262t-234.5 -98zM353 109q87 0 137 68t50 173q0 108 -51.5 174.5t-135.5 66.5
q-87 0 -137 -68t-50 -173q0 -108 51.5 -174.5t135.5 -66.5z" />
    <glyph glyph-name="ohungarumlaut" unicode="&#x151;" horiz-adv-x="572" 
d="M141 568l47 132h142l-85 -132h-104zM294 568l76 132h142l-114 -132h-104zM286 521q113 0 184.5 -73.5t71.5 -192.5t-71.5 -192.5t-184.5 -73.5t-184.5 73.5t-71.5 192.5t71.5 192.5t184.5 73.5zM286 99q58 0 90 42t32 114t-32 114t-90 42t-90 -42t-32 -114t32 -114
t90 -42z" />
    <glyph glyph-name="OE" unicode="&#x152;" horiz-adv-x="1078" 
d="M672 119h366v-119h-498v46q-79 -56 -187 -56q-151 0 -237 100.5t-86 259.5q0 164 88.5 262t234.5 98q108 0 187 -55v45h497v-119h-365v-165h351v-119h-350q0 -8 -1 -12v-166zM353 109q87 0 137 68t50 173q0 108 -51.5 174.5t-135.5 66.5q-87 0 -137 -68t-50 -173
q0 -108 51.5 -174.5t135.5 -66.5z" />
    <glyph glyph-name="oe" unicode="&#x153;" horiz-adv-x="954" 
d="M924 255v-29h-380q7 -59 39.5 -93t84.5 -34q53 0 73.5 17t29.5 48h145q-36 -175 -246 -175q-123 0 -194 79q-71 -79 -190 -79q-113 0 -184.5 73.5t-71.5 192.5t71.5 192.5t184.5 73.5q121 0 192 -82q74 82 195 82q113 0 182 -73t69 -193zM286 99q58 0 90 42t32 114
t-32 114t-90 42t-90 -42t-32 -114t32 -114t90 -42zM671 411q-99 0 -123 -99h241q-18 99 -118 99z" />
    <glyph glyph-name="Racute" unicode="&#x154;" horiz-adv-x="659" 
d="M468 880l-114 -132h-114l76 132h152zM590 175q3 -14 8 -44.5t8.5 -49t8.5 -42t11 -39.5h-142q-5 14 -10.5 41.5t-9 51l-8.5 60t-7 49.5q-6 40 -28 54.5t-66 14.5h-173v-271h-132v700h317q111 0 174 -47.5t63 -147.5q0 -128 -118 -171q50 -7 68.5 -38t35.5 -121zM334 581
h-152v-191h146q65 0 103 20.5t38 74.5q0 53 -34 74.5t-101 21.5z" />
    <glyph glyph-name="racute" unicode="&#x155;" horiz-adv-x="364" 
d="M352 700l-114 -132h-114l76 132h152zM178 363q1 26 5 45t16 43t40.5 37.5t70.5 13.5q10 0 32 -2v-112h-51q-54 0 -81.5 -39t-27.5 -92v-257h-132v500h112l16 -148v11z" />
    <glyph glyph-name="uni0156" unicode="&#x156;" horiz-adv-x="659" 
d="M590 175q3 -14 8 -44.5t8.5 -49t8.5 -42t11 -39.5h-142q-5 14 -10.5 41.5t-9 51l-8.5 60t-7 49.5q-6 40 -28 54.5t-66 14.5h-173v-271h-132v700h317q111 0 174 -47.5t63 -147.5q0 -128 -118 -171q50 -7 68.5 -38t35.5 -121zM334 581h-152v-191h146q65 0 103 20.5t38 74.5
q0 53 -34 74.5t-101 21.5zM281 -136v88h108v-88q0 -44 -24 -77.5t-84 -35.5v65q21 1 31 11.5t10 36.5h-41z" />
    <glyph glyph-name="uni0157" unicode="&#x157;" horiz-adv-x="364" 
d="M310 502q10 0 32 -2v-112h-51q-54 0 -81.5 -39t-27.5 -92v-257h-132v500h112l16 -148v11q1 26 5 45t16 43t40.5 37.5t70.5 13.5zM62 -136v88h108v-88q0 -44 -24 -77.5t-84 -35.5v65q21 1 31 11.5t10 36.5h-41z" />
    <glyph glyph-name="Rcaron" unicode="&#x158;" horiz-adv-x="659" 
d="M361 745h-123l-104 125h122l44 -59l43 59h122zM590 175q3 -14 8 -44.5t8.5 -49t8.5 -42t11 -39.5h-142q-5 14 -10.5 41.5t-9 51l-8.5 60t-7 49.5q-6 40 -28 54.5t-66 14.5h-173v-271h-132v700h317q111 0 174 -47.5t63 -147.5q0 -128 -118 -171q50 -7 68.5 -38t35.5 -121z
M334 581h-152v-191h146q65 0 103 20.5t38 74.5q0 53 -34 74.5t-101 21.5z" />
    <glyph glyph-name="rcaron" unicode="&#x159;" horiz-adv-x="364" 
d="M245 565h-123l-104 125h122l44 -59l43 59h122zM178 363q1 26 5 45t16 43t40.5 37.5t70.5 13.5q10 0 32 -2v-112h-51q-54 0 -81.5 -39t-27.5 -92v-257h-132v500h112l16 -148v11z" />
    <glyph glyph-name="Sacute" unicode="&#x15a;" horiz-adv-x="641" 
d="M489 900l-114 -132h-114l76 132h152zM322 421q156 -32 215.5 -76t59.5 -143q0 -102 -70.5 -157t-203.5 -55q-258 0 -293 244h139q9 -65 44.5 -97.5t106.5 -32.5q74 0 108.5 25t34.5 67q0 45 -37.5 63.5t-122.5 32.5q-140 23 -198.5 72t-58.5 143q0 104 73.5 158.5
t199.5 54.5q117 0 193 -62.5t86 -171.5h-132q-15 120 -155 120q-65 0 -98 -24.5t-33 -63.5q0 -55 56 -76q19 -8 86 -21z" />
    <glyph glyph-name="sacute" unicode="&#x15b;" horiz-adv-x="493" 
d="M415 700l-114 -132h-114l76 132h152zM252 317q118 -20 167 -52.5t49 -106.5q0 -83 -62.5 -126t-154.5 -43q-217 0 -231 174h126q5 -74 105 -74q93 0 93 56q0 29 -22.5 40t-85.5 22q-107 18 -156 53t-49 103q0 78 57.5 118t163.5 40q84 0 145.5 -46.5t65.5 -128.5h-121
q-11 75 -96 75q-89 0 -89 -48q0 -27 19.5 -37t75.5 -19z" />
    <glyph glyph-name="Scedilla" unicode="&#x15e;" horiz-adv-x="641" 
d="M322 421q156 -32 215.5 -76t59.5 -143q0 -95 -61 -149t-177 -62l-20 -34q36 -4 56.5 -22.5t20.5 -44.5q0 -74 -142 -74h-28v50h25q62 0 62 24q0 16 -19.5 24.5t-60.5 15.5l35 61q-225 15 -258 243h139q9 -65 44.5 -97.5t106.5 -32.5q74 0 108.5 25t34.5 67
q0 45 -37.5 63.5t-122.5 32.5q-140 23 -198.5 72t-58.5 143q0 104 73.5 158.5t199.5 54.5q117 0 193 -62.5t86 -171.5h-132q-15 120 -155 120q-65 0 -98 -24.5t-33 -63.5q0 -55 56 -76q19 -8 86 -21z" />
    <glyph glyph-name="scedilla" unicode="&#x15f;" horiz-adv-x="493" 
d="M468 158q0 -75 -50.5 -117t-130.5 -50l-20 -35q36 -4 56.5 -22.5t20.5 -44.5q0 -74 -142 -74h-28v50h25q62 0 62 24q0 16 -19.5 24.5t-60.5 15.5l35 61q-184 13 -196 173h126q5 -74 105 -74q93 0 93 56q0 29 -22.5 40t-85.5 22q-107 18 -156 53t-49 103q0 78 57.5 118
t163.5 40q84 0 145.5 -46.5t65.5 -128.5h-121q-11 75 -96 75q-89 0 -89 -48q0 -27 19.5 -37t75.5 -19q118 -20 167 -52.5t49 -106.5z" />
    <glyph glyph-name="Scaron" unicode="&#x160;" horiz-adv-x="641" 
d="M382 765h-123l-104 125h122l44 -59l43 59h122zM322 421q156 -32 215.5 -76t59.5 -143q0 -102 -70.5 -157t-203.5 -55q-258 0 -293 244h139q9 -65 44.5 -97.5t106.5 -32.5q74 0 108.5 25t34.5 67q0 45 -37.5 63.5t-122.5 32.5q-140 23 -198.5 72t-58.5 143
q0 104 73.5 158.5t199.5 54.5q117 0 193 -62.5t86 -171.5h-132q-15 120 -155 120q-65 0 -98 -24.5t-33 -63.5q0 -55 56 -76q19 -8 86 -21z" />
    <glyph glyph-name="scaron" unicode="&#x161;" horiz-adv-x="493" 
d="M308 565h-123l-104 125h122l44 -59l43 59h122zM252 317q118 -20 167 -52.5t49 -106.5q0 -83 -62.5 -126t-154.5 -43q-217 0 -231 174h126q5 -74 105 -74q93 0 93 56q0 29 -22.5 40t-85.5 22q-107 18 -156 53t-49 103q0 78 57.5 118t163.5 40q84 0 145.5 -46.5
t65.5 -128.5h-121q-11 75 -96 75q-89 0 -89 -48q0 -27 19.5 -37t75.5 -19z" />
    <glyph glyph-name="uni0162" unicode="&#x162;" horiz-adv-x="638" 
d="M385 0h-31l-19 -33q36 -4 56.5 -22.5t20.5 -44.5q0 -74 -142 -74h-28v50h25q62 0 62 24q0 16 -19.5 24.5t-60.5 15.5l34 60h-30v581h-233v119h598v-119h-233v-581z" />
    <glyph glyph-name="uni0163" unicode="&#x163;" horiz-adv-x="435" 
d="M257 388v-213q0 -35 12 -49t44 -14h87v-112h-90l-19 -33q36 -4 56.5 -22.5t20.5 -44.5q0 -74 -142 -74h-28v50h25q62 0 62 24q0 16 -19.5 24.5t-60.5 15.5l35 62q-115 18 -115 147v239h-115v112h120l30 130h97v-130h143v-112h-143z" />
    <glyph glyph-name="Tcaron" unicode="&#x164;" horiz-adv-x="638" 
d="M380 745h-123l-104 125h122l44 -59l43 59h122zM20 700h598v-119h-233v-581h-132v581h-233v119z" />
    <glyph glyph-name="tcaron" unicode="&#x165;" horiz-adv-x="435" 
d="M440 700l-60 -168h-92l30 168h122zM257 630v-130h143v-112h-143v-213q0 -35 12 -49t44 -14h87v-112h-125q-78 0 -114 41t-36 108v239h-115v112h120l30 130h97z" />
    <glyph glyph-name="Tbar" unicode="&#x166;" horiz-adv-x="638" 
d="M618 581h-233v-111h149v-114h-149v-356h-132v356h-149v114h149v111h-233v119h598v-119z" />
    <glyph glyph-name="tbar" unicode="&#x167;" horiz-adv-x="435" 
d="M400 388h-143v-55h143v-104h-143v-54q0 -35 12 -49t44 -14h87v-112h-125q-78 0 -114 41t-36 108v80h-115v104h115v55h-115v112h120l30 130h97v-130h143v-112z" />
    <glyph glyph-name="Umacron" unicode="&#x16a;" horiz-adv-x="662" 
d="M466 825v-80h-270v80h270zM480 700h132v-432q0 -143 -75.5 -210.5t-204.5 -67.5q-130 0 -206 67.5t-76 210.5v432h132v-426q0 -165 150 -165q148 0 148 165v426z" />
    <glyph glyph-name="umacron" unicode="&#x16b;" horiz-adv-x="578" 
d="M424 645v-80h-270v80h270zM396 500h132v-500h-102l-27 133l1 -8q0 -52 -45.5 -98.5t-127.5 -46.5q-177 0 -177 185v335h132v-317q0 -40 24.5 -66.5t80.5 -26.5q56 1 82.5 27.5t26.5 65.5v317z" />
    <glyph glyph-name="Uring" unicode="&#x16e;" horiz-adv-x="662" 
d="M331 664q-60 0 -101.5 31.5t-41.5 83.5t41.5 83.5t101.5 31.5t101.5 -31.5t41.5 -83.5t-41.5 -83.5t-101.5 -31.5zM331 826q-25 0 -41 -14.5t-16 -32.5t16 -32.5t41 -14.5t41 14.5t16 32.5t-16 32.5t-41 14.5zM480 700h132v-432q0 -143 -75.5 -210.5t-204.5 -67.5
q-130 0 -206 67.5t-76 210.5v432h132v-426q0 -165 150 -165q148 0 148 165v426z" />
    <glyph glyph-name="uring" unicode="&#x16f;" horiz-adv-x="578" 
d="M289 484q-60 0 -101.5 31.5t-41.5 83.5t41.5 83.5t101.5 31.5t101.5 -31.5t41.5 -83.5t-41.5 -83.5t-101.5 -31.5zM289 646q-25 0 -41 -14.5t-16 -32.5t16 -32.5t41 -14.5t41 14.5t16 32.5t-16 32.5t-41 14.5zM396 500h132v-500h-102l-27 133l1 -8q0 -52 -45.5 -98.5
t-127.5 -46.5q-177 0 -177 185v335h132v-317q0 -40 24.5 -66.5t80.5 -26.5q56 1 82.5 27.5t26.5 65.5v317z" />
    <glyph glyph-name="Uhungarumlaut" unicode="&#x170;" horiz-adv-x="662" 
d="M375 880l-85 -132h-104l47 132h142zM443 748h-104l76 132h142zM480 700h132v-432q0 -143 -75.5 -210.5t-204.5 -67.5q-130 0 -206 67.5t-76 210.5v432h132v-426q0 -165 150 -165q148 0 148 165v426z" />
    <glyph glyph-name="uhungarumlaut" unicode="&#x171;" horiz-adv-x="578" 
d="M333 700l-85 -132h-104l47 132h142zM401 568h-104l76 132h142zM396 500h132v-500h-102l-27 133l1 -8q0 -52 -45.5 -98.5t-127.5 -46.5q-177 0 -177 185v335h132v-317q0 -40 24.5 -66.5t80.5 -26.5q56 1 82.5 27.5t26.5 65.5v317z" />
    <glyph glyph-name="Uogonek" unicode="&#x172;" horiz-adv-x="662" 
d="M480 700h132v-432q0 -119 -53.5 -186t-148.5 -85q-67 -33 -67 -59q0 -16 19 -22t62 -6v-73q-84 0 -124 19.5t-40 62.5q0 42 51 71q-121 6 -191 73.5t-70 204.5v432h132v-426q0 -165 150 -165q148 0 148 165v426z" />
    <glyph glyph-name="uogonek" unicode="&#x173;" horiz-adv-x="578" 
d="M455 -62q0 -16 19 -22t62 -6v-73q-84 0 -124 19.5t-40 62.5q0 20 11.5 36.5t22 23.5t34.5 21h-14l-27 133l1 -8q0 -52 -45.5 -98.5t-127.5 -46.5q-177 0 -177 185v335h132v-317q0 -40 24.5 -66.5t80.5 -26.5q56 1 82.5 27.5t26.5 65.5v317h132v-500q-24 -12 -36.5 -19
t-24.5 -19t-12 -24z" />
    <glyph glyph-name="Wcircumflex" unicode="&#x174;" horiz-adv-x="971" 
d="M486 804l-44 -59h-122l104 125h123l104 -125h-122zM811 700h130l-122 -700h-217l-116 608l-116 -608h-218l-122 700h130l105 -605l111 605h219l111 -605z" />
    <glyph glyph-name="wcircumflex" unicode="&#x175;" horiz-adv-x="824" 
d="M412 624l-44 -59h-122l104 125h123l104 -125h-122zM670 500h139l-147 -500h-165l-85 390l-85 -390h-165l-147 500h139l90 -370l72 370h192l72 -370z" />
    <glyph glyph-name="Ycircumflex" unicode="&#x176;" horiz-adv-x="682" 
d="M341 804l-44 -59h-122l104 125h123l104 -125h-122zM672 700l-260 -433v-267h-142v267l-260 433h157l178 -310l170 310h157z" />
    <glyph glyph-name="ycircumflex" unicode="&#x177;" horiz-adv-x="538" 
d="M269 624l-44 -59h-122l104 125h123l104 -125h-122zM389 500h139l-217 -522q-23 -55 -37 -82.5t-36.5 -54t-51.5 -36t-72 -9.5h-96v108h82q11 0 20 2t15.5 4t12.5 8.5t9.5 9.5t8 12.5l6 12.5t6 15t5.5 15l10 25l-183 492h137l112 -341z" />
    <glyph glyph-name="Ydieresis" unicode="&#x178;" horiz-adv-x="682" 
d="M322 880v-120h-120v120h120zM480 880v-120h-120v120h120zM672 700l-260 -433v-267h-142v267l-260 433h157l178 -310l170 310h157z" />
    <glyph glyph-name="Zacute" unicode="&#x179;" horiz-adv-x="563" 
d="M450 880l-114 -132h-114l76 132h152zM528 700v-119l-342 -462h342v-119h-498v119l342 462h-342v119h498z" />
    <glyph glyph-name="zacute" unicode="&#x17a;" horiz-adv-x="470" 
d="M403 700l-114 -132h-114l76 132h152zM440 500v-112l-256 -276h256v-112h-410v112l256 276h-256v112h410z" />
    <glyph glyph-name="Zdotaccent" unicode="&#x17b;" horiz-adv-x="563" 
d="M342 875v-120h-120v120h120zM528 700v-119l-342 -462h342v-119h-498v119l342 462h-342v119h498z" />
    <glyph glyph-name="zdotaccent" unicode="&#x17c;" horiz-adv-x="470" 
d="M295 695v-120h-120v120h120zM440 500v-112l-256 -276h256v-112h-410v112l256 276h-256v112h410z" />
    <glyph glyph-name="Zcaron" unicode="&#x17d;" horiz-adv-x="563" 
d="M343 745h-123l-104 125h122l44 -59l43 59h122zM528 700v-119l-342 -462h342v-119h-498v119l342 462h-342v119h498z" />
    <glyph glyph-name="zcaron" unicode="&#x17e;" horiz-adv-x="470" 
d="M296 565h-123l-104 125h122l44 -59l43 59h122zM440 500v-112l-256 -276h256v-112h-410v112l256 276h-256v112h410z" />
    <glyph glyph-name="uni018F" unicode="&#x18f;" horiz-adv-x="676" 
d="M338 710q144 0 226 -97t82 -263q0 -161 -79 -260.5t-229 -99.5q-142 0 -224 94.5t-84 256.5v63h477q-10 86 -52.5 136.5t-116.5 50.5q-121 0 -147 -111h-144q20 108 92 169t199 61zM338 109q72 0 116 51t53 140h-339q20 -191 170 -191z" />
    <glyph glyph-name="florin" unicode="&#x192;" horiz-adv-x="594" 
d="M397 531l-22 -113l-5 -25h116v-95h-134l-1 -4l-28 -145q-13 -67 -57 -108t-122 -41h-134v112h118q31 0 46.5 15.5t22.5 51.5l22 115l1 4h-129v95h147l5 25l28 143q13 67 57 108t122 41h134v-112h-118q-31 0 -46.5 -15.5t-22.5 -51.5z" />
    <glyph glyph-name="uni0218" unicode="&#x218;" horiz-adv-x="641" 
d="M322 421q156 -32 215.5 -76t59.5 -143q0 -102 -70.5 -157t-203.5 -55q-258 0 -293 244h139q9 -65 44.5 -97.5t106.5 -32.5q74 0 108.5 25t34.5 67q0 45 -37.5 63.5t-122.5 32.5q-140 23 -198.5 72t-58.5 143q0 104 73.5 158.5t199.5 54.5q117 0 193 -62.5t86 -171.5h-132
q-15 120 -155 120q-65 0 -98 -24.5t-33 -63.5q0 -55 56 -76q19 -8 86 -21zM271 -146v88h108v-88q0 -44 -24 -77.5t-84 -35.5v65q21 1 31 11.5t10 36.5h-41z" />
    <glyph glyph-name="uni0219" unicode="&#x219;" horiz-adv-x="493" 
d="M252 317q118 -20 167 -52.5t49 -106.5q0 -83 -62.5 -126t-154.5 -43q-217 0 -231 174h126q5 -74 105 -74q93 0 93 56q0 29 -22.5 40t-85.5 22q-107 18 -156 53t-49 103q0 78 57.5 118t163.5 40q84 0 145.5 -46.5t65.5 -128.5h-121q-11 75 -96 75q-89 0 -89 -48
q0 -27 19.5 -37t75.5 -19zM198 -147v88h108v-88q0 -44 -24 -77.5t-84 -35.5v65q21 1 31 11.5t10 36.5h-41z" />
    <glyph glyph-name="uni021A" unicode="&#x21a;" horiz-adv-x="638" 
d="M20 700h598v-119h-233v-581h-132v581h-233v119zM270 -136v88h108v-88q0 -44 -24 -77.5t-84 -35.5v65q21 1 31 11.5t10 36.5h-41z" />
    <glyph glyph-name="uni021B" unicode="&#x21b;" horiz-adv-x="435" 
d="M257 388v-213q0 -35 12 -49t44 -14h87v-112h-125q-78 0 -114 41t-36 108v239h-115v112h120l30 130h97v-130h143v-112h-143zM221 -136v88h108v-88q0 -44 -24 -77.5t-84 -35.5v65q21 1 31 11.5t10 36.5h-41z" />
    <glyph glyph-name="uni0237" unicode="&#x237;" horiz-adv-x="240" 
d="M58 500h132v-547q0 -89 -44.5 -123.5t-137.5 -34.5h-64v112h59q33 0 44 15.5t11 61.5v516z" />
    <glyph glyph-name="uni0259" unicode="&#x259;" horiz-adv-x="572" 
d="M284 511q117 0 187.5 -73t70.5 -193q0 -119 -73.5 -192.5t-187.5 -73.5q-113 0 -182 73t-69 193v29h380q-7 59 -39.5 93t-84.5 34q-53 0 -73.5 -17t-29.5 -48h-145q36 175 246 175zM283 89q99 0 123 99h-241q18 -99 118 -99z" />
    <glyph glyph-name="circumflex" unicode="&#x2c6;" horiz-adv-x="431" 
d="M381 565h-122l-43 59l-44 -59h-122l104 125h123z" />
    <glyph glyph-name="caron" unicode="&#x2c7;" horiz-adv-x="431" 
d="M259 690h122l-104 -125h-123l-104 125h122l44 -59z" />
    <glyph glyph-name="breve" unicode="&#x2d8;" horiz-adv-x="412" 
d="M267 690h95q-7 -67 -42 -105t-114 -38t-114 38t-42 105h95q7 -63 61 -63t61 63z" />
    <glyph glyph-name="dotaccent" unicode="&#x2d9;" horiz-adv-x="220" 
d="M50 580v120h120v-120h-120z" />
    <glyph glyph-name="ring" unicode="&#x2da;" horiz-adv-x="386" 
d="M193 462q-57 0 -100 30t-43 87q0 52 41.5 83.5t101.5 31.5t101.5 -31.5t41.5 -83.5q0 -57 -43 -87t-100 -30zM193 508q26 0 41.5 16.5t15.5 42.5t-15.5 42.5t-41.5 16.5t-41.5 -16.5t-15.5 -42.5t15.5 -42.5t41.5 -16.5z" />
    <glyph glyph-name="ogonek" unicode="&#x2db;" horiz-adv-x="271" 
d="M134 -60q0 -16 20 -23t67 -7v-73q-89 0 -130 19t-41 63q0 68 65 99h88q-69 -40 -69 -78z" />
    <glyph glyph-name="tilde" unicode="&#x2dc;" horiz-adv-x="428" 
d="M283 557q-39 0 -72 25q-35 27 -48 27q-24 0 -24 -36h-89q0 59 24.5 94t70.5 35q35 0 71 -25l13.5 -10l13 -9.5t10 -5t12.5 -2.5q24 0 24 36h89q0 -60 -24 -94.5t-71 -34.5z" />
    <glyph glyph-name="hungarumlaut" unicode="&#x2dd;" horiz-adv-x="471" 
d="M50 568l47 132h142l-85 -132h-104zM203 568l76 132h142l-114 -132h-104z" />
    <glyph glyph-name="gravecomb" unicode="&#x300;" horiz-adv-x="0" 
d="M-50 568h-114l-114 132h152z" />
    <glyph glyph-name="acutecomb" unicode="&#x301;" horiz-adv-x="0" 
d="M-278 568l76 132h152l-114 -132h-114z" />
    <glyph glyph-name="uni0302" unicode="&#x302;" horiz-adv-x="0" 
d="M-50 565h-122l-43 59l-44 -59h-122l104 125h123z" />
    <glyph glyph-name="tildecomb" unicode="&#x303;" horiz-adv-x="0" 
d="M-145 557q-39 0 -72 25q-35 27 -48 27q-24 0 -24 -36h-89q0 59 24.5 94t70.5 35q35 0 71 -25l13.5 -10l13 -9.5t10 -5t12.5 -2.5q24 0 24 36h89q0 -60 -24 -94.5t-71 -34.5z" />
    <glyph glyph-name="uni0304" unicode="&#x304;" horiz-adv-x="0" 
d="M-320 645h270v-80h-270v80z" />
    <glyph glyph-name="uni0306" unicode="&#x306;" horiz-adv-x="0" 
d="M-145 690h95q-7 -67 -42 -105t-114 -38t-114 38t-42 105h95q7 -63 61 -63t61 63z" />
    <glyph glyph-name="uni0307" unicode="&#x307;" horiz-adv-x="0" 
d="M-170 580v120h120v-120h-120z" />
    <glyph glyph-name="uni0308" unicode="&#x308;" horiz-adv-x="0" 
d="M-328 580v120h120v-120h-120zM-170 580v120h120v-120h-120z" />
    <glyph glyph-name="uni030A" unicode="&#x30a;" horiz-adv-x="0" 
d="M-193 462q-57 0 -100 30t-43 87q0 52 41.5 83.5t101.5 31.5t101.5 -31.5t41.5 -83.5q0 -57 -43 -87t-100 -30zM-193 508q26 0 41.5 16.5t15.5 42.5t-15.5 42.5t-41.5 16.5t-41.5 -16.5t-15.5 -42.5t15.5 -42.5t41.5 -16.5z" />
    <glyph glyph-name="uni030B" unicode="&#x30b;" horiz-adv-x="0" 
d="M-421 568l47 132h142l-85 -132h-104zM-268 568l76 132h142l-114 -132h-104z" />
    <glyph glyph-name="uni030C" unicode="&#x30c;" horiz-adv-x="0" 
d="M-172 690h122l-104 -125h-123l-104 125h122l44 -59z" />
    <glyph glyph-name="uni0312" unicode="&#x312;" horiz-adv-x="0" 
d="M-50 568h-108v88q0 44 24 77.5t84 35.5v-65q-41 -6 -41 -48h41v-88z" />
    <glyph glyph-name="uni0326" unicode="&#x326;" horiz-adv-x="0" 
d="M-158 -201v65q21 1 31 11.5t10 36.5h-41v88h108v-88q0 -44 -24 -77.5t-84 -35.5z" />
    <glyph glyph-name="uni0327" unicode="&#x327;" horiz-adv-x="0" 
d="M-127 -33q36 -4 56.5 -22.5t20.5 -44.5q0 -74 -142 -74h-28v50h25q62 0 62 24q0 16 -19.5 24.5t-60.5 15.5l46 81h71z" />
    <glyph glyph-name="uni0328" unicode="&#x328;" horiz-adv-x="0" 
d="M-140 -59q0 -31 88 -31v-73q-89 0 -130 19t-41 63q0 50 85 99h88q-90 -51 -90 -77z" />
    <glyph glyph-name="uni0394" unicode="&#x394;" horiz-adv-x="708" 
d="M457 700l241 -700h-688l238 700h209zM190 120h325l-162 491z" />
    <glyph glyph-name="uni03A9" unicode="&#x3a9;" horiz-adv-x="706" 
d="M676 380q0 -186 -154 -261h154v-119h-242v119q49 26 77.5 88.5t28.5 142.5q0 105 -50 173t-137 68t-137 -68t-50 -173q0 -80 28.5 -142.5t77.5 -88.5v-119h-242v119h154q-154 75 -154 261q0 144 89.5 237t233.5 93t233.5 -93t89.5 -237z" />
    <glyph glyph-name="uni03BC" unicode="&#x3bc;" horiz-adv-x="642" 
d="M460 500h132v-500h-102l-27 133l1 -8q0 -50 -40 -97.5t-103 -47.5q-53 0 -90 35t-49 80v-299h-132v704h132v-317q0 -92 139 -93q139 1 139 93v317z" />
    <glyph glyph-name="pi" unicode="&#x3c0;" horiz-adv-x="580" 
d="M570 500v-112h-95v-388h-132v388h-106v-388h-132v388h-95v112h560z" />
    <glyph glyph-name="Wgrave" unicode="&#x1e80;" horiz-adv-x="971" 
d="M549 748h-114l-114 132h152zM811 700h130l-122 -700h-217l-116 608l-116 -608h-218l-122 700h130l105 -605l111 605h219l111 -605z" />
    <glyph glyph-name="wgrave" unicode="&#x1e81;" horiz-adv-x="824" 
d="M475 568h-114l-114 132h152zM670 500h139l-147 -500h-165l-85 390l-85 -390h-165l-147 500h139l90 -370l72 370h192l72 -370z" />
    <glyph glyph-name="Wacute" unicode="&#x1e82;" horiz-adv-x="971" 
d="M654 880l-114 -132h-114l76 132h152zM811 700h130l-122 -700h-217l-116 608l-116 -608h-218l-122 700h130l105 -605l111 605h219l111 -605z" />
    <glyph glyph-name="wacute" unicode="&#x1e83;" horiz-adv-x="824" 
d="M580 700l-114 -132h-114l76 132h152zM670 500h139l-147 -500h-165l-85 390l-85 -390h-165l-147 500h139l90 -370l72 370h192l72 -370z" />
    <glyph glyph-name="Wdieresis" unicode="&#x1e84;" horiz-adv-x="971" 
d="M467 880v-120h-120v120h120zM625 880v-120h-120v120h120zM811 700h130l-122 -700h-217l-116 608l-116 -608h-218l-122 700h130l105 -605l111 605h219l111 -605z" />
    <glyph glyph-name="wdieresis" unicode="&#x1e85;" horiz-adv-x="824" 
d="M393 700v-120h-120v120h120zM551 700v-120h-120v120h120zM670 500h139l-147 -500h-165l-85 390l-85 -390h-165l-147 500h139l90 -370l72 370h192l72 -370z" />
    <glyph glyph-name="uni1E9E" unicode="&#x1e9e;" horiz-adv-x="656" 
d="M470 369q79 -15 115 -60.5t36 -108.5q0 -96 -73 -148t-185 -52h-97v119h82q66 0 102 19.5t36 69.5q0 91 -138 91h-61v118h59q114 0 114 82t-112 82h-166v-581h-132v700h306q110 0 174.5 -47t64.5 -139q0 -114 -125 -145z" />
    <glyph glyph-name="Ygrave" unicode="&#x1ef2;" horiz-adv-x="682" 
d="M404 748h-114l-114 132h152zM672 700l-260 -433v-267h-142v267l-260 433h157l178 -310l170 310h157z" />
    <glyph glyph-name="ygrave" unicode="&#x1ef3;" horiz-adv-x="538" 
d="M332 568h-114l-114 132h152zM389 500h139l-217 -522q-23 -55 -37 -82.5t-36.5 -54t-51.5 -36t-72 -9.5h-96v108h82q11 0 20 2t15.5 4t12.5 8.5t9.5 9.5t8 12.5l6 12.5t6 15t5.5 15l10 25l-183 492h137l112 -341z" />
    <glyph glyph-name="uni2009" unicode="&#x2009;" horiz-adv-x="120" 
 />
    <glyph glyph-name="endash" unicode="&#x2013;" horiz-adv-x="645" 
d="M595 348v-112h-545v112h545z" />
    <glyph glyph-name="emdash" unicode="&#x2014;" horiz-adv-x="945" 
d="M895 348v-112h-845v112h845z" />
    <glyph glyph-name="quoteleft" unicode="&#x2018;" horiz-adv-x="254" 
d="M204 388h-154v145q0 70 37 117t117 50v-83q-16 -2 -26 -5t-20.5 -11.5t-15 -25t-4.5 -42.5h66v-145z" />
    <glyph glyph-name="quoteright" unicode="&#x2019;" horiz-adv-x="254" 
d="M50 702h154v-145q0 -70 -37 -117t-117 -50v83q16 2 26 5t20.5 11.5t15 25t4.5 42.5h-66v145z" />
    <glyph glyph-name="quotesinglbase" unicode="&#x201a;" horiz-adv-x="254" 
d="M50 145h154v-145q0 -70 -37 -117t-117 -50v83q16 2 26 5t20.5 11.5t15 25t4.5 42.5h-66v145z" />
    <glyph glyph-name="quotedblleft" unicode="&#x201c;" horiz-adv-x="445" 
d="M204 388h-154v145q0 70 37 117t117 50v-83q-16 -2 -26 -5t-20.5 -11.5t-15 -25t-4.5 -42.5h66v-145zM395 388h-154v145q0 70 37 117t117 50v-83q-16 -2 -26 -5t-20.5 -11.5t-15 -25t-4.5 -42.5h66v-145z" />
    <glyph glyph-name="quotedblright" unicode="&#x201d;" horiz-adv-x="445" 
d="M50 702h154v-145q0 -70 -37 -117t-117 -50v83q16 2 26 5t20.5 11.5t15 25t4.5 42.5h-66v145zM241 702h154v-145q0 -70 -37 -117t-117 -50v83q16 2 26 5t20.5 11.5t15 25t4.5 42.5h-66v145z" />
    <glyph glyph-name="quotedblbase" unicode="&#x201e;" horiz-adv-x="444" 
d="M50 145h154v-145q0 -70 -37 -117t-117 -50v83q16 2 26 5t20.5 11.5t15 25t4.5 42.5h-66v145zM240 145h154v-145q0 -70 -37 -117t-117 -50v83q16 2 26 5t20.5 11.5t15 25t4.5 42.5h-66v145z" />
    <glyph glyph-name="dagger" unicode="&#x2020;" horiz-adv-x="535" 
d="M485 555v-115h-160v-255h-115v255h-160v115h160v145h115v-145h160z" />
    <glyph glyph-name="daggerdbl" unicode="&#x2021;" horiz-adv-x="535" 
d="M485 480h-160v-69h160v-115h-160v-111h-115v111h-160v115h160v69h-160v115h160v105h115v-105h160v-115z" />
    <glyph glyph-name="bullet" unicode="&#x2022;" horiz-adv-x="420" 
d="M210 180q-66 0 -113 47t-47 113t47 113t113 47t113 -47t47 -113t-47 -113t-113 -47z" />
    <glyph glyph-name="ellipsis" unicode="&#x2026;" horiz-adv-x="716" 
d="M50 0v143h152v-143h-152zM282 0v143h152v-143h-152zM514 0v143h152v-143h-152z" />
    <glyph glyph-name="perthousand" unicode="&#x2030;" horiz-adv-x="1453" 
d="M211 239q-89 0 -138 63.5t-49 172.5t49 172t138 63q90 0 139 -63t49 -172t-49 -172.5t-139 -63.5zM643 690h124l-380 -690h-124zM211 343q68 0 68 132q0 131 -68 131t-68 -131q0 -132 68 -132zM818 -7q-89 0 -138 63.5t-49 172.5t49 172t138 63q90 0 139 -63t49 -172
t-49 -172.5t-139 -63.5zM1241 -7q-89 0 -138 63.5t-49 172.5t49 172t138 63q90 0 139 -63t49 -172t-49 -172.5t-139 -63.5zM818 97q68 0 68 132q0 131 -68 131t-68 -131q0 -132 68 -132zM1241 97q68 0 68 132q0 131 -68 131t-68 -131q0 -132 68 -132z" />
    <glyph glyph-name="minute" unicode="&#x2032;" horiz-adv-x="201" 
d="M72 700h119l-80 -230h-81z" />
    <glyph glyph-name="second" unicode="&#x2033;" horiz-adv-x="361" 
d="M72 700h119l-80 -230h-81zM232 700h119l-110 -230h-81z" />
    <glyph glyph-name="guilsinglleft" unicode="&#x2039;" horiz-adv-x="326" 
d="M311 450l-151 -205l151 -205h-146l-150 205l150 205h146z" />
    <glyph glyph-name="guilsinglright" unicode="&#x203a;" horiz-adv-x="326" 
d="M161 450l150 -205l-150 -205h-146l151 205l-151 205h146z" />
    <glyph glyph-name="fraction" unicode="&#x2044;" horiz-adv-x="204" 
d="M230 690h124l-380 -690h-124z" />
    <glyph glyph-name="uni2070" unicode="&#x2070;" horiz-adv-x="423" 
d="M211 239q-89 0 -138 63.5t-49 172.5t49 172t138 63q90 0 139 -63t49 -172t-49 -172.5t-139 -63.5zM211 343q68 0 68 132q0 131 -68 131t-68 -131q0 -132 68 -132z" />
    <glyph glyph-name="uni2074" unicode="&#x2074;" horiz-adv-x="414" 
d="M396 449v-104h-58v-102h-115v102h-204v104l132 251h187v-251h58zM133 449h90v177z" />
    <glyph glyph-name="uni2075" unicode="&#x2075;" horiz-adv-x="378" 
d="M224 546q60 0 98.5 -41.5t38.5 -103.5q0 -76 -47 -120.5t-134 -44.5q-77 0 -120.5 47t-41.5 121h113q1 -34 12.5 -49t43.5 -15q56 0 56 61q0 21 -13.5 39t-43.5 18q-12 0 -30 -8t-27 -17l-98 24l30 243h265v-103h-176l-13 -99q24 48 87 48z" />
    <glyph glyph-name="uni2076" unicode="&#x2076;" horiz-adv-x="367" 
d="M223 538q52 0 90.5 -43t38.5 -107q0 -74 -45 -113t-124 -39q-91 0 -129.5 60.5t-38.5 180.5q0 64 20 109.5t54.5 69t71 34t78.5 10.5h91v-103h-71q-74 0 -102 -25q-29 -26 -29 -98l-1 -16q17 80 96 80zM186 334q29 0 39 12t10 36q0 37 -13 49.5t-36 12.5q-31 0 -41 -15
t-10 -45q0 -50 51 -50z" />
    <glyph glyph-name="uni2077" unicode="&#x2077;" horiz-adv-x="320" 
d="M16 700h300v-104q-36 -36 -64 -75t-44 -66.5t-31.5 -73.5t-20.5 -65t-18 -72h-130q31 109 72 189t125 163h-189v104z" />
    <glyph glyph-name="uni2078" unicode="&#x2078;" horiz-adv-x="389" 
d="M266 475q99 -22 99 -110q0 -55 -46.5 -90t-123.5 -35q-80 0 -125.5 37t-45.5 88q0 38 24.5 68.5t75.5 41.5q-28 8 -47 20t-28 21t-13.5 24.5t-4.5 20v18.5q0 57 45 94t119 37q77 0 120 -38t43 -93q0 -17 -1 -25t-8.5 -25.5t-28 -30.5t-54.5 -23zM195 615q-52 0 -52 -49
q0 -21 14 -33t38 -12q52 0 52 45q0 49 -52 49zM195 335q58 0 58 48q0 20 -16 35t-42 15q-31 0 -45 -16t-14 -34q0 -48 59 -48z" />
    <glyph glyph-name="uni2079" unicode="&#x2079;" horiz-adv-x="370" 
d="M186 710q92 0 130 -60.5t38 -179.5q0 -51 -14 -91.5t-36 -64.5t-52 -40t-60 -22t-63 -6h-89v104h69q74 0 102 24q30 26 30 99l1 13q-19 -77 -96 -77q-51 0 -90 43t-39 106q0 74 45 113t124 39zM183 503q31 0 41 14.5t10 45.5q0 49 -51 49q-28 0 -38 -11.5t-10 -35.5
q0 -37 12.5 -49.5t35.5 -12.5z" />
    <glyph glyph-name="uni2080" unicode="&#x2080;" horiz-adv-x="423" 
d="M211 -107q-89 0 -138 63.5t-49 172.5t49 172t138 63q90 0 139 -63t49 -172t-49 -172.5t-139 -63.5zM211 -3q68 0 68 132q0 131 -68 131t-68 -131q0 -132 68 -132z" />
    <glyph glyph-name="uni2081" unicode="&#x2081;" horiz-adv-x="301" 
d="M122 357h123v-457h-115v265q0 39 12 73q-13 -36 -34.5 -62.5t-45.5 -26.5h-46v102h46q27 0 43.5 31.5t16.5 74.5z" />
    <glyph glyph-name="uni2082" unicode="&#x2082;" horiz-adv-x="361" 
d="M106 4h241v-104h-324v104q99 85 142 128t50 57t7 36q0 11 -10 23.5t-29 12.5q-14 0 -23.5 -3t-19 -15.5t-11.5 -34.5h-114q1 78 45 117.5t123 39.5q75 0 117 -35t42 -91q0 -38 -13 -67.5t-46 -58t-71 -51.5t-106 -58z" />
    <glyph glyph-name="uni2083" unicode="&#x2083;" horiz-adv-x="377" 
d="M248 135q113 -14 113 -107q0 -64 -45 -99.5t-120 -35.5q-92 0 -138.5 44t-41.5 131h114q0 -44 15 -57.5t48 -13.5q27 0 39 6.5t12 28.5q0 26 -20 37t-64 11h-17v104h33q33 0 47 7.5t14 31.5q0 37 -44 37q-50 0 -52 -48h-115q2 73 50 112.5t118 39.5q75 0 117.5 -33
t42.5 -96q0 -39 -26.5 -65.5t-79.5 -34.5z" />
    <glyph glyph-name="uni2084" unicode="&#x2084;" horiz-adv-x="414" 
d="M396 106v-104h-58v-102h-115v102h-204v104l132 251h187v-251h58zM133 106h90v177z" />
    <glyph glyph-name="uni2085" unicode="&#x2085;" horiz-adv-x="378" 
d="M224 203q60 0 98.5 -41.5t38.5 -103.5q0 -76 -47 -120.5t-134 -44.5q-77 0 -120.5 47t-41.5 121h113q1 -34 12.5 -49t43.5 -15q56 0 56 61q0 21 -13.5 39t-43.5 18q-12 0 -30 -8t-27 -17l-98 24l30 243h265v-103h-176l-13 -99q24 48 87 48z" />
    <glyph glyph-name="uni2086" unicode="&#x2086;" horiz-adv-x="367" 
d="M223 195q52 0 90.5 -43t38.5 -107q0 -74 -45 -113t-124 -39q-91 0 -129.5 60.5t-38.5 180.5q0 64 20 109.5t54.5 69t71 34t78.5 10.5h91v-103h-71q-74 0 -102 -25q-29 -26 -29 -98l-1 -16q17 80 96 80zM186 -9q29 0 39 12t10 36q0 37 -13 49.5t-36 12.5q-31 0 -41 -15
t-10 -45q0 -50 51 -50z" />
    <glyph glyph-name="uni2087" unicode="&#x2087;" horiz-adv-x="320" 
d="M16 356h300v-104q-36 -36 -64 -75t-44 -66.5t-31.5 -73.5t-20.5 -65t-18 -72h-130q31 109 72 189t125 163h-189v104z" />
    <glyph glyph-name="uni2088" unicode="&#x2088;" horiz-adv-x="396" 
d="M276 128q99 -22 99 -108q0 -54 -47.5 -90t-129.5 -36q-84 0 -130.5 37.5t-46.5 88.5q0 86 100 109q-31 11 -51 25.5t-28.5 32.5t-11 32t-2.5 32q0 48 46.5 81t123.5 33q81 0 126 -34.5t45 -79.5q0 -19 -2.5 -32.5t-11 -31.5t-28.5 -33t-51 -26zM198 272q-50 0 -50 -45
q0 -19 14 -32.5t36 -13.5t36.5 13.5t14.5 32.5q0 45 -51 45zM198 -12q26 0 42 12.5t16 32.5q0 21 -16 34t-42 13q-25 0 -41 -13t-16 -34q0 -20 15.5 -32.5t41.5 -12.5z" />
    <glyph glyph-name="uni2089" unicode="&#x2089;" horiz-adv-x="370" 
d="M186 364q92 0 130 -60.5t38 -179.5q0 -51 -14 -91.5t-36 -64.5t-52 -40t-60 -22t-63 -6h-89v104h69q74 0 102 24q30 26 30 99l1 13q-19 -77 -96 -77q-51 0 -90 43t-39 106q0 74 45 113t124 39zM183 157q31 0 41 14.5t10 45.5q0 49 -51 49q-28 0 -38 -11.5t-10 -35.5
q0 -37 12.5 -49.5t35.5 -12.5z" />
    <glyph glyph-name="uni20A9" unicode="&#x20a9;" horiz-adv-x="833" 
d="M803 359h-113l-4 -50h117v-95h-124l-17 -214h-195l-21 214h-59l-20 -214h-196l-17 214h-124v95h117l-4 50h-113v95h105l-19 246h109l19 -246h65l22 246h171l22 -246h64l19 246h110l-19 -246h105v-95zM416 522l-6 -68h13zM251 359l4 -50h41l5 50h-50zM396 309h41l-5 50
h-31zM577 309l4 50h-49l5 -50h40zM274 60l14 154h-26zM559 61l11 153h-25z" />
    <glyph glyph-name="Euro" unicode="&#x20ac;" horiz-adv-x="656" 
d="M506 233h115q-18 -115 -81 -179t-167 -64q-102 0 -165.5 64t-84.5 179h-88v95h78v22v28h-78v95h89q22 115 86.5 176t162.5 61q100 0 164.5 -64.5t80.5 -178.5h-116q-11 67 -41 100.5t-83 33.5q-43 0 -75.5 -31.5t-48.5 -96.5h176v-95h-187q-1 -9 -1 -28v-22h188v-95h-177
q15 -66 46 -100t74 -34q58 0 89.5 33t43.5 101z" />
    <glyph glyph-name="uni20B5" unicode="&#x20b5;" horiz-adv-x="536" 
d="M496 700v-95h-101q41 -28 54 -72h47v-95h-44q-14 -74 -73.5 -105t-159.5 -31h-10l287 -302h-153l-293 302v87h176q98 0 119 49h-295v95h295q-23 48 -119 48h-176v119h446z" />
    <glyph glyph-name="uni20BA" unicode="&#x20ba;" horiz-adv-x="634" 
d="M604 278q-3 -138 -95 -207t-231 -71h-132v202l-106 -38v95l106 38v50l-106 -38v95l106 38v258h132v-212l157 56v-95l-157 -56v-50l157 56v-95l-157 -56v-129q108 1 162 42t57 141z" />
    <glyph glyph-name="uni20BD" unicode="&#x20bd;" horiz-adv-x="657" 
d="M116 0v124h-86v95h86v481h262q113 0 176 -55t63 -148t-63 -148t-176 -55h-130v-75h207v-95h-207v-124h-132zM248 413h109q125 0 125 84t-125 84h-109v-168z" />
    <glyph glyph-name="uni20BF" unicode="&#x20bf;" horiz-adv-x="561" 
d="M541 196q0 -70 -35.5 -117.5t-100.5 -66.5v-92h-107v80h-53v-80h-107v80h-98v700h98v80h107v-80h53v80h107v-94q125 -38 125 -168q0 -126 -133 -160q144 -26 144 -162zM395 499q0 48 -26 65t-86 17h-111v-164h109q61 0 87.5 17t26.5 65zM271 119q23 0 36 0.5t35 5
t33.5 13.5t21 26.5t9.5 42.5q0 32 -13 52.5t-38.5 28t-43 9.5t-47.5 2h-92v-180h99z" />
    <glyph glyph-name="uni2116" unicode="&#x2116;" horiz-adv-x="993" 
d="M811 405q-64 0 -108.5 44.5t-44.5 108.5q0 63 44.5 107.5t108.5 44.5q63 0 107.5 -44.5t44.5 -107.5q0 -64 -44.5 -108.5t-107.5 -44.5zM503 116v584h122v-700h-211l-242 596v-596h-122v700h216zM811 628q-27 0 -46 -20.5t-19 -49.5q0 -30 19 -50.5t46 -20.5
q26 0 45 20.5t19 50.5q0 29 -19 49.5t-45 20.5zM683 267v91h244v-91h-244z" />
    <glyph glyph-name="uni2117" unicode="&#x2117;" horiz-adv-x="764" 
d="M382 693q152 0 252 -102t100 -250t-100 -250t-252 -102t-252 102t-100 250t100 250t252 102zM382 64q121 0 194.5 78.5t73.5 198.5t-73.5 198.5t-194.5 78.5t-194.5 -78.5t-73.5 -198.5t73.5 -198.5t194.5 -78.5zM418 492q45 0 78 -25t33 -80t-33 -80t-78 -25h-83v-95
h-76v305h159zM407 356q44 0 44 31t-44 31h-72v-62h72z" />
    <glyph glyph-name="trademark" unicode="&#x2122;" horiz-adv-x="903" 
d="M30 626v77h354v-77h-132v-267h-95v267h-127zM873 703v-344h-85v278l-76 -278h-130l-76 278v-278h-85v344h153l73 -278l71 278h155z" />
    <glyph glyph-name="estimated" unicode="&#x212e;" horiz-adv-x="532" 
d="M266 -8q-102 0 -159 70.5t-57 198.5q0 124 57.5 197t156.5 73q100 0 159 -71.5t59 -191.5v-33h-314v-147q43 -39 98 -39q113 0 133 125h74q-30 -182 -207 -182zM168 288h194v144q-39 40 -98 40q-56 0 -96 -42v-142z" />
    <glyph glyph-name="oneeighth" unicode="&#x215b;" horiz-adv-x="976" 
d="M130 241v265q0 44 15 78l-3 -4q-26 -59 -41 -74q-17 -16 -39 -16h-46v102h46q22 0 36.5 20.5t19 43t4.5 44.5v-2h123v-457h-115zM561 690h124l-380 -690h-124zM821 228q99 -22 99 -108q0 -54 -47.5 -90t-129.5 -36q-84 0 -130.5 37.5t-46.5 88.5q0 86 100 109
q-31 11 -51 25.5t-28.5 32.5t-11 32t-2.5 32q0 48 46.5 81t123.5 33q81 0 126 -34.5t45 -79.5q0 -19 -2.5 -32.5t-11 -31.5t-28.5 -33t-51 -26zM743 372q-50 0 -50 -45q0 -19 14 -32.5t36 -13.5t36.5 13.5t14.5 32.5q0 45 -51 45zM743 88q26 0 42 12.5t16 32.5q0 21 -16 34
t-42 13q-25 0 -41 -13t-16 -34q0 -20 15.5 -32.5t41.5 -12.5z" />
    <glyph glyph-name="threeeighths" unicode="&#x215c;" horiz-adv-x="992" 
d="M361 374q0 -64 -45 -99.5t-120 -35.5q-92 0 -138.5 44t-41.5 131h114q0 -44 15 -57.5t48 -13.5q27 0 39 6.5t12 28.5q0 26 -20 37t-64 11h-17v104h33q33 0 47 7.5t14 31.5q0 37 -44 37q-50 0 -52 -48h-115q2 73 50 112.5t118 39.5q75 0 117.5 -33t42.5 -96
q0 -39 -26.5 -65.5t-79.5 -34.5q113 -14 113 -107zM617 690h124l-380 -690h-124zM877 228q99 -22 99 -108q0 -54 -47.5 -90t-129.5 -36q-84 0 -130.5 37.5t-46.5 88.5q0 86 100 109q-31 11 -51 25.5t-28.5 32.5t-11 32t-2.5 32q0 48 46.5 81t123.5 33q81 0 126 -34.5
t45 -79.5q0 -19 -2.5 -32.5t-11 -31.5t-28.5 -33t-51 -26zM799 372q-50 0 -50 -45q0 -19 14 -32.5t36 -13.5t36.5 13.5t14.5 32.5q0 45 -51 45zM799 88q26 0 42 12.5t16 32.5q0 21 -16 34t-42 13q-25 0 -41 -13t-16 -34q0 -20 15.5 -32.5t41.5 -12.5z" />
    <glyph glyph-name="fiveeighths" unicode="&#x215d;" horiz-adv-x="988" 
d="M361 401q0 -76 -47 -120.5t-134 -44.5q-77 0 -120.5 47t-41.5 121h113q1 -34 12.5 -49t43.5 -15q56 0 56 61q0 21 -13.5 39t-43.5 18q-12 0 -30 -8t-27 -17l-98 24l30 243h265v-103h-176l-13 -99q24 48 87 48q60 0 98.5 -41.5t38.5 -103.5zM612 690h124l-380 -690h-124z
M872 228q99 -22 99 -108q0 -54 -47.5 -90t-129.5 -36q-84 0 -130.5 37.5t-46.5 88.5q0 86 100 109q-31 11 -51 25.5t-28.5 32.5t-11 32t-2.5 32q0 48 46.5 81t123.5 33q81 0 126 -34.5t45 -79.5q0 -19 -2.5 -32.5t-11 -31.5t-28.5 -33t-51 -26zM794 372q-50 0 -50 -45
q0 -19 14 -32.5t36 -13.5t36.5 13.5t14.5 32.5q0 45 -51 45zM794 88q26 0 42 12.5t16 32.5q0 21 -16 34t-42 13q-25 0 -41 -13t-16 -34q0 -20 15.5 -32.5t41.5 -12.5z" />
    <glyph glyph-name="seveneighths" unicode="&#x215e;" horiz-adv-x="833" 
d="M8 244q31 109 72 189t125 163h-189v104h300v-104q-36 -36 -64 -75t-44 -66.5t-31.5 -73.5t-20.5 -65t-18 -72h-130zM470 690h124l-380 -690h-124zM730 228q99 -22 99 -108q0 -54 -47.5 -90t-129.5 -36q-84 0 -130.5 37.5t-46.5 88.5q0 86 100 109q-31 11 -51 25.5
t-28.5 32.5t-11 32t-2.5 32q0 48 46.5 81t123.5 33q81 0 126 -34.5t45 -79.5q0 -19 -2.5 -32.5t-11 -31.5t-28.5 -33t-51 -26zM652 372q-50 0 -50 -45q0 -19 14 -32.5t36 -13.5t36.5 13.5t14.5 32.5q0 45 -51 45zM652 88q26 0 42 12.5t16 32.5q0 21 -16 34t-42 13
q-25 0 -41 -13t-16 -34q0 -20 15.5 -32.5t41.5 -12.5z" />
    <glyph glyph-name="arrowleft" unicode="&#x2190;" horiz-adv-x="770" 
d="M720 381v-118l-445 -1l188 -188l-84 -84l-329 329l331 332l81 -82l-188 -188h446z" />
    <glyph glyph-name="arrowup" unicode="&#x2191;" horiz-adv-x="761" 
d="M711 381l-84 -84l-181 181l-1 -478h-132v479l-181 -181l-82 81l332 331z" />
    <glyph glyph-name="arrowright" unicode="&#x2192;" horiz-adv-x="770" 
d="M389 651l331 -332l-329 -329l-84 84l188 188l-445 1v118h446l-188 188z" />
    <glyph glyph-name="arrowdown" unicode="&#x2193;" horiz-adv-x="761" 
d="M627 403l84 -84l-329 -329l-332 331l82 81l181 -181v479h132l1 -478z" />
    <glyph glyph-name="uni2196" unicode="&#x2196;" horiz-adv-x="616" 
d="M566 81l-93 -93l-304 304v-257h-119v466h469v-115h-256z" />
    <glyph glyph-name="uni2197" unicode="&#x2197;" horiz-adv-x="616" 
d="M97 501h469v-466h-119v257l-304 -304l-93 93l303 305h-256v115z" />
    <glyph glyph-name="uni2198" unicode="&#x2198;" horiz-adv-x="624" 
d="M459 469h115v-469h-466v119h257l-304 304l93 93l305 -303v256z" />
    <glyph glyph-name="uni2199" unicode="&#x2199;" horiz-adv-x="624" 
d="M574 423l-304 -304h257v-119h-466v469h115v-256l305 303z" />
    <glyph glyph-name="partialdiff" unicode="&#x2202;" horiz-adv-x="560" 
d="M161 710q172 -23 270.5 -133.5t98.5 -281.5q0 -146 -69 -226t-195 -80q-102 0 -169 61t-67 170q0 107 64 169t151 62q129 0 175 -102q-13 109 -80 174t-179 83v104zM281 99q55 0 86 32.5t31 88.5q0 57 -32 89t-85 32q-55 0 -86 -32.5t-31 -88.5q0 -57 32 -89t85 -32z" />
    <glyph glyph-name="uni2206" unicode="&#x2206;" horiz-adv-x="646" 
d="M426 700l200 -580v-120h-606v120l197 580h209zM159 120h325l-162 491z" />
    <glyph glyph-name="product" unicode="&#x220f;" horiz-adv-x="638" 
d="M20 700h598v-119h-83v-681h-132v681h-168v-681h-132v681h-83v119z" />
    <glyph glyph-name="summation" unicode="&#x2211;" horiz-adv-x="578" 
d="M548 700v-119h-332l252 -290l-252 -272h332v-119h-498v119l260 272l-260 290v119h498z" />
    <glyph glyph-name="minus" unicode="&#x2212;" horiz-adv-x="445" 
d="M395 236h-345v112h345v-112z" />
    <glyph glyph-name="radical" unicode="&#x221a;" horiz-adv-x="816" 
d="M766 710v-119h-182l-242 -691h-153l-179 500h137l119 -374l223 684h277z" />
    <glyph glyph-name="infinity" unicode="&#x221e;" horiz-adv-x="912" 
d="M666 465q93 0 154.5 -59.5t61.5 -154.5q0 -96 -61.5 -156t-154.5 -60q-17 0 -33 2.5t-28 5.5t-25.5 11l-21.5 12.5t-19.5 17l-17 18.5t-17 22.5l-15.5 22.5l-16.5 26l-16.5 26l-16.5 -26l-16.5 -26l-15.5 -22.5t-17 -22.5l-17 -18.5t-19.5 -17l-21.5 -12.5t-25.5 -11
t-28 -5.5t-33 -2.5q-93 0 -154.5 60t-61.5 156q0 95 61.5 154.5t154.5 59.5q42 0 75 -13t59 -41.5t40 -49t36 -59.5q22 39 36 59.5t40 49t59 41.5t75 13zM256 135q38 0 75 32t60 84q-22 51 -59 82.5t-76 31.5q-52 0 -84 -31.5t-32 -82.5q0 -53 32 -84.5t84 -31.5zM656 135
q52 0 84 31.5t32 84.5q0 51 -32 82.5t-84 31.5q-39 0 -76 -31.5t-59 -82.5q23 -52 60 -84t75 -32z" />
    <glyph glyph-name="integral" unicode="&#x222b;" horiz-adv-x="636" 
d="M491 710h134v-112h-118q-31 0 -46.5 -15.5t-22.5 -51.5l-86 -442l-28 -145q-13 -67 -57 -108t-122 -41h-134v112h118q31 0 46.5 15.5t22.5 51.5l22 115l64 329l28 143q13 67 57 108t122 41z" />
    <glyph glyph-name="approxequal" unicode="&#x2248;" horiz-adv-x="503" 
d="M345 217q-52 0 -97 25q-4 2 -15 8.5t-15 8t-11 5t-13 4.5t-12 1q-32 0 -32 -36h-100q0 57 29.5 93t78.5 36q48 0 96 -25q6 -3 18.5 -10t18 -9.5t14 -5t16.5 -2.5q33 0 33 36h99q0 -58 -29 -93.5t-79 -35.5z" />
    <glyph glyph-name="notequal" unicode="&#x2260;" horiz-adv-x="565" 
d="M515 333h-155l-33 -85h188v-115h-232l-51 -133h-113l51 133h-120v115h164l33 85h-197v115h241l51 133h113l-51 -133h111v-115z" />
    <glyph glyph-name="lessequal" unicode="&#x2264;" horiz-adv-x="517" 
d="M467 515v-132l-383 -45l383 -45v-132l-417 79v196zM52 0v115h415v-115h-415z" />
    <glyph glyph-name="greaterequal" unicode="&#x2265;" horiz-adv-x="517" 
d="M50 515l417 -79v-196l-417 -79v132l383 45l-383 45v132zM50 0v115h415v-115h-415z" />
    <glyph glyph-name="lozenge" unicode="&#x25ca;" horiz-adv-x="646" 
d="M426 700l200 -580v-120h-606v120l197 580h209zM159 120h325l-162 491z" />
    <glyph glyph-name="cent.tf" unicode="&#xe702;" horiz-adv-x="620" 
d="M560 204q-9 -93 -61 -147t-137 -65v-72h-107v75q-93 18 -144 87t-51 173q0 105 52 174.5t143 86.5v84h107v-83q80 -14 132 -71.5t62 -144.5h-134q-11 76 -60 101v-296q52 17 64 98h134zM190 255q0 -102 65 -140v282q-65 -35 -65 -142z" />
    <glyph glyph-name="dollar.tf" unicode="&#xe704;" horiz-adv-x="620" 
d="M373 407q105 -29 146.5 -72.5t41.5 -132.5t-48 -142.5t-140 -66.5v-73h-107v73q-181 25 -208 241h123q12 -102 85 -124v189q-105 25 -149.5 73t-44.5 135q0 92 52 145.5t142 64.5v63h107v-66q81 -16 131.5 -75.5t57.5 -152.5h-117q-10 84 -72 109v-188zM191 518
q0 -37 19 -55.5t56 -29.5v169q-37 -8 -56 -30.5t-19 -53.5zM373 111q69 18 69 85q0 57 -69 79v-164z" />
    <glyph glyph-name="Euro.tf" unicode="&#xe705;" horiz-adv-x="620" 
d="M488 233h115q-19 -116 -79 -179.5t-164 -63.5q-101 0 -163.5 63.5t-82.5 179.5h-87v95h78v22v28h-78v95h88q22 115 84.5 176t160.5 61q99 0 161.5 -64t78.5 -179h-116q-12 68 -39.5 101t-79.5 33q-92 0 -120 -128h167v-95h-178v-28v-22h178v-95h-168q27 -134 116 -134
q57 0 86.5 32.5t41.5 101.5z" />
    <glyph glyph-name="florin.tf" unicode="&#xe706;" horiz-adv-x="620" 
d="M410 531l-22 -113l-5 -25h116v-95h-134l-1 -4l-28 -145q-13 -67 -57 -108t-122 -41h-134v112h118q31 0 46.5 15.5t22.5 51.5l22 115l1 4h-129v95h147l5 25l28 143q13 67 57 108t122 41h134v-112h-118q-31 0 -46.5 -15.5t-22.5 -51.5z" />
    <glyph glyph-name="sterling.tf" unicode="&#xe70a;" horiz-adv-x="620" 
d="M212 123v-4h330v-119h-493v163h120q3 52 -16 135h-104v95h78q-36 109 -11.5 179.5t81 104t135.5 33.5q97 0 155.5 -64t74.5 -179h-116q-12 69 -35.5 101.5t-69.5 32.5q-29 0 -51.5 -9.5t-39.5 -31.5t-16 -65t22 -102h188v-95h-168q6 -113 -64 -175z" />
    <glyph glyph-name="uniF8FF" unicode="&#xf8ff;" horiz-adv-x="950" 
d="M325 -96q-7 2 -15.5 17.5t-13.5 19.5q-4 4 -17 7t-17 6q-9 6 -25.5 28t-27.5 27q-6 3 -50 32q-7 6 -15 22t-11 18q-25 22 -67 32q-7 2 -23.5 11t-11.5 12q9 5 33.5 27t38.5 26q23 7 33 18q6 8 19.5 31.5t24.5 32.5q9 9 36 20t37 23q8 9 21.5 31t21.5 31q30 35 84 62
q14 8 51.5 46.5t54.5 48.5q4 3 23.5 9t31.5 16q8 8 19.5 27t26 30t39.5 11q33 0 47.5 -16.5t28.5 -16.5q3 0 8 0.5t7 0.5q11 0 16 -5q4 -4 5 -18t6 -19q15 -14 51.5 -24.5t49.5 -19.5q4 -3 4 -11q11 -8 31 -13t30 -14.5t10 -35.5q0 -9 -20.5 -27.5t-22.5 -21.5q-3 -4 -7 -16
t-8 -17q-1 -1 -14 -19.5l-16 -23t-16 -22.5t-18.5 -25l-17.5 -22.5t-20 -24.5l-19 -20.5t-20.5 -20.5t-19.5 -16q-94 -72 -129 -81q-2 -1 -8.5 -2.5l-11 -2.5t-10 -4t-7.5 -6q-35 -47 -60 -66q-7 -5 -23.5 -14t-23.5 -15q-5 -5 -9.5 -16.5t-8.5 -15.5q-10 -10 -40.5 -22
t-44.5 -9zM576 407q30 0 51 18t21 44t-21 44t-51 18t-51 -18t-21 -44t21 -44t51 -18zM704 478q6 0 6 7q0 6 -6 6q-7 0 -7 -6q0 -7 7 -7zM421 344q21 0 36 6t15 14t-15 14t-36 6q-22 0 -37 -6t-15 -14t15 -14t37 -6zM724 362q6 0 6 7q0 6 -6 6q-7 0 -7 -6q0 -7 7 -7zM548 344
q6 0 6 7q0 6 -6 6q-7 0 -7 -6q0 -7 7 -7zM613 266q21 0 36 6t15 14t-15 14t-36 6q-22 0 -37 -6t-15 -14t15 -14t37 -6zM422 136q41 0 70 17t29 42t-29 42t-70 17t-70.5 -17t-29.5 -42t29.5 -42t70.5 -17zM209 235q6 0 6 7q0 6 -6 6q-7 0 -7 -6q0 -7 7 -7zM577 146q6 0 6 7
q0 6 -6 6q-7 0 -7 -6q0 -7 7 -7zM205 87q6 0 6 7q0 6 -6 6q-7 0 -7 -6q0 -7 7 -7zM437 87q6 0 6 7q0 6 -6 6q-7 0 -7 -6q0 -7 7 -7zM322 30q21 0 36 6t15 14t-15 14t-36 6q-22 0 -37 -6t-15 -14t15 -14t37 -6z" />
    <glyph glyph-name="Adieresis.ss03" horiz-adv-x="708" 
d="M265 736q-31 0 -52.5 21t-21.5 53q0 31 21.5 52t52.5 21t52 -21t21 -52t-21 -52.5t-52 -21.5zM443 736q-31 0 -52.5 21t-21.5 53q0 31 21.5 52t52.5 21t52 -21t21 -52t-21 -52.5t-52 -21.5zM555 0l-56 169h-293l-56 -169h-140l238 700h209l241 -700h-143zM246 289h213
l-106 322z" />
    <glyph glyph-name="Cdotaccent.ss03" horiz-adv-x="680" 
d="M351 746q-31 0 -52.5 21t-21.5 53q0 31 21.5 52t52.5 21t52 -21t21 -52t-21 -52.5t-52 -21.5zM510 233h140q-22 -115 -98.5 -179t-203.5 -64q-154 0 -236 96t-82 264q0 172 84 266t234 94q122 0 200 -64.5t98 -178.5h-141q-30 124 -151 124q-188 0 -188 -241
q0 -119 47.5 -180t134.5 -61q131 0 162 124z" />
    <glyph glyph-name="Edieresis.ss03" horiz-adv-x="588" 
d="M225 736q-31 0 -52.5 21t-21.5 53q0 31 21.5 52t52.5 21t52 -21t21 -52t-21 -52.5t-52 -21.5zM403 736q-31 0 -52.5 21t-21.5 53q0 31 21.5 52t52.5 21t52 -21t21 -52t-21 -52.5t-52 -21.5zM182 119h366v-119h-498v700h497v-119h-365v-165h351v-119h-351v-178z" />
    <glyph glyph-name="Edotaccent.ss03" horiz-adv-x="588" 
d="M315 736q-31 0 -52.5 21t-21.5 53q0 31 21.5 52t52.5 21t52 -21t21 -52t-21 -52.5t-52 -21.5zM182 119h366v-119h-498v700h497v-119h-365v-165h351v-119h-351v-178z" />
    <glyph glyph-name="Gdotaccent.ss03" horiz-adv-x="711" 
d="M366 746q-32 0 -53 21t-21 53q0 31 21.5 52t52.5 21t52 -21t21 -52t-21 -52.5t-52 -21.5zM666 367v-367h-132v157q-25 -167 -207 -167q-129 0 -213 99t-84 261q0 170 90.5 265t244.5 95q121 0 195 -63.5t95 -177.5h-141q-23 122 -148 122q-91 0 -145.5 -59.5
t-54.5 -181.5q0 -117 51.5 -179t140.5 -62q78 0 124 35t52 104h-193v119h325z" />
    <glyph glyph-name="Idieresis.ss03" 
d="M27 746q-31 0 -52.5 21t-21.5 53q0 31 21.5 52t52.5 21t52 -21t21 -52t-21 -52.5t-52 -21.5zM205 746q-31 0 -52.5 21t-21.5 53q0 31 21.5 52t52.5 21t52 -21t21 -52t-21 -52.5t-52 -21.5zM50 700h132v-700h-132v700z" />
    <glyph glyph-name="Idotaccent.ss03" 
d="M117 746q-31 0 -52.5 21t-21.5 53q0 31 21.5 52t52.5 21t52 -21t21 -52t-21 -52.5t-52 -21.5zM50 700h132v-700h-132v700z" />
    <glyph glyph-name="Odieresis.ss03" horiz-adv-x="706" 
d="M264 746q-32 0 -53 21t-21 53q0 31 21.5 52t52.5 21t52 -21t21 -52t-21 -52.5t-52 -21.5zM442 746q-32 0 -53 21t-21 53q0 31 21.5 52t52.5 21t52 -21t21 -52t-21 -52.5t-52 -21.5zM353 -10q-151 0 -237 100.5t-86 259.5q0 164 88.5 262t234.5 98q151 0 237 -100.5
t86 -259.5q0 -164 -88.5 -262t-234.5 -98zM353 109q87 0 137 68t50 173q0 108 -51.5 174.5t-135.5 66.5q-87 0 -137 -68t-50 -173q0 -108 51.5 -174.5t135.5 -66.5z" />
    <glyph glyph-name="Udieresis.ss03" horiz-adv-x="662" 
d="M242 736q-32 0 -53 21t-21 53q0 31 21.5 52t52.5 21t52 -21t21 -52t-21 -52.5t-52 -21.5zM420 736q-32 0 -53 21t-21 53q0 31 21.5 52t52.5 21t52 -21t21 -52t-21 -52.5t-52 -21.5zM480 700h132v-432q0 -143 -75.5 -210.5t-204.5 -67.5q-130 0 -206 67.5t-76 210.5v432
h132v-426q0 -165 150 -165q148 0 148 165v426z" />
    <glyph glyph-name="Wdieresis.ss03" horiz-adv-x="971" 
d="M397 736q-31 0 -52.5 21t-21.5 53q0 31 21.5 52t52.5 21t52 -21t21 -52t-21 -52.5t-52 -21.5zM575 736q-31 0 -52.5 21t-21.5 53q0 31 21.5 52t52.5 21t52 -21t21 -52t-21 -52.5t-52 -21.5zM811 700h130l-122 -700h-217l-116 608l-116 -608h-218l-122 700h130l105 -605
l111 605h219l111 -605z" />
    <glyph glyph-name="Ydieresis.ss03" horiz-adv-x="682" 
d="M252 736q-32 0 -53 21t-21 53q0 31 21.5 52t52.5 21t52 -21t21 -52t-21 -52.5t-52 -21.5zM430 736q-32 0 -53 21t-21 53q0 31 21.5 52t52.5 21t52 -21t21 -52t-21 -52.5t-52 -21.5zM672 700l-260 -433v-267h-142v267l-260 433h157l178 -310l170 310h157z" />
    <glyph glyph-name="Zdotaccent.ss03" horiz-adv-x="563" 
d="M283 736q-31 0 -52.5 21t-21.5 53q0 31 21.5 52t52.5 21t52 -21t21 -52t-21 -52.5t-52 -21.5zM528 700v-119l-342 -462h342v-119h-498v119l342 462h-342v119h498z" />
    <glyph glyph-name="i.loclTRK" 
d="M56 575v120h120v-120h-120zM50 0v500h132v-500h-132z" />
    <glyph glyph-name="j.alt.001" horiz-adv-x="240" 
d="M51 710h146v-135h-146v135zM58 500h132v-547q0 -89 -45 -123.5t-142 -34.5v112q33 0 44 15.5t11 61.5v516z" />
    <glyph glyph-name="j.alt" horiz-adv-x="240" 
d="M51 710h146v-135h-146v135zM58 500h132v-547q0 -89 -45 -123.5t-142 -34.5v112q33 0 44 15.5t11 61.5v516z" />
    <glyph glyph-name="a.ss01" horiz-adv-x="571" 
d="M391 500h132v-500h-112l-16 118q-38 -129 -159 -129q-91 0 -148.5 73.5t-57.5 192.5t57.5 192.5t148.5 73.5q116 0 155 -116v95zM286 99q58 0 90 42t32 114v14l-6 43q-11 47 -41 73t-75 26q-58 0 -90 -42t-32 -114t32 -114t90 -42z" />
    <glyph glyph-name="aacute.ss01" horiz-adv-x="573" 
d="M462 700l-114 -132h-114l76 132h152zM393 500h132v-500h-112l-16 118q-38 -129 -159 -129q-91 0 -148.5 73.5t-57.5 192.5t57.5 192.5t148.5 73.5q116 0 155 -116v95zM288 99q58 0 90 42t32 114v14l-6 43q-11 47 -41 73t-75 26q-58 0 -90 -42t-32 -114t32 -114t90 -42z
" />
    <glyph glyph-name="abreve.ss01" horiz-adv-x="573" 
d="M294 547q-79 0 -114 38t-42 105h95q7 -63 61 -63t61 63h95q-7 -67 -42 -105t-114 -38zM393 500h132v-500h-112l-16 118q-38 -129 -159 -129q-91 0 -148.5 73.5t-57.5 192.5t57.5 192.5t148.5 73.5q116 0 155 -116v95zM288 99q58 0 90 42t32 114v14l-6 43q-11 47 -41 73
t-75 26q-58 0 -90 -42t-32 -114t32 -114t90 -42z" />
    <glyph glyph-name="acircumflex.ss01" horiz-adv-x="573" 
d="M294 624l-44 -59h-122l104 125h123l104 -125h-122zM393 500h132v-500h-112l-16 118q-38 -129 -159 -129q-91 0 -148.5 73.5t-57.5 192.5t57.5 192.5t148.5 73.5q116 0 155 -116v95zM288 99q58 0 90 42t32 114v14l-6 43q-11 47 -41 73t-75 26q-58 0 -90 -42t-32 -114
t32 -114t90 -42z" />
    <glyph glyph-name="adieresis.ss01" horiz-adv-x="571" 
d="M273 700v-120h-120v120h120zM431 700v-120h-120v120h120zM391 500h132v-500h-112l-16 118q-38 -129 -159 -129q-91 0 -148.5 73.5t-57.5 192.5t57.5 192.5t148.5 73.5q116 0 155 -116v95zM286 99q58 0 90 42t32 114v14l-6 43q-11 47 -41 73t-75 26q-58 0 -90 -42
t-32 -114t32 -114t90 -42z" />
    <glyph glyph-name="agrave.ss01" horiz-adv-x="573" 
d="M357 568h-114l-114 132h152zM393 500h132v-500h-112l-16 118q-38 -129 -159 -129q-91 0 -148.5 73.5t-57.5 192.5t57.5 192.5t148.5 73.5q116 0 155 -116v95zM288 99q58 0 90 42t32 114v14l-6 43q-11 47 -41 73t-75 26q-58 0 -90 -42t-32 -114t32 -114t90 -42z" />
    <glyph glyph-name="amacron.ss01" horiz-adv-x="573" 
d="M429 645v-80h-270v80h270zM393 500h132v-500h-112l-16 118q-38 -129 -159 -129q-91 0 -148.5 73.5t-57.5 192.5t57.5 192.5t148.5 73.5q116 0 155 -116v95zM288 99q58 0 90 42t32 114v14l-6 43q-11 47 -41 73t-75 26q-58 0 -90 -42t-32 -114t32 -114t90 -42z" />
    <glyph glyph-name="aogonek.ss01" horiz-adv-x="573" 
d="M452 -62q0 -16 19 -22t62 -6v-73q-84 0 -124 19.5t-40 62.5q0 20 11.5 36.5t22 23.5t34.5 21h-24l-16 118q-38 -129 -159 -129q-91 0 -148.5 73.5t-57.5 192.5t57.5 192.5t148.5 73.5q116 0 155 -116v95h132v-500q-24 -12 -36.5 -19t-24.5 -19t-12 -24zM288 99
q58 0 90 42t32 114v14l-6 43q-11 47 -41 73t-75 26q-58 0 -90 -42t-32 -114t32 -114t90 -42z" />
    <glyph glyph-name="aring.ss01" horiz-adv-x="573" 
d="M393 500h132v-500h-112l-16 118q-38 -129 -159 -129q-91 0 -148.5 73.5t-57.5 192.5q0 95 38 162.5t102 91.5q-68 27 -68 95q0 48 37.5 76.5t92.5 28.5t92.5 -28.5t37.5 -76.5q0 -66 -64 -93q66 -25 93 -106v95zM234 647q-24 0 -38 -14.5t-14 -38.5t14 -39t38 -15t38 15
t14 39t-14 38.5t-38 14.5zM288 99q58 0 90 42t32 114v14l-6 43q-11 47 -41 73t-75 26q-58 0 -90 -42t-32 -114t32 -114t90 -42z" />
    <glyph glyph-name="atilde.ss01" horiz-adv-x="573" 
d="M247 609q-24 0 -24 -36h-89q0 59 24.5 94t70.5 35q35 0 71 -25l13.5 -10l13 -9.5t10 -5t12.5 -2.5q24 0 24 36h89q0 -60 -24 -94.5t-71 -34.5q-39 0 -72 25q-35 27 -48 27zM393 500h132v-500h-112l-16 118q-38 -129 -159 -129q-91 0 -148.5 73.5t-57.5 192.5t57.5 192.5
t148.5 73.5q116 0 155 -116v95zM288 99q58 0 90 42t32 114v14l-6 43q-11 47 -41 73t-75 26q-58 0 -90 -42t-32 -114t32 -114t90 -42z" />
    <glyph glyph-name="adieresis.ss03" horiz-adv-x="543" 
d="M169 556q-31 0 -52.5 21t-21.5 53q0 31 21.5 52t52.5 21t52 -21t21 -52t-21 -52.5t-52 -21.5zM347 556q-31 0 -52.5 21t-21.5 53q0 31 21.5 52t52.5 21t52 -21t21 -52t-21 -52.5t-52 -21.5zM264 520q107 0 168 -46t61 -139v-335h-102l-30 128q-14 -66 -55.5 -99.5
t-103.5 -33.5q-74 0 -123 40t-49 114q0 69 53 111t139 42h139v15q0 93 -97 93q-49 0 -74.5 -21t-25.5 -52h-132q0 84 61 133.5t171 49.5zM243 95q50 0 84 34.5t34 86.5h-113q-43 0 -64.5 -16t-21.5 -41q0 -64 81 -64z" />
    <glyph glyph-name="j.alt.ss03" horiz-adv-x="240" 
d="M123 558q-31 0 -52.5 21t-21.5 53q0 31 21.5 52t52.5 21t52 -21t21 -52t-21 -52.5t-52 -21.5zM58 500h132v-547q0 -89 -45 -123.5t-139 -34.5v112q31 0 41.5 15.5t10.5 61.5v516z" />
    <glyph glyph-name="cdotaccent.ss03" horiz-adv-x="560" 
d="M281 556q-31 0 -52.5 21t-21.5 53q0 31 21.5 52t52.5 21t52 -21t21 -52t-21 -52.5t-52 -21.5zM288 -11q-121 0 -189.5 72t-68.5 194q0 121 67.5 193.5t183.5 72.5q101 0 167 -59.5t78 -160.5h-134q-15 110 -106 110q-59 0 -92.5 -40t-33.5 -116q0 -71 34 -113.5t92 -42.5
q55 0 79 26.5t31 78.5h134q-10 -105 -74.5 -160t-167.5 -55z" />
    <glyph glyph-name="edieresis.ss03" horiz-adv-x="572" 
d="M202 556q-32 0 -53 21t-21 53q0 31 21.5 52t52.5 21t52 -21t21 -52t-21 -52.5t-52 -21.5zM380 556q-32 0 -53 21t-21 53q0 31 21.5 52t52.5 21t52 -21t21 -52t-21 -52.5t-52 -21.5zM542 255v-29h-380q7 -59 39.5 -93t84.5 -34q53 0 73.5 17t29.5 48h145
q-36 -175 -246 -175q-117 0 -187.5 73t-70.5 193q0 119 73.5 192.5t187.5 73.5q113 0 182 -73t69 -193zM289 411q-99 0 -123 -99h241q-18 99 -118 99z" />
    <glyph glyph-name="edotaccent.ss03" horiz-adv-x="572" 
d="M292 556q-32 0 -53 21t-21 53q0 31 21.5 52t52.5 21t52 -21t21 -52t-21 -52.5t-52 -21.5zM542 255v-29h-380q7 -59 39.5 -93t84.5 -34q53 0 73.5 17t29.5 48h145q-36 -175 -246 -175q-117 0 -187.5 73t-70.5 193q0 119 73.5 192.5t187.5 73.5q113 0 182 -73t69 -193z
M289 411q-99 0 -123 -99h241q-18 99 -118 99z" />
    <glyph glyph-name="gdotaccent.ss03" horiz-adv-x="593" 
d="M303 556q-31 0 -52.5 21t-21.5 53q0 31 21.5 52t52.5 21t52 -21t21 -52t-21 -52.5t-52 -21.5zM431 500h112v-471q-1 -123 -57 -178t-184 -55h-204v112h187q65 0 95.5 31t30.5 125v41q-39 -116 -155 -116q-99 0 -162.5 73.5t-63.5 192.5t63.5 192.5t162.5 73.5
q124 0 160 -132zM306 99q58 0 90 42t32 114t-32 114t-90 42q-66 0 -104 -42.5t-38 -113.5t38 -113.5t104 -42.5z" />
    <glyph glyph-name="i.ss03" 
d="M117 558q-31 0 -52.5 21t-21.5 53q0 31 21.5 52t52.5 21t52 -21t21 -52t-21 -52.5t-52 -21.5zM50 0v500h132v-500h-132z" />
    <glyph glyph-name="idieresis.ss03" 
d="M27 556q-31 0 -52.5 21t-21.5 53q0 31 21.5 52t52.5 21t52 -21t21 -52t-21 -52.5t-52 -21.5zM205 556q-31 0 -52.5 21t-21.5 53q0 31 21.5 52t52.5 21t52 -21t21 -52t-21 -52.5t-52 -21.5zM50 0v500h132v-500h-132z" />
    <glyph glyph-name="j.ss03" horiz-adv-x="240" 
d="M123 558q-31 0 -52.5 21t-21.5 53q0 31 21.5 52t52.5 21t52 -21t21 -52t-21 -52.5t-52 -21.5zM58 500h132v-547q0 -89 -44.5 -123.5t-137.5 -34.5h-64v112h59q33 0 44 15.5t11 61.5v516z" />
    <glyph glyph-name="odieresis.ss03" horiz-adv-x="572" 
d="M197 556q-31 0 -52.5 21t-21.5 53q0 31 21.5 52t52.5 21t52 -21t21 -52t-21 -52.5t-52 -21.5zM375 556q-31 0 -52.5 21t-21.5 53q0 31 21.5 52t52.5 21t52 -21t21 -52t-21 -52.5t-52 -21.5zM286 521q113 0 184.5 -73.5t71.5 -192.5t-71.5 -192.5t-184.5 -73.5
t-184.5 73.5t-71.5 192.5t71.5 192.5t184.5 73.5zM286 99q58 0 90 42t32 114t-32 114t-90 42t-90 -42t-32 -114t32 -114t90 -42z" />
    <glyph glyph-name="adieresis.ss01.ss03" horiz-adv-x="571" 
d="M191 556q-31 0 -52.5 21t-21.5 53q0 31 21.5 52t52.5 21t52 -21t21 -52t-21 -52.5t-52 -21.5zM369 556q-31 0 -52.5 21t-21.5 53q0 31 21.5 52t52.5 21t52 -21t21 -52t-21 -52.5t-52 -21.5zM391 500h132v-500h-112l-16 118q-38 -129 -159 -129q-91 0 -148.5 73.5
t-57.5 192.5t57.5 192.5t148.5 73.5q116 0 155 -116v95zM286 99q58 0 90 42t32 114v14l-6 43q-11 47 -41 73t-75 26q-58 0 -90 -42t-32 -114t32 -114t90 -42z" />
    <glyph glyph-name="udieresis.ss03" horiz-adv-x="578" 
d="M200 556q-32 0 -53 21t-21 53q0 31 21.5 52t52.5 21t52 -21t21 -52t-21 -52.5t-52 -21.5zM378 556q-32 0 -53 21t-21 53q0 31 21.5 52t52.5 21t52 -21t21 -52t-21 -52.5t-52 -21.5zM396 500h132v-500h-102l-27 133l1 -8q0 -52 -45.5 -98.5t-127.5 -46.5q-177 0 -177 185
v335h132v-317q0 -40 24.5 -66.5t80.5 -26.5q56 1 82.5 27.5t26.5 65.5v317z" />
    <glyph glyph-name="wdieresis.ss03" horiz-adv-x="824" 
d="M323 556q-31 0 -52.5 21t-21.5 53q0 31 21.5 52t52.5 21t52 -21t21 -52t-21 -52.5t-52 -21.5zM501 556q-31 0 -52.5 21t-21.5 53q0 31 21.5 52t52.5 21t52 -21t21 -52t-21 -52.5t-52 -21.5zM670 500h139l-147 -500h-165l-85 390l-85 -390h-165l-147 500h139l90 -370
l72 370h192l72 -370z" />
    <glyph glyph-name="ydieresis.ss03" horiz-adv-x="538" 
d="M180 556q-32 0 -53 21t-21 53q0 31 21.5 52t52.5 21t52 -21t21 -52t-21 -52.5t-52 -21.5zM358 556q-32 0 -53 21t-21 53q0 31 21.5 52t52.5 21t52 -21t21 -52t-21 -52.5t-52 -21.5zM389 500h139l-217 -522q-23 -55 -37 -82.5t-36.5 -54t-51.5 -36t-72 -9.5h-96v108h82
q11 0 20 2t15.5 4t12.5 8.5t9.5 9.5t8 12.5l6 12.5t6 15t5.5 15l10 25l-183 492h137l112 -341z" />
    <glyph glyph-name="zdotaccent.ss03" horiz-adv-x="470" 
d="M236 556q-32 0 -53 21t-21 53q0 31 21.5 52t52.5 21t52 -21t21 -52t-21 -52.5t-52 -21.5zM440 500v-112l-256 -276h256v-112h-410v112l256 276h-256v112h410z" />
    <glyph glyph-name="zero.lf" horiz-adv-x="624" 
d="M312 -10q-130 0 -198.5 96t-68.5 264t68.5 264t198.5 96t198.5 -96t68.5 -264t-68.5 -264t-198.5 -96zM312 109q130 0 130 241t-130 241q-131 0 -131 -241t131 -241z" />
    <glyph glyph-name="one.lf" horiz-adv-x="440" 
d="M345 700v-700h-132v430q0 66 17 124h-2q-40 -131 -123 -131h-75v117h75q32 0 53 11.5t30.5 34.5t12.5 46t3 58v10h141z" />
    <glyph glyph-name="two.lf" horiz-adv-x="537" 
d="M133 118h369v-119h-466v119q144 126 208.5 191.5t86.5 105t22 85.5q0 39 -23 65t-66 26q-48 0 -76 -25.5t-33 -88.5h-131q2 119 65 176t175 57q108 0 167 -53t59 -142q0 -112 -81 -196t-276 -201z" />
    <glyph glyph-name="three.lf" horiz-adv-x="559" 
d="M340 360q90 -9 134.5 -53t44.5 -115q0 -95 -63.5 -148.5t-173.5 -53.5q-128 0 -194.5 61.5t-62.5 191.5h131q1 -77 30.5 -105.5t91.5 -28.5q52 0 79 18.5t27 68.5q0 53 -34.5 77.5t-107.5 24.5h-33v119h50q60 0 87 20t27 68q0 86 -94 86q-43 0 -73.5 -25t-33.5 -83h-132
q4 113 71 170t169 57q108 0 168 -49.5t60 -141.5q0 -64 -42.5 -106.5t-125.5 -52.5z" />
    <glyph glyph-name="four.lf" horiz-adv-x="617" 
d="M568 293v-119h-93v-174h-132v174h-320v119l237 407h215v-407h93zM158 293h185v330z" />
    <glyph glyph-name="five.lf" horiz-adv-x="560" 
d="M323 456q93 0 150 -61.5t57 -160.5q0 -116 -66.5 -180t-187.5 -64q-112 0 -174.5 64.5t-62.5 179.5h130q2 -66 27 -95.5t87 -29.5q112 0 112 125q0 52 -27.5 86.5t-87.5 34.5q-32 0 -63 -16.5t-47 -40.5l-112 30l51 372h373v-119h-273l-30 -218q37 93 144 93z" />
    <glyph glyph-name="six.lf" horiz-adv-x="546" 
d="M317 446q87 0 143 -65.5t56 -161.5q0 -106 -63.5 -167.5t-180.5 -61.5q-133 0 -187.5 88t-54.5 254q0 99 27.5 172.5t76.5 115t107.5 61t128.5 19.5h115v-119h-92q-117 0 -169 -44q-64 -54 -64 -205l-2 -24q12 61 50.5 99.5t108.5 38.5zM276 102q105 0 105 110
q0 68 -27 97t-78 29q-108 0 -108 -120q0 -57 29 -86.5t79 -29.5z" />
    <glyph glyph-name="seven.lf" horiz-adv-x="483" 
d="M20 700h443v-119q-121 -132 -181 -267.5t-101 -313.5h-149q45 170 112.5 309.5t191.5 271.5h-316v119z" />
    <glyph glyph-name="eight.lf" horiz-adv-x="582" 
d="M381 355q80 -17 118 -63.5t38 -109.5q0 -86 -67.5 -139t-178.5 -53q-114 0 -180 54.5t-66 137.5q0 64 39 110t116 63q-46 12 -76.5 31.5t-44 43.5t-18.5 44t-5 45q0 84 65 137.5t170 53.5q109 0 172 -54.5t63 -136.5q0 -25 -5 -45t-18.5 -44t-44.5 -43.5t-77 -31.5z
M291 601q-53 0 -80 -26.5t-27 -70.5q0 -42 29.5 -69.5t77.5 -27.5q52 0 79.5 28.5t27.5 68.5q0 46 -29 71.5t-78 25.5zM291 100q58 0 87.5 28t29.5 74q0 45 -32.5 74.5t-84.5 29.5q-57 0 -87 -30.5t-30 -73.5q0 -49 31.5 -75.5t85.5 -26.5z" />
    <glyph glyph-name="nine.lf" horiz-adv-x="551" 
d="M262 710q133 0 187.5 -88t54.5 -254q0 -99 -27.5 -172.5t-76.5 -115t-107.5 -61t-128.5 -19.5h-115v119h92q117 0 169 44q64 54 64 205l2 24q-12 -61 -50.5 -99.5t-108.5 -38.5q-87 0 -143 65.5t-56 161.5q0 106 63.5 167.5t180.5 61.5zM258 362q108 0 108 120
q0 57 -29 86.5t-79 29.5q-105 0 -105 -110q0 -68 27 -97t78 -29z" />
    <glyph glyph-name="zero.tf" horiz-adv-x="620" 
d="M310 -10q-130 0 -198.5 96t-68.5 264t68.5 264t198.5 96t198.5 -96t68.5 -264t-68.5 -264t-198.5 -96zM310 109q130 0 130 241t-130 241q-131 0 -131 -241t131 -241z" />
    <glyph glyph-name="one.tf" horiz-adv-x="620" 
d="M418 119h133v-119h-451v119h186v311q0 66 17 124h-2q-40 -131 -123 -131h-85v117h85q32 0 53 11.5t30.5 34.5t12.5 46t3 58v10h141v-581z" />
    <glyph glyph-name="two.tf" horiz-adv-x="620" 
d="M180 118h369v-119h-466v119q144 126 208.5 191.5t86.5 105t22 85.5q0 39 -23 65t-66 26q-48 0 -76 -25.5t-33 -88.5h-131q2 119 65 176t175 57q108 0 167 -53t59 -142q0 -112 -81 -196t-276 -201z" />
    <glyph glyph-name="three.tf" horiz-adv-x="620" 
d="M378 360q90 -9 134.5 -53t44.5 -115q0 -95 -63.5 -148.5t-173.5 -53.5q-128 0 -194.5 61.5t-62.5 191.5h131q1 -77 30.5 -105.5t91.5 -28.5q52 0 79 18.5t27 68.5q0 53 -34.5 77.5t-107.5 24.5h-33v119h50q60 0 87 20t27 68q0 86 -94 86q-43 0 -73.5 -25t-33.5 -83h-132
q4 113 71 170t169 57q108 0 168 -49.5t60 -141.5q0 -64 -42.5 -106.5t-125.5 -52.5z" />
    <glyph glyph-name="four.tf" horiz-adv-x="620" 
d="M573 293v-119h-103v-174h-132v174h-306v119l223 407h215v-407h103zM165 293h173v326z" />
    <glyph glyph-name="five.tf" horiz-adv-x="620" 
d="M349 456q93 0 150 -61.5t57 -160.5q0 -116 -66.5 -180t-187.5 -64q-112 0 -174.5 64.5t-62.5 179.5h130q2 -66 27 -95.5t87 -29.5q112 0 112 125q0 52 -27.5 86.5t-87.5 34.5q-32 0 -63 -16.5t-47 -40.5l-112 30l51 372h373v-119h-273l-30 -218q37 93 144 93z" />
    <glyph glyph-name="six.tf" horiz-adv-x="620" 
d="M354 446q87 0 143 -65.5t56 -161.5q0 -106 -63.5 -167.5t-180.5 -61.5q-133 0 -187.5 88t-54.5 254q0 99 27.5 172.5t76.5 115t107.5 61t128.5 19.5h115v-119h-92q-117 0 -169 -44q-64 -54 -64 -205l-2 -24q12 61 50.5 99.5t108.5 38.5zM313 102q105 0 105 110
q0 68 -27 97t-78 29q-108 0 -108 -120q0 -57 29 -86.5t79 -29.5z" />
    <glyph glyph-name="seven.tf" horiz-adv-x="620" 
d="M73 700h503v-119q-123 -134 -188 -273t-104 -308h-149q43 162 115.5 304.5t198.5 276.5h-376v119z" />
    <glyph glyph-name="eight.tf" horiz-adv-x="620" 
d="M400 355q80 -17 118 -63.5t38 -109.5q0 -86 -67.5 -139t-178.5 -53q-114 0 -180 54.5t-66 137.5q0 64 39 110t116 63q-46 12 -76.5 31.5t-44 43.5t-18.5 44t-5 45q0 84 65 137.5t170 53.5q109 0 172 -54.5t63 -136.5q0 -25 -5 -45t-18.5 -44t-44.5 -43.5t-77 -31.5z
M310 601q-53 0 -80 -26.5t-27 -70.5q0 -42 29.5 -69.5t77.5 -27.5q52 0 79.5 28.5t27.5 68.5q0 46 -29 71.5t-78 25.5zM310 100q58 0 87.5 28t29.5 74q0 45 -32.5 74.5t-84.5 29.5q-57 0 -87 -30.5t-30 -73.5q0 -49 31.5 -75.5t85.5 -26.5z" />
    <glyph glyph-name="nine.tf" horiz-adv-x="620" 
d="M311 710q133 0 187.5 -88t54.5 -254q0 -99 -27.5 -172.5t-76.5 -115t-107.5 -61t-128.5 -19.5h-115v119h92q117 0 169 44q64 54 64 205l2 24q-12 -61 -50.5 -99.5t-108.5 -38.5q-87 0 -143 65.5t-56 161.5q0 106 63.5 167.5t180.5 61.5zM307 362q108 0 108 120
q0 57 -29 86.5t-79 29.5q-105 0 -105 -110q0 -68 27 -97t78 -29z" />
    <glyph glyph-name="zero.dnom" horiz-adv-x="423" 
d="M211 -7q-89 0 -138 63.5t-49 172.5t49 172t138 63q90 0 139 -63t49 -172t-49 -172.5t-139 -63.5zM211 97q68 0 68 132q0 131 -68 131t-68 -131q0 -132 68 -132z" />
    <glyph glyph-name="one.dnom" horiz-adv-x="301" 
d="M130 0v265q0 40 12 74q-26 -59 -41 -74q-17 -16 -39 -16h-46v102h46q27 0 43.5 31.5t16.5 74.5h123v-457h-115z" />
    <glyph glyph-name="two.dnom" horiz-adv-x="361" 
d="M106 103h241v-104h-324v104q99 85 142 128t50 57t7 36q0 11 -10 23.5t-29 12.5q-14 0 -23.5 -3t-19 -15.5t-11.5 -34.5h-114q1 78 45 117.5t123 39.5q75 0 117 -35t42 -91q0 -38 -13 -67.5t-46 -58t-71 -51.5t-106 -58z" />
    <glyph glyph-name="three.dnom" horiz-adv-x="377" 
d="M248 235q113 -14 113 -107q0 -64 -45 -99.5t-120 -35.5q-92 0 -138.5 44t-41.5 131h114q0 -44 15 -57.5t48 -13.5q27 0 39 6.5t12 28.5q0 26 -20 37t-64 11h-17v104h33q33 0 47 7.5t14 31.5q0 37 -44 37q-50 0 -52 -48h-115q2 73 50 112.5t118 39.5q75 0 117.5 -33
t42.5 -96q0 -39 -26.5 -65.5t-79.5 -34.5z" />
    <glyph glyph-name="four.dnom" horiz-adv-x="414" 
d="M396 206v-104h-58v-102h-115v102h-204v104l132 251h187v-251h58zM133 206h90v177z" />
    <glyph glyph-name="five.dnom" horiz-adv-x="378" 
d="M224 303q60 0 98.5 -41.5t38.5 -103.5q0 -76 -47 -120.5t-134 -44.5q-77 0 -120.5 47t-41.5 121h113q1 -34 12.5 -49t43.5 -15q56 0 56 61q0 21 -13.5 39t-43.5 18q-12 0 -30 -8t-27 -17l-98 24l30 243h265v-103h-176l-13 -99q24 48 87 48z" />
    <glyph glyph-name="six.dnom" horiz-adv-x="367" 
d="M223 295q52 0 90.5 -43t38.5 -107q0 -74 -45 -113t-124 -39q-91 0 -129.5 60.5t-38.5 180.5q0 64 20 109.5t54.5 69t71 34t78.5 10.5h91v-103h-71q-74 0 -102 -25q-29 -26 -29 -98l-1 -16q17 80 96 80zM186 91q29 0 39 12t10 36q0 37 -13 49.5t-36 12.5q-31 0 -41 -15
t-10 -45q0 -50 51 -50z" />
    <glyph glyph-name="seven.dnom" horiz-adv-x="320" 
d="M16 456h300v-104q-36 -36 -64 -75t-44 -66.5t-31.5 -73.5t-20.5 -65t-18 -72h-130q31 109 72 189t125 163h-189v104z" />
    <glyph glyph-name="eight.dnom" horiz-adv-x="396" 
d="M276 228q99 -22 99 -108q0 -54 -47.5 -90t-129.5 -36q-84 0 -130.5 37.5t-46.5 88.5q0 86 100 109q-31 11 -51 25.5t-28.5 32.5t-11 32t-2.5 32q0 48 46.5 81t123.5 33q81 0 126 -34.5t45 -79.5q0 -19 -2.5 -32.5t-11 -31.5t-28.5 -33t-51 -26zM198 372q-50 0 -50 -45
q0 -19 14 -32.5t36 -13.5t36.5 13.5t14.5 32.5q0 45 -51 45zM198 88q26 0 42 12.5t16 32.5q0 21 -16 34t-42 13q-25 0 -41 -13t-16 -34q0 -20 15.5 -32.5t41.5 -12.5z" />
    <glyph glyph-name="nine.dnom" horiz-adv-x="370" 
d="M186 464q92 0 130 -60.5t38 -179.5q0 -51 -14 -91.5t-36 -64.5t-52 -40t-60 -22t-63 -6h-89v104h69q74 0 102 24q30 26 30 99l1 13q-19 -77 -96 -77q-51 0 -90 43t-39 106q0 74 45 113t124 39zM183 257q31 0 41 14.5t10 45.5q0 49 -51 49q-28 0 -38 -11.5t-10 -35.5
q0 -37 12.5 -49.5t35.5 -12.5z" />
    <glyph glyph-name="zero.numr" horiz-adv-x="423" 
d="M211 239q-89 0 -138 63.5t-49 172.5t49 172t138 63q90 0 139 -63t49 -172t-49 -172.5t-139 -63.5zM211 343q68 0 68 132q0 131 -68 131t-68 -131q0 -132 68 -132z" />
    <glyph glyph-name="one.numr" horiz-adv-x="301" 
d="M245 698v-457h-115v265q0 44 15 78l-3 -4q-26 -59 -41 -74q-17 -16 -39 -16h-46v102h46q22 0 36.5 20.5t19 43t4.5 44.5v-2h123z" />
    <glyph glyph-name="two.numr" horiz-adv-x="361" 
d="M106 349h241v-104h-324v104q99 85 142 128t50 57t7 36q0 11 -10 23.5t-29 12.5q-14 0 -23.5 -3t-19 -15.5t-11.5 -34.5h-114q1 78 45 117.5t123 39.5q75 0 117 -35t42 -91q0 -38 -13 -67.5t-46 -58t-71 -51.5t-106 -58z" />
    <glyph glyph-name="three.numr" horiz-adv-x="377" 
d="M248 481q113 -14 113 -107q0 -64 -45 -99.5t-120 -35.5q-92 0 -138.5 44t-41.5 131h114q0 -44 15 -57.5t48 -13.5q27 0 39 6.5t12 28.5q0 26 -20 37t-64 11h-17v104h33q33 0 47 7.5t14 31.5q0 37 -44 37q-50 0 -52 -48h-115q2 73 50 112.5t118 39.5q75 0 117.5 -33
t42.5 -96q0 -39 -26.5 -65.5t-79.5 -34.5z" />
    <glyph glyph-name="four.numr" horiz-adv-x="414" 
d="M396 449v-104h-58v-102h-115v102h-204v104l132 251h187v-251h58zM133 449h90v177z" />
    <glyph glyph-name="five.numr" horiz-adv-x="378" 
d="M224 546q60 0 98.5 -41.5t38.5 -103.5q0 -76 -47 -120.5t-134 -44.5q-77 0 -120.5 47t-41.5 121h113q1 -34 12.5 -49t43.5 -15q56 0 56 61q0 21 -13.5 39t-43.5 18q-12 0 -30 -8t-27 -17l-98 24l30 243h265v-103h-176l-13 -99q24 48 87 48z" />
    <glyph glyph-name="six.numr" horiz-adv-x="367" 
d="M223 538q52 0 90.5 -43t38.5 -107q0 -74 -45 -113t-124 -39q-91 0 -129.5 60.5t-38.5 180.5q0 64 20 109.5t54.5 69t71 34t78.5 10.5h91v-103h-71q-74 0 -102 -25q-29 -26 -29 -98l-1 -16q17 80 96 80zM186 334q29 0 39 12t10 36q0 37 -13 49.5t-36 12.5q-31 0 -41 -15
t-10 -45q0 -50 51 -50z" />
    <glyph glyph-name="seven.numr" horiz-adv-x="320" 
d="M16 700h300v-104q-36 -36 -64 -75t-44 -66.5t-31.5 -73.5t-20.5 -65t-18 -72h-130q31 109 72 189t125 163h-189v104z" />
    <glyph glyph-name="eight.numr" horiz-adv-x="389" 
d="M273 473q99 -22 99 -108q0 -54 -47.5 -90t-129.5 -36q-84 0 -130.5 37.5t-46.5 88.5q0 86 100 109q-31 11 -51 25.5t-28.5 32.5t-11 32t-2.5 32q0 48 46.5 81t123.5 33q81 0 126 -34.5t45 -79.5q0 -19 -2.5 -32.5t-11 -31.5t-28.5 -33t-51 -26zM195 617q-50 0 -50 -45
q0 -19 14 -32.5t36 -13.5t36.5 13.5t14.5 32.5q0 45 -51 45zM195 333q26 0 42 12.5t16 32.5q0 21 -16 34t-42 13q-25 0 -41 -13t-16 -34q0 -20 15.5 -32.5t41.5 -12.5z" />
    <glyph glyph-name="nine.numr" horiz-adv-x="370" 
d="M186 710q92 0 130 -60.5t38 -179.5q0 -51 -14 -91.5t-36 -64.5t-52 -40t-60 -22t-63 -6h-89v104h69q74 0 102 24q30 26 30 99l1 13q-19 -77 -96 -77q-51 0 -90 43t-39 106q0 74 45 113t124 39zM183 503q31 0 41 14.5t10 45.5q0 49 -51 49q-28 0 -38 -11.5t-10 -35.5
q0 -37 12.5 -49.5t35.5 -12.5z" />
    <glyph glyph-name="bullet.SS03" horiz-adv-x="616" 
d="M308 82q-106 0 -182 76t-76 182t76 182t182 76t182 -76t76 -182t-76 -182t-182 -76z" />
    <glyph glyph-name="colon.case" horiz-adv-x="252" 
d="M50 447v143h152v-143h-152zM50 90v143h152v-143h-152z" />
    <glyph glyph-name="exclamdown.case" horiz-adv-x="252" 
d="M202 700v-143h-152v143h152zM190 0h-132v480h132v-480z" />
    <glyph glyph-name="questiondown.case" horiz-adv-x="515" 
d="M336 700v-143h-152v143h152zM370 223h131q-2 -119 -65 -176t-175 -57q-108 0 -167 50.5t-59 134.5q0 39 12.5 71.5t39.5 60.5t47.5 44t57.5 42v87h132v-100q-103 -82 -120 -101q-31 -42 -32 -89q0 -35 23.5 -58t65.5 -23q48 0 76 25.5t33 88.5z" />
    <glyph glyph-name="period.ss03" horiz-adv-x="249" 
d="M125 -5q-32 0 -53.5 21.5t-21.5 53.5t21.5 53.5t53.5 21.5q31 0 52.5 -21.5t21.5 -53.5t-21.5 -53.5t-52.5 -21.5z" />
    <glyph glyph-name="comma.ss03" horiz-adv-x="268" 
d="M50 -167v83q32 4 54 26.5t23 54.5q-34 2 -52 22.5t-18 50.5q0 35 23 55t58 20q38 0 59 -26t21 -70q0 -98 -46.5 -155.5t-121.5 -60.5z" />
    <glyph glyph-name="colon.ss03" horiz-adv-x="249" 
d="M125 354q-32 0 -53.5 21.5t-21.5 53.5t21.5 53.5t53.5 21.5q31 0 52.5 -21.5t21.5 -53.5t-21.5 -53.5t-52.5 -21.5zM125 -5q-32 0 -53.5 21.5t-21.5 53.5t21.5 53.5t53.5 21.5q31 0 52.5 -21.5t21.5 -53.5t-21.5 -53.5t-52.5 -21.5z" />
    <glyph glyph-name="semicolon.ss03" horiz-adv-x="261" 
d="M128 354q-32 0 -53.5 21.5t-21.5 53.5t21.5 53.5t53.5 21.5q31 0 52.5 -21.5t21.5 -53.5t-21.5 -53.5t-52.5 -21.5zM43 -167v83q32 4 54 26.5t23 54.5q-34 2 -52 22.5t-18 50.5q0 35 23 55t58 20q38 0 59 -26t21 -70q0 -98 -46.5 -155.5t-121.5 -60.5z" />
    <glyph glyph-name="ellipsis.ss03" horiz-adv-x="713" 
d="M125 -5q-32 0 -53.5 21.5t-21.5 53.5t21.5 53.5t53.5 21.5q31 0 52.5 -21.5t21.5 -53.5t-21.5 -53.5t-52.5 -21.5zM357 -5q-32 0 -53.5 21.5t-21.5 53.5t21.5 53.5t53.5 21.5q31 0 52.5 -21.5t21.5 -53.5t-21.5 -53.5t-52.5 -21.5zM589 -5q-32 0 -53.5 21.5t-21.5 53.5
t21.5 53.5t53.5 21.5q31 0 52.5 -21.5t21.5 -53.5t-21.5 -53.5t-52.5 -21.5z" />
    <glyph glyph-name="exclam.ss03" horiz-adv-x="255" 
d="M62 700h132v-480h-132v480zM128 -5q-34 0 -56 22.5t-22 55.5t22 55.5t56 22.5q33 0 55 -22.5t22 -55.5t-22 -55.5t-55 -22.5z" />
    <glyph glyph-name="exclamdown.ss03" horiz-adv-x="255" 
d="M128 349q-34 0 -56 22.5t-22 55.5t22 55.5t56 22.5q33 0 55 -22.5t22 -55.5t-22 -55.5t-55 -22.5zM193 -200h-132v480h132v-480z" />
    <glyph glyph-name="question.ss03" horiz-adv-x="535" 
d="M264 710q108 0 167 -50.5t59 -134.5q0 -127 -157 -206v-99h-132v116q102 67 127 93.5t25 80.5q0 35 -23.5 58t-65.5 23q-48 0 -76 -25.5t-33 -88.5h-131q2 119 65 176t175 57zM265 151q33 0 55 -22.5t22 -55.5t-22 -55.5t-55 -22.5q-34 0 -56 22.5t-22 55.5t22 55.5
t56 22.5z" />
    <glyph glyph-name="questiondown.ss03" horiz-adv-x="505" 
d="M261 349q-34 0 -56 22.5t-22 55.5t22 55.5t56 22.5q33 0 55 -22.5t22 -55.5t-22 -55.5t-55 -22.5zM370 23h131q-2 -119 -65 -176t-175 -57q-108 0 -167 50.5t-59 134.5q0 39 12.5 71.5t39.5 60.5t47.5 44t57.5 42v87h132v-100q-103 -82 -120 -101q-31 -42 -32 -89
q0 -35 23.5 -58t65.5 -23q48 0 76 25.5t33 88.5z" />
    <glyph glyph-name="periodcentered.ss03" horiz-adv-x="247" 
d="M124 289q-32 0 -53 21.5t-21 52.5t21.5 52t52.5 21t52 -21t21 -52t-21 -52.5t-52 -21.5z" />
    <glyph glyph-name="colon.case.ss03" horiz-adv-x="249" 
d="M125 437q-32 0 -53.5 21.5t-21.5 53.5t21.5 53.5t53.5 21.5q31 0 52.5 -21.5t21.5 -53.5t-21.5 -53.5t-52.5 -21.5zM125 78q-32 0 -53.5 21.5t-21.5 53.5t21.5 53.5t53.5 21.5q31 0 52.5 -21.5t21.5 -53.5t-21.5 -53.5t-52.5 -21.5z" />
    <glyph glyph-name="exclamdown.case.ss03" horiz-adv-x="255" 
d="M128 549q-34 0 -56 22.5t-22 55.5t22 55.5t56 22.5q33 0 55 -22.5t22 -55.5t-22 -55.5t-55 -22.5zM192 0h-132v480h132v-480z" />
    <glyph glyph-name="questiondown.case.ss03" horiz-adv-x="515" 
d="M260 549q-34 0 -56 22.5t-22 55.5t22 55.5t56 22.5q33 0 55 -22.5t22 -55.5t-22 -55.5t-55 -22.5zM370 223h131q-2 -119 -65 -176t-175 -57q-108 0 -167 50.5t-59 134.5q0 39 12.5 71.5t39.5 60.5t47.5 44t57.5 42v87h132v-100q-103 -82 -120 -101q-31 -42 -32 -89
q0 -35 23.5 -58t65.5 -23q48 0 76 25.5t33 88.5z" />
    <glyph glyph-name="parenleft.case" horiz-adv-x="326" 
d="M316 780q-134 -185 -134 -430q0 -255 134 -440h-132q-134 185 -134 440q0 245 134 430h132z" />
    <glyph glyph-name="parenright.case" horiz-adv-x="326" 
d="M10 780h132q134 -185 134 -430q0 -255 -134 -440h-132q134 185 134 440q0 245 -134 430z" />
    <glyph glyph-name="braceleft.case" horiz-adv-x="425" 
d="M364 -90q-97 0 -152.5 49.5t-55.5 147.5v104q0 35 -18.5 55t-56.5 20h-41v119h41q38 0 56.5 20t18.5 55v103q0 98 55.5 147.5t152.5 49.5h41v-119h-41q-76 0 -76 -78v-103q0 -107 -82 -139q82 -32 82 -130v-104q0 -78 76 -78h41v-119h-41z" />
    <glyph glyph-name="braceright.case" horiz-adv-x="425" 
d="M61 -90h-41v119h41q76 0 76 78v104q0 98 82 130q-82 32 -82 139v103q0 78 -76 78h-41v119h41q97 0 152.5 -49.5t55.5 -147.5v-103q0 -35 18.5 -55t56.5 -20h41v-119h-41q-38 0 -56.5 -20t-18.5 -55v-104q0 -98 -55.5 -147.5t-152.5 -49.5z" />
    <glyph glyph-name="bracketleft.case" horiz-adv-x="319" 
d="M299 661h-117v-632h117v-119h-249v870h249v-119z" />
    <glyph glyph-name="bracketright.case" horiz-adv-x="319" 
d="M269 780v-870h-249v119h117v632h-117v119h249z" />
    <glyph glyph-name="hyphen.case" horiz-adv-x="485" 
d="M415 296h-345v119h345v-119z" />
    <glyph glyph-name="endash.case" horiz-adv-x="645" 
d="M595 408v-112h-545v112h545z" />
    <glyph glyph-name="emdash.case" horiz-adv-x="945" 
d="M895 408v-112h-845v112h845z" />
    <glyph glyph-name="guillemotleft.case" horiz-adv-x="561" 
d="M311 550l-151 -205l151 -205h-146l-150 205l150 205h146zM546 550l-151 -205l151 -205h-146l-150 205l150 205h146z" />
    <glyph glyph-name="guillemotright.case" horiz-adv-x="561" 
d="M161 550l150 -205l-150 -205h-146l151 205l-151 205h146zM396 550l150 -205l-150 -205h-146l151 205l-151 205h146z" />
    <glyph glyph-name="guilsinglleft.case" horiz-adv-x="326" 
d="M311 550l-151 -205l151 -205h-146l-150 205l150 205h146z" />
    <glyph glyph-name="guilsinglright.case" horiz-adv-x="326" 
d="M161 550l150 -205l-150 -205h-146l151 205l-151 205h146z" />
    <glyph glyph-name="quotesinglbase.ss03" horiz-adv-x="254" 
d="M50 -167v83q32 4 54 26.5t23 54.5q-34 2 -52 22.5t-18 50.5q0 35 23 55t58 20q38 0 59 -26t21 -70q0 -98 -46.5 -155.5t-121.5 -60.5z" />
    <glyph glyph-name="quotedblbase.ss03" horiz-adv-x="458" 
d="M50 -167v83q32 4 54 26.5t23 54.5q-34 2 -52 22.5t-18 50.5q0 35 23 55t58 20q38 0 59 -26t21 -70q0 -98 -46.5 -155.5t-121.5 -60.5zM240 -167v83q32 4 54 26.5t23 54.5q-34 2 -52 22.5t-18 50.5q0 35 23 55t58 20q38 0 59 -26t21 -70q0 -98 -46.5 -155.5t-121.5 -60.5z
" />
    <glyph glyph-name="quotedblleft.ss03" horiz-adv-x="459" 
d="M218 700v-83q-76 -9 -77 -81q34 -2 52 -22.5t18 -50.5q0 -35 -20 -54t-54 -19q-39 0 -63 30.5t-24 80.5q0 96 45.5 146t122.5 53zM409 700v-83q-76 -9 -77 -81q34 -2 52 -22.5t18 -50.5q0 -35 -20 -54t-54 -19q-39 0 -63 30.5t-24 80.5q0 96 45.5 146t122.5 53z" />
    <glyph glyph-name="quotedblright.ss03" horiz-adv-x="459" 
d="M50 390v83q76 9 77 81q-34 2 -52 22.5t-18 50.5q0 35 20 54t54 19q39 0 63 -30.5t24 -80.5q0 -96 -45.5 -146t-122.5 -53zM241 390v83q76 9 77 81q-34 2 -52 22.5t-18 50.5q0 35 20 54t54 19q39 0 63 -30.5t24 -80.5q0 -96 -45.5 -146t-122.5 -53z" />
    <glyph glyph-name="quoteleft.ss03" horiz-adv-x="268" 
d="M218 700v-83q-76 -9 -77 -81q34 -2 52 -22.5t18 -50.5q0 -35 -20 -54t-54 -19q-39 0 -63 30.5t-24 80.5q0 96 45.5 146t122.5 53z" />
    <glyph glyph-name="quoteright.ss03" horiz-adv-x="268" 
d="M50 390v83q76 9 77 81q-34 2 -52 22.5t-18 50.5q0 35 20 54t54 19q39 0 63 -30.5t24 -80.5q0 -96 -45.5 -146t-122.5 -53z" />
    <glyph glyph-name="uni20BF.tf" horiz-adv-x="620" 
d="M561 196q0 -70 -35.5 -117.5t-100.5 -66.5v-92h-107v80h-53v-80h-107v80h-98v700h98v80h107v-80h53v80h107v-94q125 -38 125 -168q0 -126 -133 -160q144 -26 144 -162zM415 499q0 48 -26 65t-86 17h-111v-164h109q61 0 87.5 17t26.5 65zM291 119q23 0 36 0.5t35 5
t33.5 13.5t21 26.5t9.5 42.5q0 32 -13 52.5t-38.5 28t-43 9.5t-47.5 2h-92v-180h99z" />
    <glyph glyph-name="currency.tf" horiz-adv-x="620" 
d="M564 341q0 -70 -37 -133l61 -61l-75 -76l-60 60q-64 -44 -143 -44t-143 44l-60 -60l-75 76l61 61q-37 63 -37 133q0 79 44 143l-68 68l76 76l70 -70q63 37 132 37q71 0 132 -37l70 70l76 -76l-68 -68q44 -64 44 -143zM310 205q55 0 94.5 40t39.5 96t-39.5 96t-94.5 40
t-94.5 -40t-39.5 -96t39.5 -96t94.5 -40z" />
    <glyph glyph-name="uni20BA.tf" horiz-adv-x="620" 
d="M592 278q-3 -138 -95 -207t-231 -71h-132v202l-106 -38v95l106 38v50l-106 -38v95l106 38v258h132v-212l157 56v-95l-157 -56v-50l157 56v-95l-157 -56v-129q108 1 162 42t57 141z" />
    <glyph glyph-name="uni20BD.tf" horiz-adv-x="620" 
d="M103 0v124h-86v95h86v481h262q113 0 176 -55t63 -148t-63 -148t-176 -55h-130v-75h207v-95h-207v-124h-132zM235 413h109q125 0 125 84t-125 84h-109v-168z" />
    <glyph glyph-name="uni20A9.tf" horiz-adv-x="620" 
d="M578 359h-78l-3 -50h81v-95h-86l-12 -214h-135l-14 214h-41l-14 -214h-137l-12 214h-86v95h81l-2 50h-79v95h73l-13 246h76l13 -246h46l15 246h118l15 -246h45l13 246h77l-14 -246h73v-95zM310 525l-5 -71h10zM195 359l3 -50h28l4 50h-35zM296 309h28l-3 50h-22zM421 309
l3 50h-34l3 -50h28zM211 60l9 154h-17zM408 61l8 153h-17z" />
    <glyph glyph-name="plus.case" horiz-adv-x="525" 
d="M480 418v-115h-160v-145h-115v145h-160v115h160v145h115v-145h160z" />
    <glyph glyph-name="minus.case" horiz-adv-x="445" 
d="M395 306h-345v112h345v-112z" />
    <glyph glyph-name="divide.case" horiz-adv-x="535" 
d="M205 467v118h126v-118h-126zM485 303h-435v115h435v-115zM205 135v118h125v-118h-125z" />
    <glyph glyph-name="equal.case" horiz-adv-x="565" 
d="M515 403h-465v115h465v-115zM515 203h-465v115h465v-115z" />
    <glyph glyph-name="notequal.case" horiz-adv-x="565" 
d="M515 403h-155l-33 -85h188v-115h-232l-51 -133h-113l51 133h-120v115h164l33 85h-197v115h241l51 133h113l-51 -133h111v-115z" />
    <glyph glyph-name="greater.case" horiz-adv-x="447" 
d="M15 550l417 -129v-196l-417 -129v132l333 95l-333 95v132z" />
    <glyph glyph-name="less.case" horiz-adv-x="447" 
d="M432 550v-132l-333 -95l333 -95v-132l-417 129v196z" />
    <glyph glyph-name="greaterequal.case" horiz-adv-x="517" 
d="M50 585l417 -79v-196l-417 -79v132l383 45l-383 45v132zM50 70v115h415v-115h-415z" />
    <glyph glyph-name="lessequal.case" horiz-adv-x="517" 
d="M467 585v-132l-383 -45l383 -45v-132l-417 79v196zM52 70v115h415v-115h-415z" />
    <glyph glyph-name="plusminus.case" horiz-adv-x="515" 
d="M315 455h150v-115h-150v-115h-115v115h-150v115h150v115h115v-115zM50 70v115h415v-115h-415z" />
    <glyph glyph-name="approxequal.case" horiz-adv-x="503" 
d="M345 287q-52 0 -97 25q-4 2 -15 8.5t-15 8t-11 5t-13 4.5t-12 1q-32 0 -32 -36h-100q0 57 29.5 93t78.5 36q48 0 96 -25q6 -3 18.5 -10t18 -9.5t14 -5t16.5 -2.5q33 0 33 36h99q0 -58 -29 -93.5t-79 -35.5z" />
    <glyph glyph-name="logicalnot.case" horiz-adv-x="515" 
d="M50 418h415v-268h-115v153h-300v115z" />
    <glyph glyph-name="arrowup.case" horiz-adv-x="761" 
d="M711 381l-84 -84l-181 181l-1 -478h-132v479l-181 -181l-82 81l332 331z" />
    <glyph glyph-name="uni2197.case" horiz-adv-x="616" 
d="M97 621h469v-466h-119v257l-304 -304l-93 93l303 305h-256v115z" />
    <glyph glyph-name="arrowright.case" horiz-adv-x="770" 
d="M389 651l331 -332l-329 -329l-84 84l188 188l-445 1v118h446l-188 188z" />
    <glyph glyph-name="uni2198.case" horiz-adv-x="613" 
d="M448 589h115v-469h-466v119h257l-304 304l93 93l305 -303v256z" />
    <glyph glyph-name="arrowdown.case" horiz-adv-x="761" 
d="M627 403l84 -84l-329 -329l-332 331l82 81l181 -181v479h132l1 -478z" />
    <glyph glyph-name="uni2199.case" horiz-adv-x="613" 
d="M563 543l-304 -304h257v-119h-466v469h115v-256l305 303z" />
    <glyph glyph-name="arrowleft.case" horiz-adv-x="770" 
d="M720 381v-118l-445 -1l188 -188l-84 -84l-329 329l331 332l81 -82l-188 -188h446z" />
    <glyph glyph-name="uni2196.case" horiz-adv-x="616" 
d="M566 201l-93 -93l-304 304v-257h-119v466h469v-115h-256z" />
    <glyph glyph-name="at.case" horiz-adv-x="866" 
d="M433 710q180 0 291.5 -111.5t111.5 -277.5q0 -82 -47 -142t-138 -60q-112 0 -131 93q-25 -93 -128 -93q-68 0 -114 54t-46 140t46 140t114 54q94 0 123 -79v79h116v-232q0 -41 9.5 -58t33.5 -17q25 0 34.5 24t9.5 97q0 128 -77.5 210.5t-207.5 82.5t-207.5 -82.5
t-77.5 -210.5t77.5 -210.5t207.5 -82.5q61 0 113 19l40 -86q-70 -29 -153 -29q-180 0 -291.5 111.5t-111.5 277.5t111.5 277.5t291.5 111.5zM438 200q42 0 65.5 30.5t23.5 82.5q0 50 -22.5 81.5t-66.5 31.5q-42 0 -65 -30t-23 -83t23 -83t65 -30z" />
    <glyph glyph-name="uni0308.ss03" horiz-adv-x="0" 
d="M-301 556q-31 0 -52.5 21t-21.5 53q0 31 21.5 52t52.5 21t52 -21t21 -52t-21 -52.5t-52 -21.5zM-123 556q-31 0 -52.5 21t-21.5 53q0 31 21.5 52t52.5 21t52 -21t21 -52t-21 -52.5t-52 -21.5z" />
    <glyph glyph-name="uni0307.ss03" horiz-adv-x="0" 
d="M-126 555q-32 0 -54 22.5t-22 53.5t22 53.5t54 22.5t54 -22.5t22 -53.5t-22 -53.5t-54 -22.5z" />
    <glyph glyph-name="uni0326.ss03" horiz-adv-x="0" 
d="M-158 -201v65q21 1 31 11.5t10 36.5h-41v88h108v-88q0 -44 -24 -77.5t-84 -35.5z" />
    <glyph glyph-name="dieresis.ss03" horiz-adv-x="425" 
d="M124 556q-32 0 -53 21t-21 53q0 31 21.5 52t52.5 21t52 -21t21 -52t-21 -52.5t-52 -21.5zM302 556q-32 0 -53 21t-21 53q0 31 21.5 52t52.5 21t52 -21t21 -52t-21 -52.5t-52 -21.5z" />
    <glyph glyph-name="dotaccent.ss03" horiz-adv-x="247" 
d="M124 556q-32 0 -53 21t-21 53q0 31 21.5 52t52.5 21t52 -21t21 -52t-21 -52.5t-52 -21.5z" />
    <glyph glyph-name="rupeeIndia.tf" horiz-adv-x="620" 
d="M533 700v-95h-101q41 -28 54 -72h47v-95h-44q-14 -74 -73.5 -105t-159.5 -31h-10l287 -302h-153l-293 302v87h176q98 0 119 49h-295v95h295q-23 48 -119 48h-176v119h446z" />
    </font>
</defs>
</svg>
